<svg class="main-svg" xmlns="http://www.w3.org/2000/svg" xmlns:xlink="http://www.w3.org/1999/xlink" width="1600" height="900" style="" viewBox="0 0 1600 900"><rect x="0" y="0" width="1600" height="900" style="fill: rgb(255, 255, 255); fill-opacity: 1;"/><defs id="defs-6ca254"><g class="clips"><clipPath id="clip6ca254xyplot" class="plotclip"><rect width="1348" height="720"/></clipPath><clipPath class="axesclip" id="clip6ca254x"><rect x="80" y="0" width="1348" height="900"/></clipPath><clipPath class="axesclip" id="clip6ca254y"><rect x="0" y="100" width="1600" height="720"/></clipPath><clipPath class="axesclip" id="clip6ca254xy"><rect x="80" y="100" width="1348" height="720"/></clipPath></g><g class="gradients"/></defs><g class="bglayer"/><g class="layer-below"><g class="imagelayer"/><g class="shapelayer"/></g><g class="cartesianlayer"><g class="subplot xy"><g class="layer-subplot"><g class="shapelayer"/><g class="imagelayer"/></g><g class="gridlayer"><g class="x"><path class="xgrid crisp" transform="translate(303.74,0)" d="M0,100v720" style="stroke: rgb(238, 238, 238); stroke-opacity: 1; stroke-width: 1px;"/><path class="xgrid crisp" transform="translate(453.82,0)" d="M0,100v720" style="stroke: rgb(238, 238, 238); stroke-opacity: 1; stroke-width: 1px;"/><path class="xgrid crisp" transform="translate(603.91,0)" d="M0,100v720" style="stroke: rgb(238, 238, 238); stroke-opacity: 1; stroke-width: 1px;"/><path class="xgrid crisp" transform="translate(754,0)" d="M0,100v720" style="stroke: rgb(238, 238, 238); stroke-opacity: 1; stroke-width: 1px;"/><path class="xgrid crisp" transform="translate(904.09,0)" d="M0,100v720" style="stroke: rgb(238, 238, 238); stroke-opacity: 1; stroke-width: 1px;"/><path class="xgrid crisp" transform="translate(1054.17,0)" d="M0,100v720" style="stroke: rgb(238, 238, 238); stroke-opacity: 1; stroke-width: 1px;"/><path class="xgrid crisp" transform="translate(1204.26,0)" d="M0,100v720" style="stroke: rgb(238, 238, 238); stroke-opacity: 1; stroke-width: 1px;"/><path class="xgrid crisp" transform="translate(1354.35,0)" d="M0,100v720" style="stroke: rgb(238, 238, 238); stroke-opacity: 1; stroke-width: 1px;"/></g><g class="y"><path class="ygrid crisp" transform="translate(0,777.75)" d="M80,0h1348" style="stroke: rgb(238, 238, 238); stroke-opacity: 1; stroke-width: 1px;"/><path class="ygrid crisp" transform="translate(0,671.83)" d="M80,0h1348" style="stroke: rgb(238, 238, 238); stroke-opacity: 1; stroke-width: 1px;"/><path class="ygrid crisp" transform="translate(0,565.9200000000001)" d="M80,0h1348" style="stroke: rgb(238, 238, 238); stroke-opacity: 1; stroke-width: 1px;"/><path class="ygrid crisp" transform="translate(0,354.08000000000004)" d="M80,0h1348" style="stroke: rgb(238, 238, 238); stroke-opacity: 1; stroke-width: 1px;"/><path class="ygrid crisp" transform="translate(0,248.17)" d="M80,0h1348" style="stroke: rgb(238, 238, 238); stroke-opacity: 1; stroke-width: 1px;"/><path class="ygrid crisp" transform="translate(0,142.25)" d="M80,0h1348" style="stroke: rgb(238, 238, 238); stroke-opacity: 1; stroke-width: 1px;"/></g></g><g class="zerolinelayer"><path class="xzl zl crisp" transform="translate(153.65,0)" d="M0,100v720" style="stroke: rgb(68, 68, 68); stroke-opacity: 1; stroke-width: 1px;"/><path class="yzl zl crisp" transform="translate(0,460)" d="M80,0h1348" style="stroke: rgb(68, 68, 68); stroke-opacity: 1; stroke-width: 1px;"/></g><path class="xlines-below"/><path class="ylines-below"/><g class="overlines-below"/><g class="xaxislayer-below"/><g class="yaxislayer-below"/><g class="overaxes-below"/><g class="plot" transform="translate(80,100)" clip-path="url('#clip6ca254xyplot')"><g class="scatterlayer mlayer"><g class="trace scatter tracecf611a" style="stroke-miterlimit: 2; opacity: 1;"><g class="fills"/><g class="errorbars"/><g class="lines"><path class="js-line" d="M73.65,360L86.94,333.27L86.97,333.23L96.48,315.86L96.51,315.83L108.21,296.55L108.24,296.51L117.38,283.08L117.41,283.05L125.09,272.88L125.12,272.85L134.59,261.76L134.61,261.74L142.35,253.86L142.37,253.84L150.69,246.58L150.71,246.57L159.2,240.46L159.22,240.45L168.95,235.08L168.97,235.07L176.63,232.07L176.65,232.07L183.47,230.31L183.48,230.31L192.94,229.29L192.95,229.29L200.01,229.6L200.03,229.6L207.14,230.82L207.16,230.83L214.62,233.08L214.64,233.09L224.56,237.6L224.57,237.61L236.64,245.33L236.65,245.35L242.84,250.21L242.85,250.23L249.74,256.33L249.76,256.35L266.92,274.43L266.93,274.45L276.04,285.49L276.05,285.51L285.59,297.94L285.6,297.96L299.52,317.28L299.53,317.3L311.25,334.17L311.26,334.19L341.33,376.34L341.35,376.35L348.67,385.61L348.68,385.62L357.44,395.78L357.45,395.79L369.39,407.73L369.4,407.73L378.55,415.11L378.56,415.11L385.84,419.77L385.85,419.77L392.7,423.11L392.71,423.11L400.64,425.7L400.65,425.7L407.96,426.88L407.97,426.88L414.46,426.99L414.47,426.99L421.27,426.24L421.28,426.23L428.71,424.49L428.72,424.48L437.35,421.41L437.36,421.4L448.05,416.33L448.05,416.32L459.44,409.8L459.44,409.79L506.41,381.06L506.42,381.06L518.77,375.71L518.78,375.71L526.12,373.38L526.13,373.38L536.8,371.3L536.81,371.3L545.96,370.83L545.96,370.83L545.97,370.83L554.99,371.58L554.99,371.58L555,371.59L564.2,373.56L564.2,373.56L564.21,373.57L574.39,377.05L574.39,377.05L574.4,377.06L586.97,382.88L586.97,382.89L594.55,386.95L594.56,386.96L607.93,394.48L607.93,394.48L607.94,394.49L631.88,405.96L631.89,405.96L639.34,408.34L639.34,408.34L639.35,408.34L649.61,410.31L649.62,410.31L657.96,410.67L657.97,410.67L669.3,409.21L669.3,409.2L676.92,406.92L676.93,406.91L684.44,403.62L684.45,403.61L693.7,398.16L693.7,398.15L701.05,392.75L701.06,392.74L714.19,380.87L714.2,380.86L725.9,368.11L725.9,368.1L734.36,357.77L734.36,357.76L743.85,345.21L743.85,345.2L756.91,326.55L756.91,326.54L764.28,315.47L764.29,315.45L770.37,306.11L770.37,306.09L780.78,289.75L780.78,289.74L835.94,204.39L835.95,204.38L852.39,181.93L852.41,181.91L865.73,165.39L865.75,165.38L879.11,150.51L879.12,150.5L890.18,139.54L890.2,139.53L899.58,131.21L899.6,131.2L913.68,120.42L913.7,120.42L922.78,114.54L922.79,114.54L934.68,108.09L934.69,108.09L949.63,101.92L949.64,101.92L963.9,97.94L963.92,97.94L974,96.19L974.02,96.19L987.43,95.15L987.44,95.15L997.07,95.25L997.08,95.26L1006.48,96.01L1006.5,96.02L1015.66,97.34L1015.68,97.35L1033.01,101.34L1033.03,101.35L1054.56,108.79L1054.58,108.8L1067.47,114.43L1067.49,114.44L1085.57,123.7L1085.59,123.72L1096.54,130.03L1096.57,130.05L1121.56,146.27L1121.58,146.29L1124.26,148.17" style="vector-effect: non-scaling-stroke; fill: none; stroke: rgb(31, 119, 180); stroke-opacity: 1; stroke-width: 2px; opacity: 1;"/></g><g class="points"/><g class="text"/></g><g class="trace scatter trace5a6794" style="stroke-miterlimit: 2; opacity: 1;"><g class="fills"/><g class="errorbars"/><g class="lines"><path class="js-line" d="M73.65,360L223.74,42.25L373.82,677.75L523.91,148.17L674,624.79L824.09,148.17L974.17,42.25L1124.26,148.17" style="vector-effect: non-scaling-stroke; fill: none; stroke: rgb(255, 127, 14); stroke-opacity: 1; stroke-width: 2px; opacity: 1; stroke-dasharray: 9px, 9px;"/></g><g class="points"/><g class="text"/></g><g class="trace scatter trace652bf8" style="stroke-miterlimit: 2; opacity: 1;"><g class="fills"/><g class="errorbars"/><g class="lines"/><g class="points"><path class="point" transform="translate(73.65,360)" d="M5,0A5,5 0 1,1 0,-5A5,5 0 0,1 5,0Z" style="opacity: 1; stroke-width: 0px; fill: rgb(44, 160, 44); fill-opacity: 1;"/><path class="point" transform="translate(223.74,42.25)" d="M5,0A5,5 0 1,1 0,-5A5,5 0 0,1 5,0Z" style="opacity: 1; stroke-width: 0px; fill: rgb(44, 160, 44); fill-opacity: 1;"/><path class="point" transform="translate(373.82,677.75)" d="M5,0A5,5 0 1,1 0,-5A5,5 0 0,1 5,0Z" style="opacity: 1; stroke-width: 0px; fill: rgb(44, 160, 44); fill-opacity: 1;"/><path class="point" transform="translate(523.91,148.17)" d="M5,0A5,5 0 1,1 0,-5A5,5 0 0,1 5,0Z" style="opacity: 1; stroke-width: 0px; fill: rgb(44, 160, 44); fill-opacity: 1;"/><path class="point" transform="translate(674,624.79)" d="M5,0A5,5 0 1,1 0,-5A5,5 0 0,1 5,0Z" style="opacity: 1; stroke-width: 0px; fill: rgb(44, 160, 44); fill-opacity: 1;"/><path class="point" transform="translate(824.09,148.17)" d="M5,0A5,5 0 1,1 0,-5A5,5 0 0,1 5,0Z" style="opacity: 1; stroke-width: 0px; fill: rgb(44, 160, 44); fill-opacity: 1;"/><path class="point" transform="translate(974.17,42.25)" d="M5,0A5,5 0 1,1 0,-5A5,5 0 0,1 5,0Z" style="opacity: 1; stroke-width: 0px; fill: rgb(44, 160, 44); fill-opacity: 1;"/><path class="point" transform="translate(1124.26,148.17)" d="M5,0A5,5 0 1,1 0,-5A5,5 0 0,1 5,0Z" style="opacity: 1; stroke-width: 0px; fill: rgb(44, 160, 44); fill-opacity: 1;"/></g><g class="text"/></g><g class="trace scatter trace6aa233" style="stroke-miterlimit: 2; opacity: 1;"><g class="fills"/><g class="errorbars"/><g class="lines"><path class="js-line" d="M73.65,360L74.4,343.62L74.41,343.61L75.92,332.09L75.93,332.08L78.03,321.94L78.04,321.93L80.61,312.87L80.61,312.87L80.62,312.86L83.56,304.72L83.56,304.72L83.57,304.71L86.82,297.32L86.83,297.32L91.07,289.32L91.07,289.32L91.08,289.31L97.74,279.15L97.74,279.15L97.75,279.14L104.09,271.28L104.1,271.28L111.17,263.96L111.17,263.96L111.18,263.95L119.08,257.11L119.09,257.11L127.88,250.75L127.89,250.75L137.64,244.9L137.65,244.9L145.59,240.89L145.6,240.89L156.25,236.4L156.26,236.4L166,233.04L166.01,233.04L179.07,229.47L179.08,229.47L191.47,226.94L191.48,226.94L205.13,224.97L205.14,224.97L220.89,223.62L220.91,223.62L239.58,223.12L239.59,223.12L261.93,223.87L261.94,223.88L286.52,226.15L286.53,226.16L297.37,227.58L297.38,227.59L320.69,231.44L320.7,231.45L332.54,233.78L332.55,233.79L359.1,239.85L359.11,239.86L372.27,243.25L372.28,243.26L406.02,253.02L406.03,253.03L420.89,257.76L420.9,257.77L432.56,261.65L432.57,261.66L466.56,273.77L466.57,273.78L483.64,280.26L483.65,280.27L497.01,285.51L497.02,285.52L521.9,295.64L521.91,295.65L539.15,302.91L539.16,302.92L595.5,327.87L595.52,327.88L619.95,339.16L619.96,339.17L696.67,375.78L696.68,375.79L710.95,382.72L710.96,382.73L750.97,402.22L750.98,402.23L765.09,409.09L765.1,409.1L816.85,434.07L816.86,434.08L834.45,442.43L834.46,442.44L854.53,451.85L854.54,451.86L880.07,463.61L880.08,463.62L977.95,505.44L977.97,505.44L1015.13,519.51L1015.15,519.51L1032.65,525.71L1032.66,525.71L1045.86,530.19L1045.88,530.19L1083,541.78L1083.01,541.78L1098.48,546.15L1098.5,546.15L1138.01,555.94L1138.03,555.94L1152.19,558.94L1152.21,558.94L1162.95,561.03L1162.97,561.03L1186.97,565.07L1186.98,565.07L1199.7,566.85L1199.71,566.85L1227.97,569.87L1227.99,569.87L1240.47,570.78L1240.49,570.78L1266.71,571.78L1266.73,571.78L1274.35,571.83" style="vector-effect: non-scaling-stroke; fill: none; stroke: rgb(214, 39, 40); stroke-opacity: 1; stroke-width: 2px; opacity: 1;"/></g><g class="points"/><g class="text"/></g><g class="trace scatter trace24f79e" style="stroke-miterlimit: 2; opacity: 1;"><g class="fills"/><g class="errorbars"/><g class="lines"><path class="js-line" d="M73.65,360L73.65,148.17L373.82,148.17L974.17,571.83L1274.35,571.83" style="vector-effect: non-scaling-stroke; fill: none; stroke: rgb(148, 103, 189); stroke-opacity: 1; stroke-width: 2px; opacity: 1; stroke-dasharray: 9px, 9px;"/></g><g class="points"/><g class="text"/></g><g class="trace scatter traceeb2303" style="stroke-miterlimit: 2; opacity: 1;"><g class="fills"/><g class="errorbars"/><g class="lines"/><g class="points"><path class="point" transform="translate(73.65,360)" d="M5,0A5,5 0 1,1 0,-5A5,5 0 0,1 5,0Z" style="opacity: 1; stroke-width: 0px; fill: rgb(140, 86, 75); fill-opacity: 1;"/><path class="point" transform="translate(73.65,148.17)" d="M5,0A5,5 0 1,1 0,-5A5,5 0 0,1 5,0Z" style="opacity: 1; stroke-width: 0px; fill: rgb(140, 86, 75); fill-opacity: 1;"/><path class="point" transform="translate(373.82,148.17)" d="M5,0A5,5 0 1,1 0,-5A5,5 0 0,1 5,0Z" style="opacity: 1; stroke-width: 0px; fill: rgb(140, 86, 75); fill-opacity: 1;"/><path class="point" transform="translate(674,360)" d="M5,0A5,5 0 1,1 0,-5A5,5 0 0,1 5,0Z" style="opacity: 1; stroke-width: 0px; fill: rgb(140, 86, 75); fill-opacity: 1;"/><path class="point" transform="translate(974.17,571.83)" d="M5,0A5,5 0 1,1 0,-5A5,5 0 0,1 5,0Z" style="opacity: 1; stroke-width: 0px; fill: rgb(140, 86, 75); fill-opacity: 1;"/><path class="point" transform="translate(1274.35,571.83)" d="M5,0A5,5 0 1,1 0,-5A5,5 0 0,1 5,0Z" style="opacity: 1; stroke-width: 0px; fill: rgb(140, 86, 75); fill-opacity: 1;"/></g><g class="text"/></g></g></g><g class="overplot"/><path class="xlines-above crisp" d="M0,0" style="fill: none;"/><path class="ylines-above crisp" d="M0,0" style="fill: none;"/><g class="overlines-above"/><g class="xaxislayer-above"><g class="xtick"><text text-anchor="middle" x="0" y="833" transform="translate(153.65,0)" style="font-family: 'Open Sans', verdana, arial, sans-serif; font-size: 12px; fill: rgb(68, 68, 68); fill-opacity: 1; white-space: pre;">0</text></g><g class="xtick"><text text-anchor="middle" x="0" y="833" transform="translate(303.74,0)" style="font-family: 'Open Sans', verdana, arial, sans-serif; font-size: 12px; fill: rgb(68, 68, 68); fill-opacity: 1; white-space: pre;">0.5</text></g><g class="xtick"><text text-anchor="middle" x="0" y="833" transform="translate(453.82,0)" style="font-family: 'Open Sans', verdana, arial, sans-serif; font-size: 12px; fill: rgb(68, 68, 68); fill-opacity: 1; white-space: pre;">1</text></g><g class="xtick"><text text-anchor="middle" x="0" y="833" transform="translate(603.91,0)" style="font-family: 'Open Sans', verdana, arial, sans-serif; font-size: 12px; fill: rgb(68, 68, 68); fill-opacity: 1; white-space: pre;">1.5</text></g><g class="xtick"><text text-anchor="middle" x="0" y="833" transform="translate(754,0)" style="font-family: 'Open Sans', verdana, arial, sans-serif; font-size: 12px; fill: rgb(68, 68, 68); fill-opacity: 1; white-space: pre;">2</text></g><g class="xtick"><text text-anchor="middle" x="0" y="833" transform="translate(904.09,0)" style="font-family: 'Open Sans', verdana, arial, sans-serif; font-size: 12px; fill: rgb(68, 68, 68); fill-opacity: 1; white-space: pre;">2.5</text></g><g class="xtick"><text text-anchor="middle" x="0" y="833" transform="translate(1054.17,0)" style="font-family: 'Open Sans', verdana, arial, sans-serif; font-size: 12px; fill: rgb(68, 68, 68); fill-opacity: 1; white-space: pre;">3</text></g><g class="xtick"><text text-anchor="middle" x="0" y="833" transform="translate(1204.26,0)" style="font-family: 'Open Sans', verdana, arial, sans-serif; font-size: 12px; fill: rgb(68, 68, 68); fill-opacity: 1; white-space: pre;">3.5</text></g><g class="xtick"><text text-anchor="middle" x="0" y="833" transform="translate(1354.35,0)" style="font-family: 'Open Sans', verdana, arial, sans-serif; font-size: 12px; fill: rgb(68, 68, 68); fill-opacity: 1; white-space: pre;">4</text></g></g><g class="yaxislayer-above"><g class="ytick"><text text-anchor="end" x="79" y="4.199999999999999" transform="translate(0,777.75)" style="font-family: 'Open Sans', verdana, arial, sans-serif; font-size: 12px; fill: rgb(68, 68, 68); fill-opacity: 1; white-space: pre;">−1.5</text></g><g class="ytick"><text text-anchor="end" x="79" y="4.199999999999999" transform="translate(0,671.83)" style="font-family: 'Open Sans', verdana, arial, sans-serif; font-size: 12px; fill: rgb(68, 68, 68); fill-opacity: 1; white-space: pre;">−1</text></g><g class="ytick"><text text-anchor="end" x="79" y="4.199999999999999" transform="translate(0,565.9200000000001)" style="font-family: 'Open Sans', verdana, arial, sans-serif; font-size: 12px; fill: rgb(68, 68, 68); fill-opacity: 1; white-space: pre;">−0.5</text></g><g class="ytick"><text text-anchor="end" x="79" y="4.199999999999999" transform="translate(0,460)" style="font-family: 'Open Sans', verdana, arial, sans-serif; font-size: 12px; fill: rgb(68, 68, 68); fill-opacity: 1; white-space: pre;">0</text></g><g class="ytick"><text text-anchor="end" x="79" y="4.199999999999999" transform="translate(0,354.08000000000004)" style="font-family: 'Open Sans', verdana, arial, sans-serif; font-size: 12px; fill: rgb(68, 68, 68); fill-opacity: 1; white-space: pre;">0.5</text></g><g class="ytick"><text text-anchor="end" x="79" y="4.199999999999999" transform="translate(0,248.17)" style="font-family: 'Open Sans', verdana, arial, sans-serif; font-size: 12px; fill: rgb(68, 68, 68); fill-opacity: 1; white-space: pre;">1</text></g><g class="ytick"><text text-anchor="end" x="79" y="4.199999999999999" transform="translate(0,142.25)" style="font-family: 'Open Sans', verdana, arial, sans-serif; font-size: 12px; fill: rgb(68, 68, 68); fill-opacity: 1; white-space: pre;">1.5</text></g></g><g class="overaxes-above"/></g></g><g class="polarlayer"/><g class="ternarylayer"/><g class="geolayer"/><g class="funnelarealayer"/><g class="pielayer"/><g class="treemaplayer"/><g class="sunburstlayer"/><g class="glimages"/><defs id="topdefs-6ca254"><g class="clips"/><clipPath id="legend6ca254"><rect width="133" height="124" x="0" y="0"/></clipPath></defs><g class="layer-above"><g class="imagelayer"/><g class="shapelayer"/></g><g class="infolayer"><g class="legend" pointer-events="all" transform="translate(1454.96,100)"><rect class="bg" shape-rendering="crispEdges" style="stroke: rgb(68, 68, 68); stroke-opacity: 1; fill: rgb(255, 255, 255); fill-opacity: 1; stroke-width: 0px;" width="133" height="124" x="0" y="0"/><g class="scrollbox" transform="" clip-path="url('#legend6ca254')"><g class="groups"><g class="traces" transform="translate(0,14.5)" style="opacity: 1;"><text class="legendtext" text-anchor="start" x="40" y="4.680000000000001" style="font-family: 'Open Sans', verdana, arial, sans-serif; font-size: 12px; fill: rgb(68, 68, 68); fill-opacity: 1; white-space: pre;">B-Spline Curve</text><g class="layers" style="opacity: 1;"><g class="legendfill"/><g class="legendlines"><path class="js-line" d="M5,0h30" style="fill: none; stroke: rgb(31, 119, 180); stroke-opacity: 1; stroke-width: 2px;"/></g><g class="legendsymbols"><g class="legendpoints"/></g></g><rect class="legendtoggle" x="0" y="-9.5" width="128" height="19" style="fill: rgb(0, 0, 0); fill-opacity: 0;"/></g><g class="traces" transform="translate(0,33.5)" style="opacity: 1;"><text class="legendtext" text-anchor="start" x="40" y="4.680000000000001" style="font-family: 'Open Sans', verdana, arial, sans-serif; font-size: 12px; fill: rgb(68, 68, 68); fill-opacity: 1; white-space: pre;">Control Polygon</text><g class="layers" style="opacity: 1;"><g class="legendfill"/><g class="legendlines"><path class="js-line" d="M5,0h30" style="fill: none; stroke: rgb(255, 127, 14); stroke-opacity: 1; stroke-dasharray: 9px, 9px; stroke-width: 2px;"/></g><g class="legendsymbols"><g class="legendpoints"/></g></g><rect class="legendtoggle" x="0" y="-9.5" width="128" height="19" style="fill: rgb(0, 0, 0); fill-opacity: 0;"/></g><g class="traces" transform="translate(0,52.5)" style="opacity: 1;"><text class="legendtext" text-anchor="start" x="40" y="4.680000000000001" style="font-family: 'Open Sans', verdana, arial, sans-serif; font-size: 12px; fill: rgb(68, 68, 68); fill-opacity: 1; white-space: pre;">Control Points</text><g class="layers" style="opacity: 1;"><g class="legendfill"/><g class="legendlines"/><g class="legendsymbols"><g class="legendpoints"><path class="scatterpts" transform="translate(20,0)" d="M5,0A5,5 0 1,1 0,-5A5,5 0 0,1 5,0Z" style="opacity: 1; stroke-width: 0px; fill: rgb(44, 160, 44); fill-opacity: 1;"/></g></g></g><rect class="legendtoggle" x="0" y="-9.5" width="128" height="19" style="fill: rgb(0, 0, 0); fill-opacity: 0;"/></g><g class="traces" transform="translate(0,71.5)" style="opacity: 1;"><text class="legendtext" text-anchor="start" x="40" y="4.680000000000001" style="font-family: 'Open Sans', verdana, arial, sans-serif; font-size: 12px; fill: rgb(68, 68, 68); fill-opacity: 1; white-space: pre;">Bezier Curve</text><g class="layers" style="opacity: 1;"><g class="legendfill"/><g class="legendlines"><path class="js-line" d="M5,0h30" style="fill: none; stroke: rgb(214, 39, 40); stroke-opacity: 1; stroke-width: 2px;"/></g><g class="legendsymbols"><g class="legendpoints"/></g></g><rect class="legendtoggle" x="0" y="-9.5" width="128" height="19" style="fill: rgb(0, 0, 0); fill-opacity: 0;"/></g><g class="traces" transform="translate(0,90.5)" style="opacity: 1;"><text class="legendtext" text-anchor="start" x="40" y="4.680000000000001" style="font-family: 'Open Sans', verdana, arial, sans-serif; font-size: 12px; fill: rgb(68, 68, 68); fill-opacity: 1; white-space: pre;">Control Polygon</text><g class="layers" style="opacity: 1;"><g class="legendfill"/><g class="legendlines"><path class="js-line" d="M5,0h30" style="fill: none; stroke: rgb(148, 103, 189); stroke-opacity: 1; stroke-dasharray: 9px, 9px; stroke-width: 2px;"/></g><g class="legendsymbols"><g class="legendpoints"/></g></g><rect class="legendtoggle" x="0" y="-9.5" width="128" height="19" style="fill: rgb(0, 0, 0); fill-opacity: 0;"/></g><g class="traces" transform="translate(0,109.5)" style="opacity: 1;"><text class="legendtext" text-anchor="start" x="40" y="4.680000000000001" style="font-family: 'Open Sans', verdana, arial, sans-serif; font-size: 12px; fill: rgb(68, 68, 68); fill-opacity: 1; white-space: pre;">Control Points</text><g class="layers" style="opacity: 1;"><g class="legendfill"/><g class="legendlines"/><g class="legendsymbols"><g class="legendpoints"><path class="scatterpts" transform="translate(20,0)" d="M5,0A5,5 0 1,1 0,-5A5,5 0 0,1 5,0Z" style="opacity: 1; stroke-width: 0px; fill: rgb(140, 86, 75); fill-opacity: 1;"/></g></g></g><rect class="legendtoggle" x="0" y="-9.5" width="128" height="19" style="fill: rgb(0, 0, 0); fill-opacity: 0;"/></g></g></g><rect class="scrollbar" rx="20" ry="3" width="0" height="0" style="fill: rgb(128, 139, 164); fill-opacity: 1;" x="0" y="0"/></g><g class="g-gtitle"><text class="gtitle" x="800" y="50" text-anchor="middle" dy="0em" style="font-family: 'Open Sans', verdana, arial, sans-serif; font-size: 17px; fill: rgb(68, 68, 68); opacity: 1; font-weight: normal; white-space: pre;">Quintic Spline And Quintic Bezier</text></g><g class="g-xtitle"/><g class="g-ytitle"/></g></svg>