<svg class="main-svg" xmlns="http://www.w3.org/2000/svg" xmlns:xlink="http://www.w3.org/1999/xlink" width="1600" height="900" style="" viewBox="0 0 1600 900"><rect x="0" y="0" width="1600" height="900" style="fill: rgb(255, 255, 255); fill-opacity: 1;"/><defs id="defs-0551e1"><g class="clips"><clipPath id="clip0551e1xyplot" class="plotclip"><rect width="1304" height="720"/></clipPath><clipPath class="axesclip" id="clip0551e1x"><rect x="80" y="0" width="1304" height="900"/></clipPath><clipPath class="axesclip" id="clip0551e1y"><rect x="0" y="100" width="1600" height="720"/></clipPath><clipPath class="axesclip" id="clip0551e1xy"><rect x="80" y="100" width="1304" height="720"/></clipPath></g><g class="gradients"/></defs><g class="bglayer"/><g class="layer-below"><g class="imagelayer"/><g class="shapelayer"/></g><g class="cartesianlayer"><g class="subplot xy"><g class="layer-subplot"><g class="shapelayer"/><g class="imagelayer"/></g><g class="gridlayer"><g class="x"><path class="xgrid crisp" transform="translate(306.26,0)" d="M0,100v720" style="stroke: rgb(238, 238, 238); stroke-opacity: 1; stroke-width: 1px;"/><path class="xgrid crisp" transform="translate(461.08,0)" d="M0,100v720" style="stroke: rgb(238, 238, 238); stroke-opacity: 1; stroke-width: 1px;"/><path class="xgrid crisp" transform="translate(615.89,0)" d="M0,100v720" style="stroke: rgb(238, 238, 238); stroke-opacity: 1; stroke-width: 1px;"/><path class="xgrid crisp" transform="translate(770.7,0)" d="M0,100v720" style="stroke: rgb(238, 238, 238); stroke-opacity: 1; stroke-width: 1px;"/><path class="xgrid crisp" transform="translate(925.52,0)" d="M0,100v720" style="stroke: rgb(238, 238, 238); stroke-opacity: 1; stroke-width: 1px;"/><path class="xgrid crisp" transform="translate(1080.33,0)" d="M0,100v720" style="stroke: rgb(238, 238, 238); stroke-opacity: 1; stroke-width: 1px;"/><path class="xgrid crisp" transform="translate(1235.14,0)" d="M0,100v720" style="stroke: rgb(238, 238, 238); stroke-opacity: 1; stroke-width: 1px;"/></g><g class="y"><path class="ygrid crisp" transform="translate(0,798.65)" d="M80,0h1304" style="stroke: rgb(238, 238, 238); stroke-opacity: 1; stroke-width: 1px;"/><path class="ygrid crisp" transform="translate(0,700.48)" d="M80,0h1304" style="stroke: rgb(238, 238, 238); stroke-opacity: 1; stroke-width: 1px;"/><path class="ygrid crisp" transform="translate(0,602.31)" d="M80,0h1304" style="stroke: rgb(238, 238, 238); stroke-opacity: 1; stroke-width: 1px;"/><path class="ygrid crisp" transform="translate(0,405.97)" d="M80,0h1304" style="stroke: rgb(238, 238, 238); stroke-opacity: 1; stroke-width: 1px;"/><path class="ygrid crisp" transform="translate(0,307.8)" d="M80,0h1304" style="stroke: rgb(238, 238, 238); stroke-opacity: 1; stroke-width: 1px;"/><path class="ygrid crisp" transform="translate(0,209.63)" d="M80,0h1304" style="stroke: rgb(238, 238, 238); stroke-opacity: 1; stroke-width: 1px;"/><path class="ygrid crisp" transform="translate(0,111.46000000000001)" d="M80,0h1304" style="stroke: rgb(238, 238, 238); stroke-opacity: 1; stroke-width: 1px;"/></g></g><g class="zerolinelayer"><path class="xzl zl crisp" transform="translate(151.45,0)" d="M0,100v720" style="stroke: rgb(68, 68, 68); stroke-opacity: 1; stroke-width: 1px;"/><path class="yzl zl crisp" transform="translate(0,504.14)" d="M80,0h1304" style="stroke: rgb(68, 68, 68); stroke-opacity: 1; stroke-width: 1px;"/></g><path class="xlines-below"/><path class="ylines-below"/><g class="overlines-below"/><g class="xaxislayer-below"/><g class="yaxislayer-below"/><g class="overaxes-below"/><g class="plot" transform="translate(80,100)" clip-path="url('#clip0551e1xyplot')"><g class="scatterlayer mlayer"><g class="trace scatter tracec5fc8f" style="stroke-miterlimit: 2; opacity: 1;"><g class="fills"/><g class="errorbars"/><g class="lines"><path class="js-line" d="M71.45,404.14L79.46,389.79L79.48,389.77L87.46,377.31L87.47,377.3L94.1,368.37L94.12,368.35L104.34,357.21L104.35,357.2L112.81,350.45L112.82,350.45L119.54,346.7L119.55,346.7L127.28,344.19L127.29,344.19L134.22,343.56L134.23,343.56L142.56,344.83L142.57,344.84L149.19,347.37L149.19,347.37L149.2,347.38L155.08,350.71L155.08,350.72L161.93,355.81L161.93,355.82L167.96,361.28L167.96,361.28L167.97,361.29L179.47,373.83L179.47,373.84L187.12,383.29L187.12,383.3L199.53,399.35L199.53,399.36L218.61,421.5L218.61,421.5L218.62,421.51L225.94,427.77L225.94,427.77L225.95,427.77L231.18,431.16L231.18,431.16L231.19,431.16L236.56,433.59L236.56,433.59L236.57,433.59L243.44,435.1L243.44,435.1L243.45,435.1L250.66,434.85L250.66,434.85L250.66,434.84L257.3,433.21L257.3,433.21L257.3,433.2L263.27,430.84L263.27,430.84L263.27,430.83L272.41,426.11L272.41,426.1L282.97,419.99L282.97,419.99L282.97,419.98L301.2,411.36L301.2,411.36L301.21,411.36L309.05,409.53L309.05,409.53L309.06,409.53L316.92,409.23L316.92,409.23L316.93,409.23L324.73,410.49L324.73,410.5L330.94,412.5L330.94,412.5L330.95,412.51L338.32,415.75L338.32,415.75L338.32,415.76L349.77,421.47L349.77,421.48L363.21,426.54L363.21,426.54L363.22,426.54L369.97,427.57L369.97,427.57L369.98,427.57L376.77,427.28L376.77,427.28L376.78,427.27L383.21,425.67L383.21,425.67L383.22,425.66L389.69,422.72L389.69,422.72L389.7,422.71L395.5,418.98L395.5,418.97L404.39,411.39L404.39,411.39L404.39,411.38L411.72,403.66L411.72,403.66L411.72,403.65L417.43,396.88L417.43,396.88L417.43,396.87L427.86,383.2L427.86,383.2L427.86,383.19L439.11,367.35L439.11,367.34L463.4,333.56L463.41,333.56L470.31,324.9L470.32,324.9L477.37,316.75L477.38,316.74L489.42,304.7L489.43,304.7L495.99,299.2L496,299.2L503.79,293.68L503.8,293.68L509.56,290.29L509.56,290.29L509.57,290.29L516.11,287.14L516.12,287.14L525.82,283.79L525.82,283.79L525.83,283.79L535.95,281.86L535.96,281.86L545.23,281.38L545.24,281.38L555.38,282.13L555.38,282.14L566.75,284.4L566.76,284.41L574.51,286.72L574.52,286.73L587.35,291.79L587.36,291.8L599.29,297.72L599.3,297.73L610.03,303.93L610.04,303.94L613.3,305.97" style="vector-effect: non-scaling-stroke; fill: none; stroke: rgb(31, 119, 180); stroke-opacity: 1; stroke-width: 2px; opacity: 1;"/></g><g class="points"/><g class="text"/></g><g class="trace scatter traced00f52" style="stroke-miterlimit: 2; opacity: 1;"><g class="fills"/><g class="errorbars"/><g class="lines"><path class="js-line" d="M71.45,404.14L148.86,256.88L226.26,551.39L303.67,305.97L381.08,526.85L458.48,305.97L535.89,256.88L613.3,305.97" style="vector-effect: non-scaling-stroke; fill: none; stroke: rgb(255, 127, 14); stroke-opacity: 1; stroke-width: 2px; opacity: 1; stroke-dasharray: 9px, 9px;"/></g><g class="points"/><g class="text"/></g><g class="trace scatter trace9569f8" style="stroke-miterlimit: 2; opacity: 1;"><g class="fills"/><g class="errorbars"/><g class="lines"/><g class="points"><path class="point" transform="translate(71.45,404.14)" d="M5,0A5,5 0 1,1 0,-5A5,5 0 0,1 5,0Z" style="opacity: 1; stroke-width: 0px; fill: rgb(44, 160, 44); fill-opacity: 1;"/><path class="point" transform="translate(148.86,256.88)" d="M5,0A5,5 0 1,1 0,-5A5,5 0 0,1 5,0Z" style="opacity: 1; stroke-width: 0px; fill: rgb(44, 160, 44); fill-opacity: 1;"/><path class="point" transform="translate(226.26,551.39)" d="M5,0A5,5 0 1,1 0,-5A5,5 0 0,1 5,0Z" style="opacity: 1; stroke-width: 0px; fill: rgb(44, 160, 44); fill-opacity: 1;"/><path class="point" transform="translate(303.67,305.97)" d="M5,0A5,5 0 1,1 0,-5A5,5 0 0,1 5,0Z" style="opacity: 1; stroke-width: 0px; fill: rgb(44, 160, 44); fill-opacity: 1;"/><path class="point" transform="translate(381.08,526.85)" d="M5,0A5,5 0 1,1 0,-5A5,5 0 0,1 5,0Z" style="opacity: 1; stroke-width: 0px; fill: rgb(44, 160, 44); fill-opacity: 1;"/><path class="point" transform="translate(458.48,305.97)" d="M5,0A5,5 0 1,1 0,-5A5,5 0 0,1 5,0Z" style="opacity: 1; stroke-width: 0px; fill: rgb(44, 160, 44); fill-opacity: 1;"/><path class="point" transform="translate(535.89,256.88)" d="M5,0A5,5 0 1,1 0,-5A5,5 0 0,1 5,0Z" style="opacity: 1; stroke-width: 0px; fill: rgb(44, 160, 44); fill-opacity: 1;"/><path class="point" transform="translate(613.3,305.97)" d="M5,0A5,5 0 1,1 0,-5A5,5 0 0,1 5,0Z" style="opacity: 1; stroke-width: 0px; fill: rgb(44, 160, 44); fill-opacity: 1;"/></g><g class="text"/></g><g class="trace scatter trace58b040" style="stroke-miterlimit: 2; opacity: 1;"><g class="fills"/><g class="errorbars"/><g class="lines"><path class="js-line" d="M264.97,36L262.01,74.89L262.01,74.99L259.39,108.64L259.39,108.73L257.08,137.78L257.08,137.87L254.56,168.92L254.56,169.01L252.77,190.59L252.77,190.68L250.87,213.17L250.87,213.25L249.22,232.43L249.22,232.5L247.46,252.56L247.46,252.64L245.92,269.86L245.92,269.93L243.15,300.22L243.14,300.28L241.62,316.51L241.61,316.57L228.65,439.71L228.64,439.76L223,483.77L222.99,483.81L219.85,505.32L219.84,505.35L216.05,528.16L216.04,528.18L213.6,540.84L213.59,540.86L209.09,559.6L209.08,559.61L205.78,569.11L205.77,569.12L202.79,574.19L202.79,574.19L202.78,574.19L200.68,575.55L200.68,575.55L200.67,575.55L198.78,575.06L198.78,575.05L196.93,572.86L196.93,572.86L196.92,572.85L194.72,567.85L194.72,567.84L192.7,560.78L192.7,560.77L190.27,548.75L190.27,548.73L187.54,530.14L187.54,530.13L184.3,500.21L184.3,500.19L182.81,483.36L182.81,483.34L181.66,469.06L181.66,469.04L180.68,456.03L180.68,456.01L174.56,375.37L174.55,375.36L173.2,366.29L173.19,366.29L172.21,364.08L172.02,364.23L172.01,364.23L171.34,366.74L171.34,366.74L171.34,366.75L170.37,379.59L170.37,379.59L170.37,379.6L169.92,397.62L169.92,397.63L170.59,452.7L170.6,452.71L171.35,466.09L171.36,466.1L172.73,475.61L172.73,475.61L172.74,475.61L173.26,476.1L173.59,475.7L173.6,475.7L174.7,471.25L174.7,471.25L174.7,471.24L176.27,459.57L176.27,459.57L176.27,459.56L178.67,435.91L178.67,435.9L180.37,417.48L180.37,417.47L182,399.58L182,399.56L184.16,376.26L184.16,376.24L186.15,355.65L186.15,355.63L190.28,316.56L190.28,316.55L199.84,247.99L199.85,247.98L202.28,235.38L202.29,235.37L206.58,217.67L206.59,217.66L210.17,207.1L210.18,207.09L214.23,199.5L214.23,199.5L214.24,199.49L217.48,196.41L217.48,196.41L217.49,196.4L220.36,195.51L220.36,195.51L220.37,195.51L223.82,196.25L223.82,196.25L223.82,196.26L227.35,198.58L227.35,198.58L227.36,198.59L232.04,203.45L232.04,203.46L238.35,212.18L238.35,212.19L245.02,223.13L245.02,223.14L258.51,248.22L258.51,248.24L265.16,261.38L265.16,261.39L270.8,272.76L270.8,272.78L279.98,291.56L279.98,291.58L302.42,338.12L302.43,338.15L325.43,385.81L325.44,385.84L368.85,474.31L368.86,474.35L375.59,487.83L375.6,487.87L428.77,592.55L428.8,592.59L437.85,610.08L437.88,610.12L446.53,626.74L446.55,626.78L458.48,649.56" style="vector-effect: non-scaling-stroke; fill: none; stroke: rgb(214, 39, 40); stroke-opacity: 1; stroke-width: 2px; opacity: 1;"/></g><g class="points"/><g class="text"/></g><g class="trace scatter traceb37498" style="stroke-miterlimit: 2; opacity: 1;"><g class="fills"/><g class="errorbars"/><g class="lines"><path class="js-line" d="M613.3,305.97L622.41,310.71L622.41,310.71L622.42,310.71L630.44,313.34L630.44,313.34L630.45,313.34L638.78,314.79L638.78,314.79L638.79,314.79L647.38,315.18L647.38,315.18L647.39,315.18L665.7,313.35L665.7,313.35L665.71,313.34L677.23,311.06L677.23,311.05L696.43,306.46L696.43,306.45L715.86,301.81L715.86,301.8L749.71,295.65L749.71,295.65L749.72,295.65L770.27,293.66L770.27,293.66L770.28,293.66L789.97,293.09L789.97,293.09L789.98,293.09L810.19,293.84L810.19,293.85L831.55,296.01L831.55,296.01L831.56,296.02L855.56,299.96L855.56,299.97L883.6,306.32L883.6,306.33L895.01,309.37L895.01,309.37L895.02,309.38L919.76,316.74L919.76,316.74L919.77,316.75L933.12,321.08L933.12,321.08L933.13,321.09L974.51,335.66L974.52,335.67L995.36,343.4L995.36,343.4L995.37,343.41L1014.29,350.5L1014.29,350.5L1014.3,350.51L1034.24,357.94L1034.24,357.94L1034.25,357.95L1061.03,367.66L1061.03,367.66L1061.04,367.67L1117.28,385.86L1117.29,385.86L1130.67,389.53L1130.67,389.53L1130.68,389.53L1156.43,395.63L1156.44,395.63L1167.63,397.84L1167.64,397.84L1186.89,400.93L1186.9,400.93L1211.02,403.4L1211.02,403.4L1211.03,403.4L1232.55,404.14" style="vector-effect: non-scaling-stroke; fill: none; stroke: rgb(148, 103, 189); stroke-opacity: 1; stroke-width: 2px; opacity: 1;"/></g><g class="points"/><g class="text"/></g><g class="trace scatter traced52002" style="stroke-miterlimit: 2; opacity: 1;"><g class="fills"/><g class="errorbars"/><g class="lines"><path class="js-line" d="M613.3,305.97L690.7,355.05L768.11,207.8L1077.74,404.14L1232.55,404.14" style="vector-effect: non-scaling-stroke; fill: none; stroke: rgb(140, 86, 75); stroke-opacity: 1; stroke-width: 2px; opacity: 1; stroke-dasharray: 9px, 9px;"/></g><g class="points"/><g class="text"/></g><g class="trace scatter traceb27968" style="stroke-miterlimit: 2; opacity: 1;"><g class="fills"/><g class="errorbars"/><g class="lines"/><g class="points"><path class="point" transform="translate(613.3,305.97)" d="M5,0A5,5 0 1,1 0,-5A5,5 0 0,1 5,0Z" style="opacity: 1; stroke-width: 0px; fill: rgb(227, 119, 194); fill-opacity: 1;"/><path class="point" transform="translate(690.7,355.05)" d="M5,0A5,5 0 1,1 0,-5A5,5 0 0,1 5,0Z" style="opacity: 1; stroke-width: 0px; fill: rgb(227, 119, 194); fill-opacity: 1;"/><path class="point" transform="translate(768.11,207.8)" d="M5,0A5,5 0 1,1 0,-5A5,5 0 0,1 5,0Z" style="opacity: 1; stroke-width: 0px; fill: rgb(227, 119, 194); fill-opacity: 1;"/><path class="point" transform="translate(922.92,305.97)" d="M5,0A5,5 0 1,1 0,-5A5,5 0 0,1 5,0Z" style="opacity: 1; stroke-width: 0px; fill: rgb(227, 119, 194); fill-opacity: 1;"/><path class="point" transform="translate(1077.74,404.14)" d="M5,0A5,5 0 1,1 0,-5A5,5 0 0,1 5,0Z" style="opacity: 1; stroke-width: 0px; fill: rgb(227, 119, 194); fill-opacity: 1;"/><path class="point" transform="translate(1232.55,404.14)" d="M5,0A5,5 0 1,1 0,-5A5,5 0 0,1 5,0Z" style="opacity: 1; stroke-width: 0px; fill: rgb(227, 119, 194); fill-opacity: 1;"/></g><g class="text"/></g><g class="trace scatter trace7c2492" style="stroke-miterlimit: 2; opacity: 1;"><g class="fills"/><g class="errorbars"/><g class="lines"><path class="js-line" d="M458.48,649.56L459.23,582.37L459.24,582.33L459.99,556.32L460,556.28L460.75,537.19L460.76,537.16L461.51,521.61L461.52,521.58L462.27,508.31L462.28,508.28L465.53,465.58L465.54,465.55L467.67,444.75L467.68,444.72L473.86,400.72L473.87,400.7L476.52,386.46L476.53,386.44L481.06,366.28L481.07,366.26L488.26,342.05L488.27,342.03L493.47,328.78L493.48,328.77L499.21,317.27L499.22,317.27L505.77,307.3L505.78,307.29L511.68,300.66L511.69,300.66L517.42,295.99L517.43,295.99L522.51,293.11L522.52,293.11L528.16,291.12L528.16,291.12L528.17,291.12L534.4,290.23L534.4,290.23L534.41,290.23L540.74,290.55L540.74,290.56L547.98,292.27L547.98,292.28L553.93,294.64L553.94,294.65L561.17,298.56L561.17,298.56L561.18,298.57L570.87,305.4L570.88,305.41L580.37,313.65L580.37,313.65L580.38,313.66L590.6,324.04L590.61,324.05L604.34,340.12L604.34,340.13L615.1,354.2L615.1,354.21L628.48,373.28L628.48,373.29L635.44,383.81L635.44,383.82L645.3,399.37L645.3,399.38L652.19,410.64L652.19,410.65L669.19,439.69L669.19,439.7L678.6,456.41L678.6,456.42L686.23,470.24L686.23,470.25L701.01,497.61L701.01,497.62L712.23,518.75L712.23,518.76L722.37,538.01L722.37,538.02L732.35,556.98L732.35,556.99L743.16,577.41L743.16,577.42L757.96,604.82L757.96,604.83L766.79,620.6L766.79,620.61L791.59,660.31L791.6,660.31L799.63,670.61L799.64,670.61L806.5,677.69L806.5,677.69L806.51,677.69L811.09,681.21L811.09,681.21L811.1,681.21L815.57,683.4L815.57,683.4L815.58,683.4L819.68,683.98L819.68,683.98L819.69,683.98L823.31,683L823.31,683L823.32,682.99L826.52,680.56L826.52,680.56L826.53,680.55L829.51,676.51L829.51,676.51L829.51,676.5L832.35,670.47L832.35,670.47L832.35,670.46L834.79,662.87L834.79,662.87L834.79,662.86L836.67,654.85L836.67,654.84L839.58,636.52L839.58,636.51L841.7,614.99L841.7,614.98L844.07,568.87L844.07,568.85L844.59,549.78L844.59,549.76L845.34,492.37L845.35,492.36L845.52,404.14" style="vector-effect: non-scaling-stroke; fill: none; stroke: rgb(127, 127, 127); stroke-opacity: 1; stroke-width: 2px; opacity: 1;"/></g><g class="points"/><g class="text"/></g></g></g><g class="overplot"/><path class="xlines-above crisp" d="M0,0" style="fill: none;"/><path class="ylines-above crisp" d="M0,0" style="fill: none;"/><g class="overlines-above"/><g class="xaxislayer-above"><g class="xtick"><text text-anchor="middle" x="0" y="833" transform="translate(151.45,0)" style="font-family: 'Open Sans', verdana, arial, sans-serif; font-size: 12px; fill: rgb(68, 68, 68); fill-opacity: 1; white-space: pre;">0</text></g><g class="xtick"><text text-anchor="middle" x="0" y="833" transform="translate(306.26,0)" style="font-family: 'Open Sans', verdana, arial, sans-serif; font-size: 12px; fill: rgb(68, 68, 68); fill-opacity: 1; white-space: pre;">1</text></g><g class="xtick"><text text-anchor="middle" x="0" y="833" transform="translate(461.08,0)" style="font-family: 'Open Sans', verdana, arial, sans-serif; font-size: 12px; fill: rgb(68, 68, 68); fill-opacity: 1; white-space: pre;">2</text></g><g class="xtick"><text text-anchor="middle" x="0" y="833" transform="translate(615.89,0)" style="font-family: 'Open Sans', verdana, arial, sans-serif; font-size: 12px; fill: rgb(68, 68, 68); fill-opacity: 1; white-space: pre;">3</text></g><g class="xtick"><text text-anchor="middle" x="0" y="833" transform="translate(770.7,0)" style="font-family: 'Open Sans', verdana, arial, sans-serif; font-size: 12px; fill: rgb(68, 68, 68); fill-opacity: 1; white-space: pre;">4</text></g><g class="xtick"><text text-anchor="middle" x="0" y="833" transform="translate(925.52,0)" style="font-family: 'Open Sans', verdana, arial, sans-serif; font-size: 12px; fill: rgb(68, 68, 68); fill-opacity: 1; white-space: pre;">5</text></g><g class="xtick"><text text-anchor="middle" x="0" y="833" transform="translate(1080.33,0)" style="font-family: 'Open Sans', verdana, arial, sans-serif; font-size: 12px; fill: rgb(68, 68, 68); fill-opacity: 1; white-space: pre;">6</text></g><g class="xtick"><text text-anchor="middle" x="0" y="833" transform="translate(1235.14,0)" style="font-family: 'Open Sans', verdana, arial, sans-serif; font-size: 12px; fill: rgb(68, 68, 68); fill-opacity: 1; white-space: pre;">7</text></g></g><g class="yaxislayer-above"><g class="ytick"><text text-anchor="end" x="79" y="4.199999999999999" transform="translate(0,798.65)" style="font-family: 'Open Sans', verdana, arial, sans-serif; font-size: 12px; fill: rgb(68, 68, 68); fill-opacity: 1; white-space: pre;">−3</text></g><g class="ytick"><text text-anchor="end" x="79" y="4.199999999999999" transform="translate(0,700.48)" style="font-family: 'Open Sans', verdana, arial, sans-serif; font-size: 12px; fill: rgb(68, 68, 68); fill-opacity: 1; white-space: pre;">−2</text></g><g class="ytick"><text text-anchor="end" x="79" y="4.199999999999999" transform="translate(0,602.31)" style="font-family: 'Open Sans', verdana, arial, sans-serif; font-size: 12px; fill: rgb(68, 68, 68); fill-opacity: 1; white-space: pre;">−1</text></g><g class="ytick"><text text-anchor="end" x="79" y="4.199999999999999" transform="translate(0,504.14)" style="font-family: 'Open Sans', verdana, arial, sans-serif; font-size: 12px; fill: rgb(68, 68, 68); fill-opacity: 1; white-space: pre;">0</text></g><g class="ytick"><text text-anchor="end" x="79" y="4.199999999999999" transform="translate(0,405.97)" style="font-family: 'Open Sans', verdana, arial, sans-serif; font-size: 12px; fill: rgb(68, 68, 68); fill-opacity: 1; white-space: pre;">1</text></g><g class="ytick"><text text-anchor="end" x="79" y="4.199999999999999" transform="translate(0,307.8)" style="font-family: 'Open Sans', verdana, arial, sans-serif; font-size: 12px; fill: rgb(68, 68, 68); fill-opacity: 1; white-space: pre;">2</text></g><g class="ytick"><text text-anchor="end" x="79" y="4.199999999999999" transform="translate(0,209.63)" style="font-family: 'Open Sans', verdana, arial, sans-serif; font-size: 12px; fill: rgb(68, 68, 68); fill-opacity: 1; white-space: pre;">3</text></g><g class="ytick"><text text-anchor="end" x="79" y="4.199999999999999" transform="translate(0,111.46000000000001)" style="font-family: 'Open Sans', verdana, arial, sans-serif; font-size: 12px; fill: rgb(68, 68, 68); fill-opacity: 1; white-space: pre;">4</text></g></g><g class="overaxes-above"/></g></g><g class="polarlayer"/><g class="ternarylayer"/><g class="geolayer"/><g class="funnelarealayer"/><g class="pielayer"/><g class="treemaplayer"/><g class="sunburstlayer"/><g class="glimages"/><defs id="topdefs-0551e1"><g class="clips"/><clipPath id="legend0551e1"><rect width="178" height="162" x="0" y="0"/></clipPath></defs><g class="layer-above"><g class="imagelayer"/><g class="shapelayer"/></g><g class="infolayer"><g class="legend" pointer-events="all" transform="translate(1410.08,100)"><rect class="bg" shape-rendering="crispEdges" style="stroke: rgb(68, 68, 68); stroke-opacity: 1; fill: rgb(255, 255, 255); fill-opacity: 1; stroke-width: 0px;" width="178" height="162" x="0" y="0"/><g class="scrollbox" transform="" clip-path="url('#legend0551e1')"><g class="groups"><g class="traces" transform="translate(0,14.5)" style="opacity: 1;"><text class="legendtext" text-anchor="start" x="40" y="4.680000000000001" style="font-family: 'Open Sans', verdana, arial, sans-serif; font-size: 12px; fill: rgb(68, 68, 68); fill-opacity: 1; white-space: pre;">B-Spline Curve</text><g class="layers" style="opacity: 1;"><g class="legendfill"/><g class="legendlines"><path class="js-line" d="M5,0h30" style="fill: none; stroke: rgb(31, 119, 180); stroke-opacity: 1; stroke-width: 2px;"/></g><g class="legendsymbols"><g class="legendpoints"/></g></g><rect class="legendtoggle" x="0" y="-9.5" width="173" height="19" style="fill: rgb(0, 0, 0); fill-opacity: 0;"/></g><g class="traces" transform="translate(0,33.5)" style="opacity: 1;"><text class="legendtext" text-anchor="start" x="40" y="4.680000000000001" style="font-family: 'Open Sans', verdana, arial, sans-serif; font-size: 12px; fill: rgb(68, 68, 68); fill-opacity: 1; white-space: pre;">Control Polygon</text><g class="layers" style="opacity: 1;"><g class="legendfill"/><g class="legendlines"><path class="js-line" d="M5,0h30" style="fill: none; stroke: rgb(255, 127, 14); stroke-opacity: 1; stroke-dasharray: 9px, 9px; stroke-width: 2px;"/></g><g class="legendsymbols"><g class="legendpoints"/></g></g><rect class="legendtoggle" x="0" y="-9.5" width="173" height="19" style="fill: rgb(0, 0, 0); fill-opacity: 0;"/></g><g class="traces" transform="translate(0,52.5)" style="opacity: 1;"><text class="legendtext" text-anchor="start" x="40" y="4.680000000000001" style="font-family: 'Open Sans', verdana, arial, sans-serif; font-size: 12px; fill: rgb(68, 68, 68); fill-opacity: 1; white-space: pre;">Control Points</text><g class="layers" style="opacity: 1;"><g class="legendfill"/><g class="legendlines"/><g class="legendsymbols"><g class="legendpoints"><path class="scatterpts" transform="translate(20,0)" d="M5,0A5,5 0 1,1 0,-5A5,5 0 0,1 5,0Z" style="opacity: 1; stroke-width: 0px; fill: rgb(44, 160, 44); fill-opacity: 1;"/></g></g></g><rect class="legendtoggle" x="0" y="-9.5" width="173" height="19" style="fill: rgb(0, 0, 0); fill-opacity: 0;"/></g><g class="traces" transform="translate(0,71.5)" style="opacity: 1;"><text class="legendtext" text-anchor="start" x="40" y="4.680000000000001" style="font-family: 'Open Sans', verdana, arial, sans-serif; font-size: 12px; fill: rgb(68, 68, 68); fill-opacity: 1; white-space: pre;">B-Spline First Derivative</text><g class="layers" style="opacity: 1;"><g class="legendfill"/><g class="legendlines"><path class="js-line" d="M5,0h30" style="fill: none; stroke: rgb(214, 39, 40); stroke-opacity: 1; stroke-width: 2px;"/></g><g class="legendsymbols"><g class="legendpoints"/></g></g><rect class="legendtoggle" x="0" y="-9.5" width="173" height="19" style="fill: rgb(0, 0, 0); fill-opacity: 0;"/></g><g class="traces" transform="translate(0,90.5)" style="opacity: 1;"><text class="legendtext" text-anchor="start" x="40" y="4.680000000000001" style="font-family: 'Open Sans', verdana, arial, sans-serif; font-size: 12px; fill: rgb(68, 68, 68); fill-opacity: 1; white-space: pre;">Bezier Curve</text><g class="layers" style="opacity: 1;"><g class="legendfill"/><g class="legendlines"><path class="js-line" d="M5,0h30" style="fill: none; stroke: rgb(148, 103, 189); stroke-opacity: 1; stroke-width: 2px;"/></g><g class="legendsymbols"><g class="legendpoints"/></g></g><rect class="legendtoggle" x="0" y="-9.5" width="173" height="19" style="fill: rgb(0, 0, 0); fill-opacity: 0;"/></g><g class="traces" transform="translate(0,109.5)" style="opacity: 1;"><text class="legendtext" text-anchor="start" x="40" y="4.680000000000001" style="font-family: 'Open Sans', verdana, arial, sans-serif; font-size: 12px; fill: rgb(68, 68, 68); fill-opacity: 1; white-space: pre;">Control Polygon</text><g class="layers" style="opacity: 1;"><g class="legendfill"/><g class="legendlines"><path class="js-line" d="M5,0h30" style="fill: none; stroke: rgb(140, 86, 75); stroke-opacity: 1; stroke-dasharray: 9px, 9px; stroke-width: 2px;"/></g><g class="legendsymbols"><g class="legendpoints"/></g></g><rect class="legendtoggle" x="0" y="-9.5" width="173" height="19" style="fill: rgb(0, 0, 0); fill-opacity: 0;"/></g><g class="traces" transform="translate(0,128.5)" style="opacity: 1;"><text class="legendtext" text-anchor="start" x="40" y="4.680000000000001" style="font-family: 'Open Sans', verdana, arial, sans-serif; font-size: 12px; fill: rgb(68, 68, 68); fill-opacity: 1; white-space: pre;">Control Points</text><g class="layers" style="opacity: 1;"><g class="legendfill"/><g class="legendlines"/><g class="legendsymbols"><g class="legendpoints"><path class="scatterpts" transform="translate(20,0)" d="M5,0A5,5 0 1,1 0,-5A5,5 0 0,1 5,0Z" style="opacity: 1; stroke-width: 0px; fill: rgb(227, 119, 194); fill-opacity: 1;"/></g></g></g><rect class="legendtoggle" x="0" y="-9.5" width="173" height="19" style="fill: rgb(0, 0, 0); fill-opacity: 0;"/></g><g class="traces" transform="translate(0,147.5)" style="opacity: 1;"><text class="legendtext" text-anchor="start" x="40" y="4.680000000000001" style="font-family: 'Open Sans', verdana, arial, sans-serif; font-size: 12px; fill: rgb(68, 68, 68); fill-opacity: 1; white-space: pre;">Bezier First Derivative</text><g class="layers" style="opacity: 1;"><g class="legendfill"/><g class="legendlines"><path class="js-line" d="M5,0h30" style="fill: none; stroke: rgb(127, 127, 127); stroke-opacity: 1; stroke-width: 2px;"/></g><g class="legendsymbols"><g class="legendpoints"/></g></g><rect class="legendtoggle" x="0" y="-9.5" width="173" height="19" style="fill: rgb(0, 0, 0); fill-opacity: 0;"/></g></g></g><rect class="scrollbar" rx="20" ry="3" width="0" height="0" style="fill: rgb(128, 139, 164); fill-opacity: 1;" x="0" y="0"/></g><g class="g-gtitle"><text class="gtitle" x="800" y="50" text-anchor="middle" dy="0em" style="font-family: 'Open Sans', verdana, arial, sans-serif; font-size: 17px; fill: rgb(68, 68, 68); opacity: 1; font-weight: normal; white-space: pre;">C1 continuity</text></g><g class="g-xtitle"/><g class="g-ytitle"/></g></svg>