<svg class="main-svg" xmlns="http://www.w3.org/2000/svg" xmlns:xlink="http://www.w3.org/1999/xlink" width="800" height="600" style="" viewBox="0 0 800 600"><rect x="0" y="0" width="800" height="600" style="fill: rgb(255, 255, 255); fill-opacity: 1;"/><defs id="defs-aa6f60"><g class="clips"><clipPath id="clipaa6f60xyplot" class="plotclip"><rect width="522" height="420"/></clipPath><clipPath class="axesclip" id="clipaa6f60x"><rect x="80" y="0" width="522" height="600"/></clipPath><clipPath class="axesclip" id="clipaa6f60y"><rect x="0" y="100" width="800" height="420"/></clipPath><clipPath class="axesclip" id="clipaa6f60xy"><rect x="80" y="100" width="522" height="420"/></clipPath></g><g class="gradients"/></defs><g class="bglayer"/><g class="layer-below"><g class="imagelayer"/><g class="shapelayer"/></g><g class="cartesianlayer"><g class="subplot xy"><g class="layer-subplot"><g class="shapelayer"/><g class="imagelayer"/></g><g class="gridlayer"><g class="x"><path class="xgrid crisp" transform="translate(190.69,0)" d="M0,100v420" style="stroke: rgb(238, 238, 238); stroke-opacity: 1; stroke-width: 1px;"/><path class="xgrid crisp" transform="translate(269.03999999999996,0)" d="M0,100v420" style="stroke: rgb(238, 238, 238); stroke-opacity: 1; stroke-width: 1px;"/><path class="xgrid crisp" transform="translate(347.38,0)" d="M0,100v420" style="stroke: rgb(238, 238, 238); stroke-opacity: 1; stroke-width: 1px;"/><path class="xgrid crisp" transform="translate(425.73,0)" d="M0,100v420" style="stroke: rgb(238, 238, 238); stroke-opacity: 1; stroke-width: 1px;"/><path class="xgrid crisp" transform="translate(504.07,0)" d="M0,100v420" style="stroke: rgb(238, 238, 238); stroke-opacity: 1; stroke-width: 1px;"/><path class="xgrid crisp" transform="translate(582.4100000000001,0)" d="M0,100v420" style="stroke: rgb(238, 238, 238); stroke-opacity: 1; stroke-width: 1px;"/></g><g class="y"><path class="ygrid crisp" transform="translate(0,499)" d="M80,0h522" style="stroke: rgb(238, 238, 238); stroke-opacity: 1; stroke-width: 1px;"/><path class="ygrid crisp" transform="translate(0,444.85)" d="M80,0h522" style="stroke: rgb(238, 238, 238); stroke-opacity: 1; stroke-width: 1px;"/><path class="ygrid crisp" transform="translate(0,390.71)" d="M80,0h522" style="stroke: rgb(238, 238, 238); stroke-opacity: 1; stroke-width: 1px;"/><path class="ygrid crisp" transform="translate(0,336.56)" d="M80,0h522" style="stroke: rgb(238, 238, 238); stroke-opacity: 1; stroke-width: 1px;"/><path class="ygrid crisp" transform="translate(0,282.41999999999996)" d="M80,0h522" style="stroke: rgb(238, 238, 238); stroke-opacity: 1; stroke-width: 1px;"/><path class="ygrid crisp" transform="translate(0,174.13)" d="M80,0h522" style="stroke: rgb(238, 238, 238); stroke-opacity: 1; stroke-width: 1px;"/><path class="ygrid crisp" transform="translate(0,119.98)" d="M80,0h522" style="stroke: rgb(238, 238, 238); stroke-opacity: 1; stroke-width: 1px;"/></g></g><g class="zerolinelayer"><path class="xzl zl crisp" transform="translate(112.35,0)" d="M0,100v420" style="stroke: rgb(68, 68, 68); stroke-opacity: 1; stroke-width: 1px;"/><path class="yzl zl crisp" transform="translate(0,228.27)" d="M80,0h522" style="stroke: rgb(68, 68, 68); stroke-opacity: 1; stroke-width: 1px;"/></g><path class="xlines-below"/><path class="ylines-below"/><g class="overlines-below"/><g class="xaxislayer-below"/><g class="yaxislayer-below"/><g class="overaxes-below"/><g class="plot" transform="translate(80,100)" clip-path="url('#clipaa6f60xyplot')"><g class="scatterlayer mlayer"><g class="trace scatter tracee47c67" style="stroke-miterlimit: 2; opacity: 1;"><g class="fills"/><g class="errorbars"/><g class="lines"><path class="js-line" d="M32.35,128.27L38.14,118.32L38.15,118.32L41.94,114.15L41.94,114.15L41.95,114.15L45.76,111.93L45.76,111.93L45.77,111.93L49.03,111.63L49.03,111.63L49.04,111.63L52.42,112.83L52.42,112.84L56.18,115.84L56.18,115.84L56.18,115.85L61.14,121.86L61.14,121.86L61.14,121.87L71.88,135.13L71.88,135.13L71.89,135.13L75.24,136.72L75.24,136.72L75.25,136.72L78.85,136.46L78.85,136.46L78.86,136.46L83.55,134.12L83.55,134.12L83.55,134.11L91.54,130.03L91.54,130.03L91.55,130.03L95.27,130.04L95.27,130.04L95.27,130.05L98.58,131.47L98.58,131.47L98.58,131.48L109.26,137.87L109.26,137.87L109.27,137.87L112.22,137.51L112.22,137.51L112.22,137.5L114.94,135.81L114.94,135.8L118.15,132.15L118.15,132.15L118.15,132.14L122.02,125.89L122.02,125.89L122.02,125.88L127.8,115.07L127.8,115.07L127.8,115.06L137.25,100.62L137.25,100.62L137.26,100.62L141.14,97.13L141.14,97.13L141.15,97.13L145.78,94.82L145.78,94.82L145.79,94.82L150.22,94.13L150.22,94.13L150.23,94.13L155.08,94.55L155.08,94.55L155.08,94.56L161.69,96.19L161.69,96.2L180.17,101.89L180.17,101.89L180.17,101.9L186.98,105.62L186.98,105.62L186.98,105.63L192.59,109.95L192.59,109.96L198.91,116.19L198.91,116.19L198.91,116.2L204.69,123.04L204.69,123.04L204.69,123.05L208.62,128.27" style="vector-effect: non-scaling-stroke; fill: none; stroke: rgb(31, 119, 180); stroke-opacity: 1; stroke-width: 2px; opacity: 1;"/></g><g class="points"/><g class="text"/></g><g class="trace scatter tracec84b4c" style="stroke-miterlimit: 2; opacity: 1;"><g class="fills"/><g class="errorbars"/><g class="lines"><path class="js-line" d="M32.35,128.27L51.94,87.66L71.52,168.88L91.11,101.2L110.69,162.11L130.28,101.2L149.87,87.66L169.45,101.2L189.04,101.2L208.62,128.27" style="vector-effect: non-scaling-stroke; fill: none; stroke: rgb(255, 127, 14); stroke-opacity: 1; stroke-width: 2px; opacity: 1; stroke-dasharray: 9px, 9px;"/></g><g class="points"/><g class="text"/></g><g class="trace scatter trace8df307" style="stroke-miterlimit: 2; opacity: 1;"><g class="fills"/><g class="errorbars"/><g class="lines"/><g class="points"><path class="point" transform="translate(32.35,128.27)" d="M5,0A5,5 0 1,1 0,-5A5,5 0 0,1 5,0Z" style="opacity: 1; stroke-width: 0px; fill: rgb(44, 160, 44); fill-opacity: 1;"/><path class="point" transform="translate(51.94,87.66)" d="M5,0A5,5 0 1,1 0,-5A5,5 0 0,1 5,0Z" style="opacity: 1; stroke-width: 0px; fill: rgb(44, 160, 44); fill-opacity: 1;"/><path class="point" transform="translate(71.52,168.88)" d="M5,0A5,5 0 1,1 0,-5A5,5 0 0,1 5,0Z" style="opacity: 1; stroke-width: 0px; fill: rgb(44, 160, 44); fill-opacity: 1;"/><path class="point" transform="translate(91.11,101.2)" d="M5,0A5,5 0 1,1 0,-5A5,5 0 0,1 5,0Z" style="opacity: 1; stroke-width: 0px; fill: rgb(44, 160, 44); fill-opacity: 1;"/><path class="point" transform="translate(110.69,162.11)" d="M5,0A5,5 0 1,1 0,-5A5,5 0 0,1 5,0Z" style="opacity: 1; stroke-width: 0px; fill: rgb(44, 160, 44); fill-opacity: 1;"/><path class="point" transform="translate(130.28,101.2)" d="M5,0A5,5 0 1,1 0,-5A5,5 0 0,1 5,0Z" style="opacity: 1; stroke-width: 0px; fill: rgb(44, 160, 44); fill-opacity: 1;"/><path class="point" transform="translate(149.87,87.66)" d="M5,0A5,5 0 1,1 0,-5A5,5 0 0,1 5,0Z" style="opacity: 1; stroke-width: 0px; fill: rgb(44, 160, 44); fill-opacity: 1;"/><path class="point" transform="translate(169.45,101.2)" d="M5,0A5,5 0 1,1 0,-5A5,5 0 0,1 5,0Z" style="opacity: 1; stroke-width: 0px; fill: rgb(44, 160, 44); fill-opacity: 1;"/><path class="point" transform="translate(189.04,101.2)" d="M5,0A5,5 0 1,1 0,-5A5,5 0 0,1 5,0Z" style="opacity: 1; stroke-width: 0px; fill: rgb(44, 160, 44); fill-opacity: 1;"/><path class="point" transform="translate(208.62,128.27)" d="M5,0A5,5 0 1,1 0,-5A5,5 0 0,1 5,0Z" style="opacity: 1; stroke-width: 0px; fill: rgb(44, 160, 44); fill-opacity: 1;"/></g><g class="text"/></g><g class="trace scatter tracea2f208" style="stroke-miterlimit: 2; opacity: 1;"><g class="fills"/><g class="errorbars"/><g class="lines"><path class="js-line" d="M81.32,26.75L80.2,42.65L80.2,42.69L76.18,95.08L76.17,95.11L73.96,120.02L73.95,120.04L71.84,140.56L71.83,140.58L70.2,153.84L70.19,153.85L67.2,170.74L67.19,170.74L65.62,174.79L65.61,174.79L64.5,175.11L64.47,175.08L64.46,175.07L63.39,172.95L63.39,172.95L63.39,172.94L62.06,166.59L62.06,166.59L62.06,166.58L59.66,143.14L59.66,143.13L58.63,129.74L58.63,129.73L56.83,113.91L56.83,113.91L56.82,113.91L56.19,112.76L55.9,113.09L55.89,113.09L55.09,116.85L55.09,116.85L55.09,116.86L53.67,133.11L53.67,133.11L53.67,133.12L52.64,144.9L52.34,141.84L52.34,141.83L52.89,93.09L52.89,93.09L52.9,93.09L53.63,89.97L53.84,90.2L53.84,90.21L54.74,93.66L54.74,93.66L54.74,93.67L57.4,110.77L57.4,110.77L57.4,110.78L62.1,131.73L62.11,131.73L64.38,136.19L64.38,136.19L64.39,136.19L66.96,138.4L66.96,138.4L66.97,138.4L69.55,138.69L69.55,138.69L69.56,138.69L72.77,139.44L72.77,139.44L72.78,139.45L76.05,141.91L76.05,141.91L76.05,141.92L79.73,146.3L79.73,146.3L79.73,146.31L84.44,153.65L84.44,153.66L90.2,164.44L90.2,164.45L94.71,173.85L94.71,173.86L101.24,188.59L101.24,188.6L107.86,204.55L107.86,204.56L125.97,251.8L125.97,251.82L130.28,263.64" style="vector-effect: non-scaling-stroke; fill: none; stroke: rgb(214, 39, 40); stroke-opacity: 1; stroke-width: 2px; opacity: 1;"/></g><g class="points"/><g class="text"/></g><g class="trace scatter trace13c6a1" style="stroke-miterlimit: 2; opacity: 1;"><g class="fills"/><g class="errorbars"/><g class="lines"><path class="js-line" d="M208.62,128.27L211.76,131.49L211.76,131.49L211.77,131.49L215.23,132.99L215.23,132.99L215.24,132.99L218.93,132.97L218.93,132.97L218.94,132.97L224,131.21L224,131.2L229.16,128.18L229.16,128.18L229.16,128.17L236.86,122.56L236.86,122.56L236.86,122.55L250.06,112.51L250.06,112.51L250.06,112.5L264.87,103.94L264.87,103.94L264.88,103.94L270.9,102.17L270.9,102.17L270.91,102.17L276.24,101.86L276.24,101.86L276.24,101.87L281.33,102.95L281.33,102.95L281.33,102.96L286.07,105.32L286.07,105.32L286.07,105.33L291.51,109.54L291.51,109.54L291.51,109.55L297.91,115.85L297.91,115.85L297.91,115.86L322.93,140.31L322.93,140.31L322.94,140.31L338.05,151.95L338.05,151.95L338.06,151.95L349.23,159.4L349.23,159.4L349.24,159.4L365.31,168.88L365.31,168.88" style="vector-effect: non-scaling-stroke; fill: none; stroke: rgb(148, 103, 189); stroke-opacity: 1; stroke-width: 2px; opacity: 1;"/></g><g class="points"/><g class="text"/></g><g class="trace scatter trace421d73" style="stroke-miterlimit: 2; opacity: 1;"><g class="fills"/><g class="errorbars"/><g class="lines"><path class="js-line" d="M208.62,128.27L228.21,155.34L257.59,74.13L306.55,87.66L267.38,114.74L365.31,168.88" style="vector-effect: non-scaling-stroke; fill: none; stroke: rgb(140, 86, 75); stroke-opacity: 1; stroke-width: 2px; opacity: 1; stroke-dasharray: 9px, 9px;"/></g><g class="points"/><g class="text"/></g><g class="trace scatter trace440137" style="stroke-miterlimit: 2; opacity: 1;"><g class="fills"/><g class="errorbars"/><g class="lines"/><g class="points"><path class="point" transform="translate(208.62,128.27)" d="M5,0A5,5 0 1,1 0,-5A5,5 0 0,1 5,0Z" style="opacity: 1; stroke-width: 0px; fill: rgb(227, 119, 194); fill-opacity: 1;"/><path class="point" transform="translate(228.21,155.34)" d="M5,0A5,5 0 1,1 0,-5A5,5 0 0,1 5,0Z" style="opacity: 1; stroke-width: 0px; fill: rgb(227, 119, 194); fill-opacity: 1;"/><path class="point" transform="translate(257.59,74.13)" d="M5,0A5,5 0 1,1 0,-5A5,5 0 0,1 5,0Z" style="opacity: 1; stroke-width: 0px; fill: rgb(227, 119, 194); fill-opacity: 1;"/><path class="point" transform="translate(306.55,87.66)" d="M5,0A5,5 0 1,1 0,-5A5,5 0 0,1 5,0Z" style="opacity: 1; stroke-width: 0px; fill: rgb(227, 119, 194); fill-opacity: 1;"/><path class="point" transform="translate(267.38,114.74)" d="M5,0A5,5 0 1,1 0,-5A5,5 0 0,1 5,0Z" style="opacity: 1; stroke-width: 0px; fill: rgb(227, 119, 194); fill-opacity: 1;"/><path class="point" transform="translate(365.31,168.88)" d="M5,0A5,5 0 1,1 0,-5A5,5 0 0,1 5,0Z" style="opacity: 1; stroke-width: 0px; fill: rgb(227, 119, 194); fill-opacity: 1;"/></g><g class="text"/></g><g class="trace scatter trace322863" style="stroke-miterlimit: 2; opacity: 1;"><g class="fills"/><g class="errorbars"/><g class="lines"><path class="js-line" d="M130.28,263.64L132.48,240.38L132.49,240.36L134.4,221.69L134.41,221.67L136.31,204.39L136.32,204.37L137.93,190.57L137.94,190.55L139.46,178.15L139.47,178.13L148.68,114.26L148.69,114.25L152.02,94.87L152.03,94.86L154.66,80.75L154.67,80.75L156.93,69.42L156.94,69.41L163.13,42.21L163.14,42.21L166.01,31.64L166.02,31.64L169.33,22.09L169.33,22.09L169.34,22.09L170.19,21L170.4,21.52L170.4,21.53L169.96,26.1L169.96,26.1L169.95,26.1L167.77,36.85L167.76,36.85L163.69,53.44L163.68,53.44L160.45,65.8L160.45,65.8L160.44,65.81L145.79,123.65L145.79,123.65L145.79,123.66L142.98,137.1L142.98,137.1L142.98,137.11L139.41,158.75L139.41,158.75L139.41,158.76L137.6,177.95L137.6,177.96L137.37,192.63L137.37,192.63L137.37,192.64L139.38,213.79L139.39,213.79L141.4,223.25L141.4,223.25L141.41,223.26L143.78,231.33L143.79,231.33L146.48,238.53L146.49,238.54L152.65,251.06L152.66,251.06L159.57,261.67L159.58,261.67L166.19,269.92L166.2,269.92L174.04,278.17L174.05,278.17L183.81,286.88L183.82,286.88L196.12,296.17L196.13,296.17L204.93,302L204.94,302L224.74,313.33L224.75,313.33L252.13,326.25L252.14,326.25L278.26,336.64L278.27,336.64L296.02,342.94L296.04,342.94L336.07,355.52L336.09,355.52L352.13,360.08L352.15,360.08L412.93,375.59L412.96,375.59L434.83,380.65L434.85,380.65L461.3,386.5L461.33,386.5L522,399" style="vector-effect: non-scaling-stroke; fill: none; stroke: rgb(127, 127, 127); stroke-opacity: 1; stroke-width: 2px; opacity: 1;"/></g><g class="points"/><g class="text"/></g></g></g><g class="overplot"/><path class="xlines-above crisp" d="M0,0" style="fill: none;"/><path class="ylines-above crisp" d="M0,0" style="fill: none;"/><g class="overlines-above"/><g class="xaxislayer-above"><g class="xtick"><text text-anchor="middle" x="0" y="533" transform="translate(112.35,0)" style="font-family: 'Open Sans', verdana, arial, sans-serif; font-size: 12px; fill: rgb(68, 68, 68); fill-opacity: 1; white-space: pre;">0</text></g><g class="xtick"><text text-anchor="middle" x="0" y="533" transform="translate(190.69,0)" style="font-family: 'Open Sans', verdana, arial, sans-serif; font-size: 12px; fill: rgb(68, 68, 68); fill-opacity: 1; white-space: pre;">2</text></g><g class="xtick"><text text-anchor="middle" x="0" y="533" transform="translate(269.03999999999996,0)" style="font-family: 'Open Sans', verdana, arial, sans-serif; font-size: 12px; fill: rgb(68, 68, 68); fill-opacity: 1; white-space: pre;">4</text></g><g class="xtick"><text text-anchor="middle" x="0" y="533" transform="translate(347.38,0)" style="font-family: 'Open Sans', verdana, arial, sans-serif; font-size: 12px; fill: rgb(68, 68, 68); fill-opacity: 1; white-space: pre;">6</text></g><g class="xtick"><text text-anchor="middle" x="0" y="533" transform="translate(425.73,0)" style="font-family: 'Open Sans', verdana, arial, sans-serif; font-size: 12px; fill: rgb(68, 68, 68); fill-opacity: 1; white-space: pre;">8</text></g><g class="xtick"><text text-anchor="middle" x="0" y="533" transform="translate(504.07,0)" style="font-family: 'Open Sans', verdana, arial, sans-serif; font-size: 12px; fill: rgb(68, 68, 68); fill-opacity: 1; white-space: pre;">10</text></g><g class="xtick"><text text-anchor="middle" x="0" y="533" transform="translate(582.4100000000001,0)" style="font-family: 'Open Sans', verdana, arial, sans-serif; font-size: 12px; fill: rgb(68, 68, 68); fill-opacity: 1; white-space: pre;">12</text></g></g><g class="yaxislayer-above"><g class="ytick"><text text-anchor="end" x="79" y="4.199999999999999" transform="translate(0,499)" style="font-family: 'Open Sans', verdana, arial, sans-serif; font-size: 12px; fill: rgb(68, 68, 68); fill-opacity: 1; white-space: pre;">−10</text></g><g class="ytick"><text text-anchor="end" x="79" y="4.199999999999999" transform="translate(0,444.85)" style="font-family: 'Open Sans', verdana, arial, sans-serif; font-size: 12px; fill: rgb(68, 68, 68); fill-opacity: 1; white-space: pre;">−8</text></g><g class="ytick"><text text-anchor="end" x="79" y="4.199999999999999" transform="translate(0,390.71)" style="font-family: 'Open Sans', verdana, arial, sans-serif; font-size: 12px; fill: rgb(68, 68, 68); fill-opacity: 1; white-space: pre;">−6</text></g><g class="ytick"><text text-anchor="end" x="79" y="4.199999999999999" transform="translate(0,336.56)" style="font-family: 'Open Sans', verdana, arial, sans-serif; font-size: 12px; fill: rgb(68, 68, 68); fill-opacity: 1; white-space: pre;">−4</text></g><g class="ytick"><text text-anchor="end" x="79" y="4.199999999999999" transform="translate(0,282.41999999999996)" style="font-family: 'Open Sans', verdana, arial, sans-serif; font-size: 12px; fill: rgb(68, 68, 68); fill-opacity: 1; white-space: pre;">−2</text></g><g class="ytick"><text text-anchor="end" x="79" y="4.199999999999999" transform="translate(0,228.27)" style="font-family: 'Open Sans', verdana, arial, sans-serif; font-size: 12px; fill: rgb(68, 68, 68); fill-opacity: 1; white-space: pre;">0</text></g><g class="ytick"><text text-anchor="end" x="79" y="4.199999999999999" transform="translate(0,174.13)" style="font-family: 'Open Sans', verdana, arial, sans-serif; font-size: 12px; fill: rgb(68, 68, 68); fill-opacity: 1; white-space: pre;">2</text></g><g class="ytick"><text text-anchor="end" x="79" y="4.199999999999999" transform="translate(0,119.98)" style="font-family: 'Open Sans', verdana, arial, sans-serif; font-size: 12px; fill: rgb(68, 68, 68); fill-opacity: 1; white-space: pre;">4</text></g></g><g class="overaxes-above"/></g></g><g class="polarlayer"/><g class="ternarylayer"/><g class="geolayer"/><g class="funnelarealayer"/><g class="pielayer"/><g class="treemaplayer"/><g class="sunburstlayer"/><g class="glimages"/><defs id="topdefs-aa6f60"><g class="clips"/><clipPath id="legendaa6f60"><rect width="176" height="162" x="0" y="0"/></clipPath></defs><g class="layer-above"><g class="imagelayer"/><g class="shapelayer"/></g><g class="infolayer"><g class="legend" pointer-events="all" transform="translate(612.44,100)"><rect class="bg" shape-rendering="crispEdges" style="stroke: rgb(68, 68, 68); stroke-opacity: 1; fill: rgb(255, 255, 255); fill-opacity: 1; stroke-width: 0px;" width="176" height="162" x="0" y="0"/><g class="scrollbox" transform="" clip-path="url('#legendaa6f60')"><g class="groups"><g class="traces" transform="translate(0,14.5)" style="opacity: 1;"><text class="legendtext" text-anchor="start" x="40" y="4.680000000000001" style="font-family: 'Open Sans', verdana, arial, sans-serif; font-size: 12px; fill: rgb(68, 68, 68); fill-opacity: 1; white-space: pre;">B-Spline Curve</text><g class="layers" style="opacity: 1;"><g class="legendfill"/><g class="legendlines"><path class="js-line" d="M5,0h30" style="fill: none; stroke: rgb(31, 119, 180); stroke-opacity: 1; stroke-width: 2px;"/></g><g class="legendsymbols"><g class="legendpoints"/></g></g><rect class="legendtoggle" x="0" y="-9.5" width="171" height="19" style="fill: rgb(0, 0, 0); fill-opacity: 0;"/></g><g class="traces" transform="translate(0,33.5)" style="opacity: 1;"><text class="legendtext" text-anchor="start" x="40" y="4.680000000000001" style="font-family: 'Open Sans', verdana, arial, sans-serif; font-size: 12px; fill: rgb(68, 68, 68); fill-opacity: 1; white-space: pre;">Control Polygon</text><g class="layers" style="opacity: 1;"><g class="legendfill"/><g class="legendlines"><path class="js-line" d="M5,0h30" style="fill: none; stroke: rgb(255, 127, 14); stroke-opacity: 1; stroke-dasharray: 9px, 9px; stroke-width: 2px;"/></g><g class="legendsymbols"><g class="legendpoints"/></g></g><rect class="legendtoggle" x="0" y="-9.5" width="171" height="19" style="fill: rgb(0, 0, 0); fill-opacity: 0;"/></g><g class="traces" transform="translate(0,52.5)" style="opacity: 1;"><text class="legendtext" text-anchor="start" x="40" y="4.680000000000001" style="font-family: 'Open Sans', verdana, arial, sans-serif; font-size: 12px; fill: rgb(68, 68, 68); fill-opacity: 1; white-space: pre;">Control Points</text><g class="layers" style="opacity: 1;"><g class="legendfill"/><g class="legendlines"/><g class="legendsymbols"><g class="legendpoints"><path class="scatterpts" transform="translate(20,0)" d="M5,0A5,5 0 1,1 0,-5A5,5 0 0,1 5,0Z" style="opacity: 1; stroke-width: 0px; fill: rgb(44, 160, 44); fill-opacity: 1;"/></g></g></g><rect class="legendtoggle" x="0" y="-9.5" width="171" height="19" style="fill: rgb(0, 0, 0); fill-opacity: 0;"/></g><g class="traces" transform="translate(0,71.5)" style="opacity: 1;"><text class="legendtext" text-anchor="start" x="40" y="4.680000000000001" style="font-family: 'Open Sans', verdana, arial, sans-serif; font-size: 12px; fill: rgb(68, 68, 68); fill-opacity: 1; white-space: pre;">B-Spline First Derivative</text><g class="layers" style="opacity: 1;"><g class="legendfill"/><g class="legendlines"><path class="js-line" d="M5,0h30" style="fill: none; stroke: rgb(214, 39, 40); stroke-opacity: 1; stroke-width: 2px;"/></g><g class="legendsymbols"><g class="legendpoints"/></g></g><rect class="legendtoggle" x="0" y="-9.5" width="171" height="19" style="fill: rgb(0, 0, 0); fill-opacity: 0;"/></g><g class="traces" transform="translate(0,90.5)" style="opacity: 1;"><text class="legendtext" text-anchor="start" x="40" y="4.680000000000001" style="font-family: 'Open Sans', verdana, arial, sans-serif; font-size: 12px; fill: rgb(68, 68, 68); fill-opacity: 1; white-space: pre;">Bezier Curve</text><g class="layers" style="opacity: 1;"><g class="legendfill"/><g class="legendlines"><path class="js-line" d="M5,0h30" style="fill: none; stroke: rgb(148, 103, 189); stroke-opacity: 1; stroke-width: 2px;"/></g><g class="legendsymbols"><g class="legendpoints"/></g></g><rect class="legendtoggle" x="0" y="-9.5" width="171" height="19" style="fill: rgb(0, 0, 0); fill-opacity: 0;"/></g><g class="traces" transform="translate(0,109.5)" style="opacity: 1;"><text class="legendtext" text-anchor="start" x="40" y="4.680000000000001" style="font-family: 'Open Sans', verdana, arial, sans-serif; font-size: 12px; fill: rgb(68, 68, 68); fill-opacity: 1; white-space: pre;">Control Polygon</text><g class="layers" style="opacity: 1;"><g class="legendfill"/><g class="legendlines"><path class="js-line" d="M5,0h30" style="fill: none; stroke: rgb(140, 86, 75); stroke-opacity: 1; stroke-dasharray: 9px, 9px; stroke-width: 2px;"/></g><g class="legendsymbols"><g class="legendpoints"/></g></g><rect class="legendtoggle" x="0" y="-9.5" width="171" height="19" style="fill: rgb(0, 0, 0); fill-opacity: 0;"/></g><g class="traces" transform="translate(0,128.5)" style="opacity: 1;"><text class="legendtext" text-anchor="start" x="40" y="4.680000000000001" style="font-family: 'Open Sans', verdana, arial, sans-serif; font-size: 12px; fill: rgb(68, 68, 68); fill-opacity: 1; white-space: pre;">Control Points</text><g class="layers" style="opacity: 1;"><g class="legendfill"/><g class="legendlines"/><g class="legendsymbols"><g class="legendpoints"><path class="scatterpts" transform="translate(20,0)" d="M5,0A5,5 0 1,1 0,-5A5,5 0 0,1 5,0Z" style="opacity: 1; stroke-width: 0px; fill: rgb(227, 119, 194); fill-opacity: 1;"/></g></g></g><rect class="legendtoggle" x="0" y="-9.5" width="171" height="19" style="fill: rgb(0, 0, 0); fill-opacity: 0;"/></g><g class="traces" transform="translate(0,147.5)" style="opacity: 1;"><text class="legendtext" text-anchor="start" x="40" y="4.680000000000001" style="font-family: 'Open Sans', verdana, arial, sans-serif; font-size: 12px; fill: rgb(68, 68, 68); fill-opacity: 1; white-space: pre;">Bezier First Derivative</text><g class="layers" style="opacity: 1;"><g class="legendfill"/><g class="legendlines"><path class="js-line" d="M5,0h30" style="fill: none; stroke: rgb(127, 127, 127); stroke-opacity: 1; stroke-width: 2px;"/></g><g class="legendsymbols"><g class="legendpoints"/></g></g><rect class="legendtoggle" x="0" y="-9.5" width="171" height="19" style="fill: rgb(0, 0, 0); fill-opacity: 0;"/></g></g></g><rect class="scrollbar" rx="20" ry="3" width="0" height="0" style="fill: rgb(128, 139, 164); fill-opacity: 1;" x="0" y="0"/></g><g class="g-gtitle"><text class="gtitle" x="400" y="50" text-anchor="middle" dy="0em" style="font-family: 'Open Sans', verdana, arial, sans-serif; font-size: 17px; fill: rgb(68, 68, 68); opacity: 1; font-weight: normal; white-space: pre;">C1 continuity</text></g><g class="g-xtitle"/><g class="g-ytitle"/></g></svg>