<svg class="main-svg" xmlns="http://www.w3.org/2000/svg" xmlns:xlink="http://www.w3.org/1999/xlink" width="1600" height="900" style="" viewBox="0 0 1600 900"><rect x="0" y="0" width="1600" height="900" style="fill: rgb(255, 255, 255); fill-opacity: 1;"/><defs id="defs-ff0d9f"><g class="clips"><clipPath id="clipff0d9fxyplot" class="plotclip"><rect width="1304" height="720"/></clipPath><clipPath class="axesclip" id="clipff0d9fx"><rect x="80" y="0" width="1304" height="900"/></clipPath><clipPath class="axesclip" id="clipff0d9fy"><rect x="0" y="100" width="1600" height="720"/></clipPath><clipPath class="axesclip" id="clipff0d9fxy"><rect x="80" y="100" width="1304" height="720"/></clipPath></g><g class="gradients"/></defs><g class="bglayer"/><g class="layer-below"><g class="imagelayer"/><g class="shapelayer"/></g><g class="cartesianlayer"><g class="subplot xy"><g class="layer-subplot"><g class="shapelayer"/><g class="imagelayer"/></g><g class="gridlayer"><g class="x"><path class="xgrid crisp" transform="translate(188.9,0)" d="M0,100v720" style="stroke: rgb(238, 238, 238); stroke-opacity: 1; stroke-width: 1px;"/><path class="xgrid crisp" transform="translate(338.28,0)" d="M0,100v720" style="stroke: rgb(238, 238, 238); stroke-opacity: 1; stroke-width: 1px;"/><path class="xgrid crisp" transform="translate(487.67,0)" d="M0,100v720" style="stroke: rgb(238, 238, 238); stroke-opacity: 1; stroke-width: 1px;"/><path class="xgrid crisp" transform="translate(637.06,0)" d="M0,100v720" style="stroke: rgb(238, 238, 238); stroke-opacity: 1; stroke-width: 1px;"/><path class="xgrid crisp" transform="translate(786.45,0)" d="M0,100v720" style="stroke: rgb(238, 238, 238); stroke-opacity: 1; stroke-width: 1px;"/><path class="xgrid crisp" transform="translate(935.84,0)" d="M0,100v720" style="stroke: rgb(238, 238, 238); stroke-opacity: 1; stroke-width: 1px;"/><path class="xgrid crisp" transform="translate(1085.22,0)" d="M0,100v720" style="stroke: rgb(238, 238, 238); stroke-opacity: 1; stroke-width: 1px;"/><path class="xgrid crisp" transform="translate(1234.61,0)" d="M0,100v720" style="stroke: rgb(238, 238, 238); stroke-opacity: 1; stroke-width: 1px;"/></g><g class="y"><path class="ygrid crisp" transform="translate(0,798.65)" d="M80,0h1304" style="stroke: rgb(238, 238, 238); stroke-opacity: 1; stroke-width: 1px;"/><path class="ygrid crisp" transform="translate(0,700.48)" d="M80,0h1304" style="stroke: rgb(238, 238, 238); stroke-opacity: 1; stroke-width: 1px;"/><path class="ygrid crisp" transform="translate(0,602.31)" d="M80,0h1304" style="stroke: rgb(238, 238, 238); stroke-opacity: 1; stroke-width: 1px;"/><path class="ygrid crisp" transform="translate(0,405.97)" d="M80,0h1304" style="stroke: rgb(238, 238, 238); stroke-opacity: 1; stroke-width: 1px;"/><path class="ygrid crisp" transform="translate(0,307.8)" d="M80,0h1304" style="stroke: rgb(238, 238, 238); stroke-opacity: 1; stroke-width: 1px;"/><path class="ygrid crisp" transform="translate(0,209.63)" d="M80,0h1304" style="stroke: rgb(238, 238, 238); stroke-opacity: 1; stroke-width: 1px;"/><path class="ygrid crisp" transform="translate(0,111.46000000000001)" d="M80,0h1304" style="stroke: rgb(238, 238, 238); stroke-opacity: 1; stroke-width: 1px;"/></g></g><g class="zerolinelayer"><path class="yzl zl crisp" transform="translate(0,504.14)" d="M80,0h1304" style="stroke: rgb(68, 68, 68); stroke-opacity: 1; stroke-width: 1px;"/></g><path class="xlines-below"/><path class="ylines-below"/><g class="overlines-below"/><g class="xaxislayer-below"/><g class="yaxislayer-below"/><g class="overaxes-below"/><g class="plot" transform="translate(80,100)" clip-path="url('#clipff0d9fxyplot')"><g class="scatterlayer mlayer"><g class="trace scatter trace6f065e" style="stroke-miterlimit: 2; opacity: 1;"><g class="fills"/><g class="errorbars"/><g class="lines"><path class="js-line" d="M183.59,36L167.36,144.38L167.34,144.47L164.3,163.96L164.28,164.05L161.36,182.49L161.34,182.57L158.53,200.09L158.51,200.17L155.8,216.8L155.78,216.88L152.74,235.24L152.72,235.31L149.79,252.71L149.77,252.79L146.39,272.48L146.37,272.55L143.21,290.59L143.19,290.66L139.5,311.19L139.49,311.25L136.13,329.53L136.11,329.59L131.61,353.35L131.59,353.41L126.67,378.4L126.65,378.45L121.4,403.92L121.38,403.98L113.29,440.62L113.28,440.66L104.76,475.55L104.75,475.59L93.21,516.07L93.2,516.1L87.46,532.96L87.45,532.98L79.2,552.92L79.19,552.93L73.48,563.42L73.47,563.43L68.51,570.08L68.5,570.08L64.66,573.52L64.65,573.52L61.09,575.26L61.08,575.26L57.4,575.47L57.4,575.47L57.39,575.47L53.77,573.99L53.77,573.99L53.76,573.98L49.92,570.43L49.92,570.42L46.09,564.67L46.09,564.66L42.23,556.4L42.23,556.39L38.41,545.59L38.41,545.58L34.47,531.4L34.47,531.38L29.29,507.6L29.29,507.58L22.82,469.12L22.82,469.1L20.81,455.24L20.81,455.22L9.97,379.53L9.97,379.53L9.96,379.52L8.1,371.19L8.09,371.19L5.61,364.73L5.61,364.73L5.6,364.73L4.27,364.18L4.27,364.19L4.26,364.19L3.21,365.82L3.21,365.82L3.21,365.83L2.11,370.29L2.11,370.29L2.11,370.3L1.03,379.52L1.03,379.52L1.03,379.53L0.03,405.39L0.03,405.4L0.75,441.73L0.76,441.74L1.51,453.35L1.51,453.35L1.52,453.36L3.23,467.96L3.24,467.96L4.83,474.26L4.84,474.26L6.43,476.11L6.43,476.11L6.44,476.11L7.59,475.29L7.59,475.29L7.59,475.28L9.28,471.55L9.28,471.55L9.28,471.54L12.26,460.26L12.26,460.25L14.88,447.52L14.88,447.51L21.8,409.13L21.8,409.11L27.99,374.36L27.99,374.34L43.67,298.15L43.68,298.14L47.48,282.93L47.49,282.91L56.24,252.93L56.25,252.92L59.62,243.18L59.63,243.17L67.48,224.31L67.49,224.3L71.85,216.02L71.86,216.01L79.14,205.53L79.15,205.53L84.28,200.53L84.28,200.53L84.29,200.53L89.05,197.53L89.05,197.53L89.06,197.53L94.01,195.89L94.01,195.89L94.02,195.89L99.52,195.55L99.52,195.55L99.53,195.55L105.95,196.72L105.95,196.72L105.96,196.73L112.38,199.21L112.38,199.21L112.39,199.22L119.32,203L119.32,203L119.33,203.01L129.99,210.44L130,210.45L141.96,220.35L141.97,220.36L153.76,231.16L153.77,231.17L169.66,246.74L169.67,246.76L198.86,277L198.87,277.02L215.57,294.78L215.58,294.8L285.77,370.27L285.8,370.29L297.94,383.31L297.97,383.33L362.97,452.24L363,452.27L391.48,482.03L391.52,482.06L417.78,509.24L417.81,509.27L465,557.52L465.03,557.56L475.64,568.3L475.68,568.34L557.06,649.56" style="vector-effect: non-scaling-stroke; fill: none; stroke: rgb(31, 119, 180); stroke-opacity: 1; stroke-width: 2px; opacity: 1;"/></g><g class="points"/><g class="text"/></g><g class="trace scatter trace47419b" style="stroke-miterlimit: 2; opacity: 1;"><g class="fills"/><g class="errorbars"/><g class="lines"><path class="js-line" d="M557.06,649.56L557.81,600.44L557.82,600.4L558.57,580.99L558.58,580.95L559.33,566.53L559.34,566.49L562.82,522.45L562.83,522.42L564.7,505.57L564.71,505.54L569.05,474.97L569.06,474.95L571.66,460.17L571.67,460.14L579.03,426.94L579.04,426.92L585.07,405.86L585.08,405.84L592.08,385.92L592.09,385.9L598.77,370.2L598.78,370.19L603.15,361.28L603.16,361.26L613.04,344.28L613.05,344.27L619.83,334.68L619.84,334.67L625.81,327.36L625.82,327.35L637.57,315.58L637.58,315.57L645.77,309.07L645.78,309.07L653.71,303.91L653.72,303.91L662.74,299.23L662.75,299.23L671.1,295.89L671.11,295.89L679.19,293.46L679.2,293.46L690.2,291.3L690.21,291.3L703.89,290.22L703.9,290.22L720.24,290.95L720.26,290.96L730.42,292.38L730.43,292.39L739.96,294.33L739.97,294.34L751.48,297.4L751.49,297.41L763.66,301.42L763.67,301.43L776.96,306.65L776.97,306.66L797.65,316.32L797.66,316.33L816.42,326.54L816.43,326.55L829.36,334.29L829.37,334.3L851.89,349.03L851.9,349.04L866.15,359.09L866.16,359.1L889.97,377.02L889.98,377.04L901.79,386.39L901.8,386.41L919.5,400.96L919.51,400.98L957.54,434.11L957.55,434.13L970.39,445.8L970.4,445.81L981.12,455.71L981.13,455.73L992.02,465.92L992.03,465.94L1001.73,475.13L1001.74,475.14L1010.72,483.72L1010.73,483.73L1049.25,521.19L1049.27,521.2L1059.6,531.37L1059.62,531.38L1070.19,541.81L1070.21,541.82L1119.11,589.67L1119.13,589.68L1140.03,609.52L1140.04,609.52L1153.35,621.77L1153.36,621.77L1163.35,630.7L1163.36,630.7L1179.36,644.36L1179.37,644.36L1197.8,658.76L1197.81,658.76L1212.03,668.5L1212.04,668.5L1227.25,677.01L1227.26,677.01L1236.82,680.96L1236.83,680.96L1243.74,682.92L1243.74,682.92L1243.75,682.92L1250.33,683.9L1250.33,683.9L1250.34,683.9L1257.91,683.66L1257.91,683.66L1257.92,683.65L1263.97,682.1L1263.97,682.09L1268.9,679.66L1268.9,679.65L1274.13,675.57L1274.13,675.57L1274.13,675.56L1277.73,671.59L1277.73,671.59L1277.73,671.58L1281.9,665.42L1281.9,665.42L1281.9,665.41L1285.72,657.78L1285.72,657.77L1288.56,650.42L1288.56,650.41L1292.86,635.18L1292.86,635.17L1295.32,623.05L1295.32,623.04L1297.69,607.39L1297.69,607.38L1300.22,582.8L1300.22,582.79L1302.8,534L1302.8,533.98L1303.33,513.49L1303.33,513.47L1304,404.14" style="vector-effect: non-scaling-stroke; fill: none; stroke: rgb(255, 127, 14); stroke-opacity: 1; stroke-width: 2px; opacity: 1;"/></g><g class="points"/><g class="text"/></g></g></g><g class="overplot"/><path class="xlines-above crisp" d="M0,0" style="fill: none;"/><path class="ylines-above crisp" d="M0,0" style="fill: none;"/><g class="overlines-above"/><g class="xaxislayer-above"><g class="xtick"><text text-anchor="middle" x="0" y="833" transform="translate(188.9,0)" style="font-family: 'Open Sans', verdana, arial, sans-serif; font-size: 12px; fill: rgb(68, 68, 68); fill-opacity: 1; white-space: pre;">1</text></g><g class="xtick"><text text-anchor="middle" x="0" y="833" transform="translate(338.28,0)" style="font-family: 'Open Sans', verdana, arial, sans-serif; font-size: 12px; fill: rgb(68, 68, 68); fill-opacity: 1; white-space: pre;">1.5</text></g><g class="xtick"><text text-anchor="middle" x="0" y="833" transform="translate(487.67,0)" style="font-family: 'Open Sans', verdana, arial, sans-serif; font-size: 12px; fill: rgb(68, 68, 68); fill-opacity: 1; white-space: pre;">2</text></g><g class="xtick"><text text-anchor="middle" x="0" y="833" transform="translate(637.06,0)" style="font-family: 'Open Sans', verdana, arial, sans-serif; font-size: 12px; fill: rgb(68, 68, 68); fill-opacity: 1; white-space: pre;">2.5</text></g><g class="xtick"><text text-anchor="middle" x="0" y="833" transform="translate(786.45,0)" style="font-family: 'Open Sans', verdana, arial, sans-serif; font-size: 12px; fill: rgb(68, 68, 68); fill-opacity: 1; white-space: pre;">3</text></g><g class="xtick"><text text-anchor="middle" x="0" y="833" transform="translate(935.84,0)" style="font-family: 'Open Sans', verdana, arial, sans-serif; font-size: 12px; fill: rgb(68, 68, 68); fill-opacity: 1; white-space: pre;">3.5</text></g><g class="xtick"><text text-anchor="middle" x="0" y="833" transform="translate(1085.22,0)" style="font-family: 'Open Sans', verdana, arial, sans-serif; font-size: 12px; fill: rgb(68, 68, 68); fill-opacity: 1; white-space: pre;">4</text></g><g class="xtick"><text text-anchor="middle" x="0" y="833" transform="translate(1234.61,0)" style="font-family: 'Open Sans', verdana, arial, sans-serif; font-size: 12px; fill: rgb(68, 68, 68); fill-opacity: 1; white-space: pre;">4.5</text></g><g class="xtick"><text text-anchor="middle" x="0" y="833" transform="translate(1384,0)" style="font-family: 'Open Sans', verdana, arial, sans-serif; font-size: 12px; fill: rgb(68, 68, 68); fill-opacity: 1; white-space: pre;">5</text></g></g><g class="yaxislayer-above"><g class="ytick"><text text-anchor="end" x="79" y="4.199999999999999" transform="translate(0,798.65)" style="font-family: 'Open Sans', verdana, arial, sans-serif; font-size: 12px; fill: rgb(68, 68, 68); fill-opacity: 1; white-space: pre;">−3</text></g><g class="ytick"><text text-anchor="end" x="79" y="4.199999999999999" transform="translate(0,700.48)" style="font-family: 'Open Sans', verdana, arial, sans-serif; font-size: 12px; fill: rgb(68, 68, 68); fill-opacity: 1; white-space: pre;">−2</text></g><g class="ytick"><text text-anchor="end" x="79" y="4.199999999999999" transform="translate(0,602.31)" style="font-family: 'Open Sans', verdana, arial, sans-serif; font-size: 12px; fill: rgb(68, 68, 68); fill-opacity: 1; white-space: pre;">−1</text></g><g class="ytick"><text text-anchor="end" x="79" y="4.199999999999999" transform="translate(0,504.14)" style="font-family: 'Open Sans', verdana, arial, sans-serif; font-size: 12px; fill: rgb(68, 68, 68); fill-opacity: 1; white-space: pre;">0</text></g><g class="ytick"><text text-anchor="end" x="79" y="4.199999999999999" transform="translate(0,405.97)" style="font-family: 'Open Sans', verdana, arial, sans-serif; font-size: 12px; fill: rgb(68, 68, 68); fill-opacity: 1; white-space: pre;">1</text></g><g class="ytick"><text text-anchor="end" x="79" y="4.199999999999999" transform="translate(0,307.8)" style="font-family: 'Open Sans', verdana, arial, sans-serif; font-size: 12px; fill: rgb(68, 68, 68); fill-opacity: 1; white-space: pre;">2</text></g><g class="ytick"><text text-anchor="end" x="79" y="4.199999999999999" transform="translate(0,209.63)" style="font-family: 'Open Sans', verdana, arial, sans-serif; font-size: 12px; fill: rgb(68, 68, 68); fill-opacity: 1; white-space: pre;">3</text></g><g class="ytick"><text text-anchor="end" x="79" y="4.199999999999999" transform="translate(0,111.46000000000001)" style="font-family: 'Open Sans', verdana, arial, sans-serif; font-size: 12px; fill: rgb(68, 68, 68); fill-opacity: 1; white-space: pre;">4</text></g></g><g class="overaxes-above"/></g></g><g class="polarlayer"/><g class="ternarylayer"/><g class="geolayer"/><g class="funnelarealayer"/><g class="pielayer"/><g class="treemaplayer"/><g class="sunburstlayer"/><g class="glimages"/><defs id="topdefs-ff0d9f"><g class="clips"/><clipPath id="legendff0d9f"><rect width="178" height="48" x="0" y="0"/></clipPath></defs><g class="layer-above"><g class="imagelayer"/><g class="shapelayer"/></g><g class="infolayer"><g class="legend" pointer-events="all" transform="translate(1410.08,100)"><rect class="bg" shape-rendering="crispEdges" style="stroke: rgb(68, 68, 68); stroke-opacity: 1; fill: rgb(255, 255, 255); fill-opacity: 1; stroke-width: 0px;" width="178" height="48" x="0" y="0"/><g class="scrollbox" transform="" clip-path="url('#legendff0d9f')"><g class="groups"><g class="traces" transform="translate(0,14.5)" style="opacity: 1;"><text class="legendtext" text-anchor="start" x="40" y="4.680000000000001" style="font-family: 'Open Sans', verdana, arial, sans-serif; font-size: 12px; fill: rgb(68, 68, 68); fill-opacity: 1; white-space: pre;">B-Spline First Derivative</text><g class="layers" style="opacity: 1;"><g class="legendfill"/><g class="legendlines"><path class="js-line" d="M5,0h30" style="fill: none; stroke: rgb(31, 119, 180); stroke-opacity: 1; stroke-width: 2px;"/></g><g class="legendsymbols"><g class="legendpoints"/></g></g><rect class="legendtoggle" x="0" y="-9.5" width="173" height="19" style="fill: rgb(0, 0, 0); fill-opacity: 0;"/></g><g class="traces" transform="translate(0,33.5)" style="opacity: 1;"><text class="legendtext" text-anchor="start" x="40" y="4.680000000000001" style="font-family: 'Open Sans', verdana, arial, sans-serif; font-size: 12px; fill: rgb(68, 68, 68); fill-opacity: 1; white-space: pre;">Bezier First Derivative</text><g class="layers" style="opacity: 1;"><g class="legendfill"/><g class="legendlines"><path class="js-line" d="M5,0h30" style="fill: none; stroke: rgb(255, 127, 14); stroke-opacity: 1; stroke-width: 2px;"/></g><g class="legendsymbols"><g class="legendpoints"/></g></g><rect class="legendtoggle" x="0" y="-9.5" width="173" height="19" style="fill: rgb(0, 0, 0); fill-opacity: 0;"/></g></g></g><rect class="scrollbar" rx="20" ry="3" width="0" height="0" style="fill: rgb(128, 139, 164); fill-opacity: 1;" x="0" y="0"/></g><g class="g-gtitle"><text class="gtitle" x="800" y="50" text-anchor="middle" dy="0em" style="font-family: 'Open Sans', verdana, arial, sans-serif; font-size: 17px; fill: rgb(68, 68, 68); opacity: 1; font-weight: normal; white-space: pre;">C1 continuity</text></g><g class="g-xtitle"/><g class="g-ytitle"/></g></svg>