<svg class="main-svg" xmlns="http://www.w3.org/2000/svg" xmlns:xlink="http://www.w3.org/1999/xlink" width="1600" height="900" style="" viewBox="0 0 1600 900"><rect x="0" y="0" width="1600" height="900" style="fill: rgb(255, 255, 255); fill-opacity: 1;"/><defs id="defs-5d8262"><g class="clips"><clipPath id="clip5d8262xyplot" class="plotclip"><rect width="1287" height="720"/></clipPath><clipPath class="axesclip" id="clip5d8262x"><rect x="80" y="0" width="1287" height="900"/></clipPath><clipPath class="axesclip" id="clip5d8262y"><rect x="0" y="100" width="1600" height="720"/></clipPath><clipPath class="axesclip" id="clip5d8262xy"><rect x="80" y="100" width="1287" height="720"/></clipPath></g><g class="gradients"/></defs><g class="bglayer"/><g class="layer-below"><g class="imagelayer"/><g class="shapelayer"/></g><g class="cartesianlayer"><g class="subplot xy"><g class="layer-subplot"><g class="shapelayer"/><g class="imagelayer"/></g><g class="gridlayer"><g class="x"><path class="xgrid crisp" transform="translate(347.61,0)" d="M0,100v720" style="stroke: rgb(238, 238, 238); stroke-opacity: 1; stroke-width: 1px;"/><path class="xgrid crisp" transform="translate(493.58,0)" d="M0,100v720" style="stroke: rgb(238, 238, 238); stroke-opacity: 1; stroke-width: 1px;"/><path class="xgrid crisp" transform="translate(639.54,0)" d="M0,100v720" style="stroke: rgb(238, 238, 238); stroke-opacity: 1; stroke-width: 1px;"/><path class="xgrid crisp" transform="translate(785.51,0)" d="M0,100v720" style="stroke: rgb(238, 238, 238); stroke-opacity: 1; stroke-width: 1px;"/><path class="xgrid crisp" transform="translate(931.48,0)" d="M0,100v720" style="stroke: rgb(238, 238, 238); stroke-opacity: 1; stroke-width: 1px;"/><path class="xgrid crisp" transform="translate(1077.45,0)" d="M0,100v720" style="stroke: rgb(238, 238, 238); stroke-opacity: 1; stroke-width: 1px;"/><path class="xgrid crisp" transform="translate(1223.42,0)" d="M0,100v720" style="stroke: rgb(238, 238, 238); stroke-opacity: 1; stroke-width: 1px;"/></g><g class="y"><path class="ygrid crisp" transform="translate(0,740.8)" d="M80,0h1287" style="stroke: rgb(238, 238, 238); stroke-opacity: 1; stroke-width: 1px;"/><path class="ygrid crisp" transform="translate(0,654.4)" d="M80,0h1287" style="stroke: rgb(238, 238, 238); stroke-opacity: 1; stroke-width: 1px;"/><path class="ygrid crisp" transform="translate(0,568)" d="M80,0h1287" style="stroke: rgb(238, 238, 238); stroke-opacity: 1; stroke-width: 1px;"/><path class="ygrid crisp" transform="translate(0,395.2)" d="M80,0h1287" style="stroke: rgb(238, 238, 238); stroke-opacity: 1; stroke-width: 1px;"/><path class="ygrid crisp" transform="translate(0,308.8)" d="M80,0h1287" style="stroke: rgb(238, 238, 238); stroke-opacity: 1; stroke-width: 1px;"/><path class="ygrid crisp" transform="translate(0,222.4)" d="M80,0h1287" style="stroke: rgb(238, 238, 238); stroke-opacity: 1; stroke-width: 1px;"/><path class="ygrid crisp" transform="translate(0,136)" d="M80,0h1287" style="stroke: rgb(238, 238, 238); stroke-opacity: 1; stroke-width: 1px;"/></g></g><g class="zerolinelayer"><path class="xzl zl crisp" transform="translate(201.64,0)" d="M0,100v720" style="stroke: rgb(68, 68, 68); stroke-opacity: 1; stroke-width: 1px;"/><path class="yzl zl crisp" transform="translate(0,481.6)" d="M80,0h1287" style="stroke: rgb(68, 68, 68); stroke-opacity: 1; stroke-width: 1px;"/></g><path class="xlines-below"/><path class="ylines-below"/><g class="overlines-below"/><g class="xaxislayer-below"/><g class="yaxislayer-below"/><g class="overaxes-below"/><g class="plot" transform="translate(80,100)" clip-path="url('#clip5d8262xyplot')"><g class="scatterlayer mlayer"><g class="trace scatter tracef84ea7" style="stroke-miterlimit: 2; opacity: 1;"><g class="fills"/><g class="errorbars"/><g class="lines"><path class="js-line" d="M121.64,381.6L142.17,375.5L142.18,375.5L154.03,373.11L154.04,373.11L165.1,371.66L165.11,371.66L175.73,371L175.74,371L186.64,371.07L186.65,371.07L197.19,371.82L197.19,371.83L208.4,373.32L208.4,373.33L221.42,375.81L221.42,375.81L221.43,375.82L242.68,380.82L242.68,380.83L272.77,386.41L272.77,386.41L272.78,386.41L291.45,386.98L291.45,386.98L291.46,386.98L321.77,384.32L321.77,384.32L321.77,384.31L354.65,382.52L354.65,382.52L354.66,382.52L368.96,383.27L368.96,383.27L368.96,383.28L409.2,385.68L409.2,385.68L409.21,385.68L421.16,384.93L421.16,384.93L421.16,384.92L432.38,383.43L432.38,383.43L432.39,383.42L444.74,381.03L444.74,381.02L461.73,376.87L461.73,376.87L461.73,376.86L473.3,373.79L473.3,373.79L473.3,373.78L485.72,370.54L485.72,370.54L485.72,370.53L527.08,362.43L527.08,362.43L527.09,362.43L546.13,360.64L546.14,360.64L567.03,359.99L567.04,359.99L592.82,360.74L592.83,360.75L604.1,361.5L604.11,361.51L629.03,363.91L629.04,363.92L632.53,364.32" style="vector-effect: non-scaling-stroke; fill: none; stroke: rgb(31, 119, 180); stroke-opacity: 1; stroke-width: 2px; opacity: 1;"/></g><g class="points"/><g class="text"/></g><g class="trace scatter tracec79a53" style="stroke-miterlimit: 2; opacity: 1;"><g class="fills"/><g class="errorbars"/><g class="lines"><path class="js-line" d="M121.64,381.6L194.62,355.68L267.61,407.52L340.59,364.32L413.58,403.2L486.56,364.32L559.54,355.68L632.53,364.32" style="vector-effect: non-scaling-stroke; fill: none; stroke: rgb(255, 127, 14); stroke-opacity: 1; stroke-width: 2px; opacity: 1; stroke-dasharray: 9px, 9px;"/></g><g class="points"/><g class="text"/></g><g class="trace scatter trace0d610d" style="stroke-miterlimit: 2; opacity: 1;"><g class="fills"/><g class="errorbars"/><g class="lines"/><g class="points"><path class="point" transform="translate(121.64,381.6)" d="M5,0A5,5 0 1,1 0,-5A5,5 0 0,1 5,0Z" style="opacity: 1; stroke-width: 0px; fill: rgb(44, 160, 44); fill-opacity: 1;"/><path class="point" transform="translate(194.62,355.68)" d="M5,0A5,5 0 1,1 0,-5A5,5 0 0,1 5,0Z" style="opacity: 1; stroke-width: 0px; fill: rgb(44, 160, 44); fill-opacity: 1;"/><path class="point" transform="translate(267.61,407.52)" d="M5,0A5,5 0 1,1 0,-5A5,5 0 0,1 5,0Z" style="opacity: 1; stroke-width: 0px; fill: rgb(44, 160, 44); fill-opacity: 1;"/><path class="point" transform="translate(340.59,364.32)" d="M5,0A5,5 0 1,1 0,-5A5,5 0 0,1 5,0Z" style="opacity: 1; stroke-width: 0px; fill: rgb(44, 160, 44); fill-opacity: 1;"/><path class="point" transform="translate(413.58,403.2)" d="M5,0A5,5 0 1,1 0,-5A5,5 0 0,1 5,0Z" style="opacity: 1; stroke-width: 0px; fill: rgb(44, 160, 44); fill-opacity: 1;"/><path class="point" transform="translate(486.56,364.32)" d="M5,0A5,5 0 1,1 0,-5A5,5 0 0,1 5,0Z" style="opacity: 1; stroke-width: 0px; fill: rgb(44, 160, 44); fill-opacity: 1;"/><path class="point" transform="translate(559.54,355.68)" d="M5,0A5,5 0 1,1 0,-5A5,5 0 0,1 5,0Z" style="opacity: 1; stroke-width: 0px; fill: rgb(44, 160, 44); fill-opacity: 1;"/><path class="point" transform="translate(632.53,364.32)" d="M5,0A5,5 0 1,1 0,-5A5,5 0 0,1 5,0Z" style="opacity: 1; stroke-width: 0px; fill: rgb(44, 160, 44); fill-opacity: 1;"/></g><g class="text"/></g><g class="trace scatter trace61a9db" style="stroke-miterlimit: 2; opacity: 1;"><g class="fills"/><g class="errorbars"/><g class="lines"><path class="js-line" d="M304.1,316.8L290.96,347.66L290.95,347.67L282.89,364.59L282.88,364.6L272.8,383.11L272.79,383.11L265.74,393.96L265.73,393.96L259.09,402.25L259.09,402.25L259.08,402.26L252.8,408.01L252.8,408.01L252.79,408.02L247.78,410.85L247.78,410.85L247.77,410.85L243.46,411.77L243.46,411.77L243.45,411.77L239.83,411.26L239.83,411.26L239.82,411.26L236.01,409.21L236.01,409.21L236.01,409.2L232.82,406.09L232.82,406.08L229,400.34L229,400.34L229,400.33L225.91,393.88L225.91,393.88L225.91,393.87L217.59,374.95L217.59,374.95L217.58,374.95L216.14,374.72L216.14,374.72L216.13,374.72L215.1,376.54L215.1,376.54L215.1,376.55L214.46,380.84L214.46,380.84L214.46,380.85L214.73,387.93L214.73,387.93L214.74,387.93L215.78,392.38L215.78,392.38L215.79,392.38L217.39,394.26L217.39,394.26L217.4,394.26L218.8,393.61L218.8,393.61L218.8,393.6L221.15,390.2L221.15,390.2L221.15,390.19L225.19,382.2L225.19,382.2L225.19,382.19L235.19,363.78L235.19,363.78L235.2,363.78L240.56,356.48L240.56,356.48L240.57,356.48L246.22,350.85L246.22,350.85L246.23,350.85L251.65,347.29L251.65,347.29L251.66,347.29L257.14,345.38L257.14,345.38L257.15,345.38L263.38,344.89L263.38,344.89L263.39,344.89L272.96,346.25L272.96,346.25L272.97,346.26L283.11,349.04L283.11,349.05L294.14,352.76L294.14,352.76L294.15,352.77L314.36,360.29L314.36,360.29L314.37,360.3L329.47,366.12L329.48,366.13L344.01,371.76L344.02,371.77L358.82,377.49L358.83,377.5L374.52,383.52L374.53,383.53L391.48,389.97L391.49,389.98L410.16,396.99L410.17,397L431.33,404.84L431.35,404.85L456.46,414.01L456.48,414.02L473.01,419.97L473.03,419.98L486.56,424.8" style="vector-effect: non-scaling-stroke; fill: none; stroke: rgb(214, 39, 40); stroke-opacity: 1; stroke-width: 2px; opacity: 1;"/></g><g class="points"/><g class="text"/></g><g class="trace scatter trace7d0e58" style="stroke-miterlimit: 2; opacity: 1;"><g class="fills"/><g class="errorbars"/><g class="lines"><path class="js-line" d="M0,684L6.38,645.92L6.38,645.88L8.9,631.12L8.9,631.08L11.55,615.72L11.55,615.69L16.88,585.24L16.88,585.21L33.44,495.66L33.45,495.63L43.87,444.06L43.88,444.04L52.07,406.87L52.08,406.85L55.74,391.37L55.75,391.35L59.58,376.01L59.59,375.99L69.89,340.11L69.9,340.1L76.91,321.39L76.92,321.38L81.54,312.48L81.54,312.48L81.55,312.47L85.22,307.92L85.22,307.92L85.23,307.92L87.84,306.37L87.84,306.37L87.85,306.37L90.31,306.47L90.31,306.48L90.32,306.48L92.64,308.28L92.64,308.28L92.65,308.29L95.07,312.35L95.07,312.35L95.07,312.36L97.91,320.85L97.91,320.86L100.45,333.27L100.45,333.28L102.59,347.8L102.59,347.81L106.57,372.04L106.58,372.05L108.88,383.69L108.89,383.7L112.76,399.28L112.76,399.28L112.77,399.29L115.98,408.45L115.98,408.45L115.99,408.45L119.3,414.31L119.3,414.31L119.31,414.31L121.73,416.29L121.73,416.29L121.74,416.29L123.91,416.41L123.91,416.41L123.91,416.4L125.97,415.08L125.97,415.07L128.53,411.46L128.53,411.46L128.53,411.45L130.91,406.16L130.91,406.16L130.91,406.15L133.55,398.09L133.55,398.09L133.55,398.08L138.49,376.78L138.49,376.77L143.44,348.24L143.44,348.23L149.77,319.9L149.78,319.9L153.58,308.52L153.59,308.52L157.99,299.49L157.99,299.49L158,299.49L161.86,294.62L161.86,294.62L161.87,294.62L165.13,292.42L165.13,292.42L165.14,292.42L168.56,291.76L168.56,291.76L168.57,291.76L172.26,292.75L172.26,292.75L172.26,292.76L175.6,295L175.6,295L175.6,295.01L179,298.49L179,298.49L179,298.5L184.11,305.78L184.11,305.78L184.11,305.79L189.75,316.36L189.75,316.37L195.43,329.39L195.43,329.4L201.13,344.58L201.13,344.59L208.35,361.47L208.36,361.48L214.79,371.24L214.8,371.25L221.04,378.95L221.05,378.96L229.25,387.63L229.26,387.64L241.05,398.37L241.07,398.38L258.83,412.23L258.85,412.24L286.47,430.55L286.49,430.56L303.41,440.55L303.43,440.56L317.76,448.5L317.78,448.51L353.46,466.71L353.49,466.72L380.19,479.24L380.22,479.25L411.19,492.88L411.22,492.89L422.13,497.51L422.16,497.52L458.8,512.41L458.83,512.42L504.85,530.03L504.89,530.04L516.78,534.43L516.82,534.44L533.35,540.44L533.39,540.45L618.45,569.74L618.49,569.75L779.8,620.04L779.85,620.05L799.85,625.93L799.9,625.94L818.43,631.33L818.48,631.34L845.75,639.17L845.8,639.18L851.48,640.8" style="vector-effect: non-scaling-stroke; fill: none; stroke: rgb(148, 103, 189); stroke-opacity: 1; stroke-width: 2px; opacity: 1;"/></g><g class="points"/><g class="text"/></g><g class="trace scatter trace948955" style="stroke-miterlimit: 2; opacity: 1;"><g class="fills"/><g class="errorbars"/><g class="lines"><path class="js-line" d="M632.53,364.32L697.96,372.29L697.96,372.29L697.97,372.29L717.65,374.16L717.65,374.16L717.66,374.16L731.65,375.27L731.65,375.27L731.66,375.27L779.47,377.73L779.47,377.73L779.48,377.73L797.95,378.21L797.95,378.21L797.96,378.21L934.67,377.82L934.68,377.81L1058.53,378.37L1058.53,378.38L1093.19,379.13L1093.19,379.14L1122.75,379.89L1122.76,379.9L1152.36,380.65L1152.36,380.66L1190.88,381.41L1190.89,381.42L1216.4,381.6" style="vector-effect: non-scaling-stroke; fill: none; stroke: rgb(140, 86, 75); stroke-opacity: 1; stroke-width: 2px; opacity: 1;"/></g><g class="points"/><g class="text"/></g><g class="trace scatter tracef5d6c1" style="stroke-miterlimit: 2; opacity: 1;"><g class="fills"/><g class="errorbars"/><g class="lines"><path class="js-line" d="M632.53,364.32L705.51,372.96L814.99,394.56L924.46,364.32L1070.43,381.6L1216.4,381.6" style="vector-effect: non-scaling-stroke; fill: none; stroke: rgb(227, 119, 194); stroke-opacity: 1; stroke-width: 2px; opacity: 1; stroke-dasharray: 9px, 9px;"/></g><g class="points"/><g class="text"/></g><g class="trace scatter tracebfbfe8" style="stroke-miterlimit: 2; opacity: 1;"><g class="fills"/><g class="errorbars"/><g class="lines"/><g class="points"><path class="point" transform="translate(632.53,364.32)" d="M5,0A5,5 0 1,1 0,-5A5,5 0 0,1 5,0Z" style="opacity: 1; stroke-width: 0px; fill: rgb(127, 127, 127); fill-opacity: 1;"/><path class="point" transform="translate(705.51,372.96)" d="M5,0A5,5 0 1,1 0,-5A5,5 0 0,1 5,0Z" style="opacity: 1; stroke-width: 0px; fill: rgb(127, 127, 127); fill-opacity: 1;"/><path class="point" transform="translate(814.99,394.56)" d="M5,0A5,5 0 1,1 0,-5A5,5 0 0,1 5,0Z" style="opacity: 1; stroke-width: 0px; fill: rgb(127, 127, 127); fill-opacity: 1;"/><path class="point" transform="translate(924.46,364.32)" d="M5,0A5,5 0 1,1 0,-5A5,5 0 0,1 5,0Z" style="opacity: 1; stroke-width: 0px; fill: rgb(127, 127, 127); fill-opacity: 1;"/><path class="point" transform="translate(1070.43,381.6)" d="M5,0A5,5 0 1,1 0,-5A5,5 0 0,1 5,0Z" style="opacity: 1; stroke-width: 0px; fill: rgb(127, 127, 127); fill-opacity: 1;"/><path class="point" transform="translate(1216.4,381.6)" d="M5,0A5,5 0 1,1 0,-5A5,5 0 0,1 5,0Z" style="opacity: 1; stroke-width: 0px; fill: rgb(127, 127, 127); fill-opacity: 1;"/></g><g class="text"/></g><g class="trace scatter trace819adc" style="stroke-miterlimit: 2; opacity: 1;"><g class="fills"/><g class="errorbars"/><g class="lines"><path class="js-line" d="M486.56,424.8L506.28,430.63L506.28,430.63L506.29,430.63L517.51,432.85L517.51,432.85L517.52,432.85L527.79,434.14L527.79,434.14L527.8,434.14L537.59,434.69L537.59,434.69L537.6,434.69L555,433.97L555,433.96L565.06,432.55L565.06,432.54L574.7,430.51L574.7,430.5L584.46,427.79L584.46,427.78L594.67,424.29L594.67,424.29L594.68,424.28L605.92,419.75L605.92,419.74L625.55,410.53L625.55,410.52L636.12,405.18L636.12,405.18L636.12,405.17L646.32,399.99L646.32,399.99L646.32,399.98L659.65,393.46L659.65,393.46L659.65,393.45L686.4,382.58L686.4,382.58L686.41,382.58L700.63,378.62L700.63,378.62L700.64,378.62L710.55,376.75L710.55,376.75L710.56,376.75L726.61,375.34L726.61,375.34L726.62,375.34L736.35,375.44L736.35,375.44L736.36,375.45L745.77,376.2L745.77,376.21L755.32,377.59L755.32,377.59L755.33,377.6L765.62,379.72L765.62,379.72L765.63,379.73L777.29,382.82L777.29,382.82L777.3,382.83L791.9,387.49L791.9,387.49L791.91,387.5L829.51,399.61L829.51,399.61L829.52,399.61L837.4,400.43L837.4,400.43L837.41,400.43L842.47,399.68L842.47,399.68L842.47,399.67L845.78,398.02L845.78,398.02L845.79,398.01L848.37,395.32L848.37,395.31L850.49,390.47L850.49,390.47L850.49,390.46L851.42,384.09L851.42,384.09L851.42,384.08L851.48,381.6L851.48,381.6" style="vector-effect: non-scaling-stroke; fill: none; stroke: rgb(188, 189, 34); stroke-opacity: 1; stroke-width: 2px; opacity: 1;"/></g><g class="points"/><g class="text"/></g><g class="trace scatter trace0eb14c" style="stroke-miterlimit: 2; opacity: 1;"><g class="fills"/><g class="errorbars"/><g class="lines"><path class="js-line" d="M851.48,640.8L796.95,545.37L796.93,545.34L765.23,491.37L765.21,491.34L750.69,467.05L750.67,467.02L735.58,442.11L735.56,442.09L723.2,421.96L723.18,421.93L688.8,367.47L688.78,367.45L658.95,322.4L658.93,322.39L646.02,303.68L646,303.66L613.52,259.36L613.5,259.34L603.83,247.09L603.82,247.08L593.71,234.85L593.7,234.84L578.64,217.93L578.63,217.92L565.95,205.18L565.94,205.18L556.63,196.93L556.62,196.93L545.69,188.78L545.68,188.78L539.53,185.1L539.53,185.1L539.52,185.1L533.59,182.33L533.59,182.33L533.58,182.33L527.16,180.39L527.16,180.39L527.15,180.39L520.69,179.85L520.69,179.86L516.02,180.61L516.02,180.61L516.02,180.62L511.35,182.63L511.35,182.64L506.61,186.42L506.61,186.42L506.61,186.43L502.67,191.42L502.67,191.42L502.67,191.43L499.88,196.39L499.88,196.39L499.88,196.4L496.46,204.9L496.46,204.9L496.46,204.91L493.17,217.13L493.17,217.13L493.17,217.14L491.36,226.83L491.36,226.83L491.36,226.84L489.77,238.61L489.77,238.61L489.77,238.62L488.27,255.53L488.27,255.54L486.95,286.48L486.95,286.49L486.69,301.66L486.69,301.67L485.94,399.01L485.93,399.02L485.18,416.14L485.17,416.15L484.42,427.13L484.41,427.14L482.46,445.32L482.45,445.32L479.56,461.45L479.55,461.45L476.77,471.58L476.76,471.58L474.17,478.41L474.16,478.41L470.21,485.75L470.21,485.75L470.2,485.75L466.43,490.47L466.42,490.47L461.54,494.3L461.54,494.3L461.53,494.3L457.01,496.21L457.01,496.21L457,496.21L451.29,496.97L451.29,496.97L451.28,496.97L445.06,496.22L445.06,496.21L438.9,494.22L438.9,494.22L438.89,494.21L431.08,490.29L431.08,490.29L431.07,490.28L422.21,484.37L422.21,484.36L410.3,474.5L410.29,474.49L401.98,466.59L401.97,466.58L385.97,449.53L385.97,449.52L379.1,441.59L379.09,441.57L369.69,430.21L369.68,430.19L354.69,411.04L354.68,411.02L326.36,372.06L326.35,372.04L292.24,321.51L292.23,321.48L279.03,301.11L279.02,301.09L244.08,245.37L244.07,245.34L237.06,233.91L237.05,233.88L222.53,209.92L222.52,209.89L210.42,189.69L210.41,189.66L202.99,177.18L202.98,177.15L195.92,165.21L195.9,165.17L172.52,125.13L172.5,125.1L121.64,36" style="vector-effect: non-scaling-stroke; fill: none; stroke: rgb(23, 190, 207); stroke-opacity: 1; stroke-width: 2px; opacity: 1;"/></g><g class="points"/><g class="text"/></g></g></g><g class="overplot"/><path class="xlines-above crisp" d="M0,0" style="fill: none;"/><path class="ylines-above crisp" d="M0,0" style="fill: none;"/><g class="overlines-above"/><g class="xaxislayer-above"><g class="xtick"><text text-anchor="middle" x="0" y="833" transform="translate(201.64,0)" style="font-family: 'Open Sans', verdana, arial, sans-serif; font-size: 12px; fill: rgb(68, 68, 68); fill-opacity: 1; white-space: pre;">0</text></g><g class="xtick"><text text-anchor="middle" x="0" y="833" transform="translate(347.61,0)" style="font-family: 'Open Sans', verdana, arial, sans-serif; font-size: 12px; fill: rgb(68, 68, 68); fill-opacity: 1; white-space: pre;">1</text></g><g class="xtick"><text text-anchor="middle" x="0" y="833" transform="translate(493.58,0)" style="font-family: 'Open Sans', verdana, arial, sans-serif; font-size: 12px; fill: rgb(68, 68, 68); fill-opacity: 1; white-space: pre;">2</text></g><g class="xtick"><text text-anchor="middle" x="0" y="833" transform="translate(639.54,0)" style="font-family: 'Open Sans', verdana, arial, sans-serif; font-size: 12px; fill: rgb(68, 68, 68); fill-opacity: 1; white-space: pre;">3</text></g><g class="xtick"><text text-anchor="middle" x="0" y="833" transform="translate(785.51,0)" style="font-family: 'Open Sans', verdana, arial, sans-serif; font-size: 12px; fill: rgb(68, 68, 68); fill-opacity: 1; white-space: pre;">4</text></g><g class="xtick"><text text-anchor="middle" x="0" y="833" transform="translate(931.48,0)" style="font-family: 'Open Sans', verdana, arial, sans-serif; font-size: 12px; fill: rgb(68, 68, 68); fill-opacity: 1; white-space: pre;">5</text></g><g class="xtick"><text text-anchor="middle" x="0" y="833" transform="translate(1077.45,0)" style="font-family: 'Open Sans', verdana, arial, sans-serif; font-size: 12px; fill: rgb(68, 68, 68); fill-opacity: 1; white-space: pre;">6</text></g><g class="xtick"><text text-anchor="middle" x="0" y="833" transform="translate(1223.42,0)" style="font-family: 'Open Sans', verdana, arial, sans-serif; font-size: 12px; fill: rgb(68, 68, 68); fill-opacity: 1; white-space: pre;">7</text></g></g><g class="yaxislayer-above"><g class="ytick"><text text-anchor="end" x="79" y="4.199999999999999" transform="translate(0,740.8)" style="font-family: 'Open Sans', verdana, arial, sans-serif; font-size: 12px; fill: rgb(68, 68, 68); fill-opacity: 1; white-space: pre;">−15</text></g><g class="ytick"><text text-anchor="end" x="79" y="4.199999999999999" transform="translate(0,654.4)" style="font-family: 'Open Sans', verdana, arial, sans-serif; font-size: 12px; fill: rgb(68, 68, 68); fill-opacity: 1; white-space: pre;">−10</text></g><g class="ytick"><text text-anchor="end" x="79" y="4.199999999999999" transform="translate(0,568)" style="font-family: 'Open Sans', verdana, arial, sans-serif; font-size: 12px; fill: rgb(68, 68, 68); fill-opacity: 1; white-space: pre;">−5</text></g><g class="ytick"><text text-anchor="end" x="79" y="4.199999999999999" transform="translate(0,481.6)" style="font-family: 'Open Sans', verdana, arial, sans-serif; font-size: 12px; fill: rgb(68, 68, 68); fill-opacity: 1; white-space: pre;">0</text></g><g class="ytick"><text text-anchor="end" x="79" y="4.199999999999999" transform="translate(0,395.2)" style="font-family: 'Open Sans', verdana, arial, sans-serif; font-size: 12px; fill: rgb(68, 68, 68); fill-opacity: 1; white-space: pre;">5</text></g><g class="ytick"><text text-anchor="end" x="79" y="4.199999999999999" transform="translate(0,308.8)" style="font-family: 'Open Sans', verdana, arial, sans-serif; font-size: 12px; fill: rgb(68, 68, 68); fill-opacity: 1; white-space: pre;">10</text></g><g class="ytick"><text text-anchor="end" x="79" y="4.199999999999999" transform="translate(0,222.4)" style="font-family: 'Open Sans', verdana, arial, sans-serif; font-size: 12px; fill: rgb(68, 68, 68); fill-opacity: 1; white-space: pre;">15</text></g><g class="ytick"><text text-anchor="end" x="79" y="4.199999999999999" transform="translate(0,136)" style="font-family: 'Open Sans', verdana, arial, sans-serif; font-size: 12px; fill: rgb(68, 68, 68); fill-opacity: 1; white-space: pre;">20</text></g></g><g class="overaxes-above"/></g></g><g class="polarlayer"/><g class="ternarylayer"/><g class="geolayer"/><g class="funnelarealayer"/><g class="pielayer"/><g class="treemaplayer"/><g class="sunburstlayer"/><g class="glimages"/><defs id="topdefs-5d8262"><g class="clips"/><clipPath id="legend5d8262"><rect width="195" height="200" x="0" y="0"/></clipPath></defs><g class="layer-above"><g class="imagelayer"/><g class="shapelayer"/></g><g class="infolayer"><g class="legend" pointer-events="all" transform="translate(1392.74,100)"><rect class="bg" shape-rendering="crispEdges" style="stroke: rgb(68, 68, 68); stroke-opacity: 1; fill: rgb(255, 255, 255); fill-opacity: 1; stroke-width: 0px;" width="195" height="200" x="0" y="0"/><g class="scrollbox" transform="" clip-path="url('#legend5d8262')"><g class="groups"><g class="traces" transform="translate(0,14.5)" style="opacity: 1;"><text class="legendtext" text-anchor="start" x="40" y="4.680000000000001" style="font-family: 'Open Sans', verdana, arial, sans-serif; font-size: 12px; fill: rgb(68, 68, 68); fill-opacity: 1; white-space: pre;">B-Spline Curve</text><g class="layers" style="opacity: 1;"><g class="legendfill"/><g class="legendlines"><path class="js-line" d="M5,0h30" style="fill: none; stroke: rgb(31, 119, 180); stroke-opacity: 1; stroke-width: 2px;"/></g><g class="legendsymbols"><g class="legendpoints"/></g></g><rect class="legendtoggle" x="0" y="-9.5" width="190" height="19" style="fill: rgb(0, 0, 0); fill-opacity: 0;"/></g><g class="traces" transform="translate(0,33.5)" style="opacity: 1;"><text class="legendtext" text-anchor="start" x="40" y="4.680000000000001" style="font-family: 'Open Sans', verdana, arial, sans-serif; font-size: 12px; fill: rgb(68, 68, 68); fill-opacity: 1; white-space: pre;">Control Polygon</text><g class="layers" style="opacity: 1;"><g class="legendfill"/><g class="legendlines"><path class="js-line" d="M5,0h30" style="fill: none; stroke: rgb(255, 127, 14); stroke-opacity: 1; stroke-dasharray: 9px, 9px; stroke-width: 2px;"/></g><g class="legendsymbols"><g class="legendpoints"/></g></g><rect class="legendtoggle" x="0" y="-9.5" width="190" height="19" style="fill: rgb(0, 0, 0); fill-opacity: 0;"/></g><g class="traces" transform="translate(0,52.5)" style="opacity: 1;"><text class="legendtext" text-anchor="start" x="40" y="4.680000000000001" style="font-family: 'Open Sans', verdana, arial, sans-serif; font-size: 12px; fill: rgb(68, 68, 68); fill-opacity: 1; white-space: pre;">Control Points</text><g class="layers" style="opacity: 1;"><g class="legendfill"/><g class="legendlines"/><g class="legendsymbols"><g class="legendpoints"><path class="scatterpts" transform="translate(20,0)" d="M5,0A5,5 0 1,1 0,-5A5,5 0 0,1 5,0Z" style="opacity: 1; stroke-width: 0px; fill: rgb(44, 160, 44); fill-opacity: 1;"/></g></g></g><rect class="legendtoggle" x="0" y="-9.5" width="190" height="19" style="fill: rgb(0, 0, 0); fill-opacity: 0;"/></g><g class="traces" transform="translate(0,71.5)" style="opacity: 1;"><text class="legendtext" text-anchor="start" x="40" y="4.680000000000001" style="font-family: 'Open Sans', verdana, arial, sans-serif; font-size: 12px; fill: rgb(68, 68, 68); fill-opacity: 1; white-space: pre;">B-Spline First Derivative</text><g class="layers" style="opacity: 1;"><g class="legendfill"/><g class="legendlines"><path class="js-line" d="M5,0h30" style="fill: none; stroke: rgb(214, 39, 40); stroke-opacity: 1; stroke-width: 2px;"/></g><g class="legendsymbols"><g class="legendpoints"/></g></g><rect class="legendtoggle" x="0" y="-9.5" width="190" height="19" style="fill: rgb(0, 0, 0); fill-opacity: 0;"/></g><g class="traces" transform="translate(0,90.5)" style="opacity: 1;"><text class="legendtext" text-anchor="start" x="40" y="4.680000000000001" style="font-family: 'Open Sans', verdana, arial, sans-serif; font-size: 12px; fill: rgb(68, 68, 68); fill-opacity: 1; white-space: pre;">B-Spline Second Derivative</text><g class="layers" style="opacity: 1;"><g class="legendfill"/><g class="legendlines"><path class="js-line" d="M5,0h30" style="fill: none; stroke: rgb(148, 103, 189); stroke-opacity: 1; stroke-width: 2px;"/></g><g class="legendsymbols"><g class="legendpoints"/></g></g><rect class="legendtoggle" x="0" y="-9.5" width="190" height="19" style="fill: rgb(0, 0, 0); fill-opacity: 0;"/></g><g class="traces" transform="translate(0,109.5)" style="opacity: 1;"><text class="legendtext" text-anchor="start" x="40" y="4.680000000000001" style="font-family: 'Open Sans', verdana, arial, sans-serif; font-size: 12px; fill: rgb(68, 68, 68); fill-opacity: 1; white-space: pre;">Bezier Curve</text><g class="layers" style="opacity: 1;"><g class="legendfill"/><g class="legendlines"><path class="js-line" d="M5,0h30" style="fill: none; stroke: rgb(140, 86, 75); stroke-opacity: 1; stroke-width: 2px;"/></g><g class="legendsymbols"><g class="legendpoints"/></g></g><rect class="legendtoggle" x="0" y="-9.5" width="190" height="19" style="fill: rgb(0, 0, 0); fill-opacity: 0;"/></g><g class="traces" transform="translate(0,128.5)" style="opacity: 1;"><text class="legendtext" text-anchor="start" x="40" y="4.680000000000001" style="font-family: 'Open Sans', verdana, arial, sans-serif; font-size: 12px; fill: rgb(68, 68, 68); fill-opacity: 1; white-space: pre;">Control Polygon</text><g class="layers" style="opacity: 1;"><g class="legendfill"/><g class="legendlines"><path class="js-line" d="M5,0h30" style="fill: none; stroke: rgb(227, 119, 194); stroke-opacity: 1; stroke-dasharray: 9px, 9px; stroke-width: 2px;"/></g><g class="legendsymbols"><g class="legendpoints"/></g></g><rect class="legendtoggle" x="0" y="-9.5" width="190" height="19" style="fill: rgb(0, 0, 0); fill-opacity: 0;"/></g><g class="traces" transform="translate(0,147.5)" style="opacity: 1;"><text class="legendtext" text-anchor="start" x="40" y="4.680000000000001" style="font-family: 'Open Sans', verdana, arial, sans-serif; font-size: 12px; fill: rgb(68, 68, 68); fill-opacity: 1; white-space: pre;">Control Points</text><g class="layers" style="opacity: 1;"><g class="legendfill"/><g class="legendlines"/><g class="legendsymbols"><g class="legendpoints"><path class="scatterpts" transform="translate(20,0)" d="M5,0A5,5 0 1,1 0,-5A5,5 0 0,1 5,0Z" style="opacity: 1; stroke-width: 0px; fill: rgb(127, 127, 127); fill-opacity: 1;"/></g></g></g><rect class="legendtoggle" x="0" y="-9.5" width="190" height="19" style="fill: rgb(0, 0, 0); fill-opacity: 0;"/></g><g class="traces" transform="translate(0,166.5)" style="opacity: 1;"><text class="legendtext" text-anchor="start" x="40" y="4.680000000000001" style="font-family: 'Open Sans', verdana, arial, sans-serif; font-size: 12px; fill: rgb(68, 68, 68); fill-opacity: 1; white-space: pre;">Bezier First Derivative</text><g class="layers" style="opacity: 1;"><g class="legendfill"/><g class="legendlines"><path class="js-line" d="M5,0h30" style="fill: none; stroke: rgb(188, 189, 34); stroke-opacity: 1; stroke-width: 2px;"/></g><g class="legendsymbols"><g class="legendpoints"/></g></g><rect class="legendtoggle" x="0" y="-9.5" width="190" height="19" style="fill: rgb(0, 0, 0); fill-opacity: 0;"/></g><g class="traces" transform="translate(0,185.5)" style="opacity: 1;"><text class="legendtext" text-anchor="start" x="40" y="4.680000000000001" style="font-family: 'Open Sans', verdana, arial, sans-serif; font-size: 12px; fill: rgb(68, 68, 68); fill-opacity: 1; white-space: pre;">Bezier Second Derivative</text><g class="layers" style="opacity: 1;"><g class="legendfill"/><g class="legendlines"><path class="js-line" d="M5,0h30" style="fill: none; stroke: rgb(23, 190, 207); stroke-opacity: 1; stroke-width: 2px;"/></g><g class="legendsymbols"><g class="legendpoints"/></g></g><rect class="legendtoggle" x="0" y="-9.5" width="190" height="19" style="fill: rgb(0, 0, 0); fill-opacity: 0;"/></g></g></g><rect class="scrollbar" rx="20" ry="3" width="0" height="0" style="fill: rgb(128, 139, 164); fill-opacity: 1;" x="0" y="0"/></g><g class="g-gtitle"><text class="gtitle" x="800" y="50" text-anchor="middle" dy="0em" style="font-family: 'Open Sans', verdana, arial, sans-serif; font-size: 17px; fill: rgb(68, 68, 68); opacity: 1; font-weight: normal; white-space: pre;">C2 continuity</text></g><g class="g-xtitle"/><g class="g-ytitle"/></g></svg>