<svg class="main-svg" xmlns="http://www.w3.org/2000/svg" xmlns:xlink="http://www.w3.org/1999/xlink" width="800" height="600" style="" viewBox="0 0 800 600"><rect x="0" y="0" width="800" height="600" style="fill: rgb(255, 255, 255); fill-opacity: 1;"/><defs id="defs-10fba4"><g class="clips"><clipPath id="clip10fba4xyplot" class="plotclip"><rect width="522" height="420"/></clipPath><clipPath class="axesclip" id="clip10fba4x"><rect x="80" y="0" width="522" height="600"/></clipPath><clipPath class="axesclip" id="clip10fba4y"><rect x="0" y="100" width="800" height="420"/></clipPath><clipPath class="axesclip" id="clip10fba4xy"><rect x="80" y="100" width="522" height="420"/></clipPath></g><g class="gradients"/></defs><g class="bglayer"/><g class="layer-below"><g class="imagelayer"/><g class="shapelayer"/></g><g class="cartesianlayer"><g class="subplot xy"><g class="layer-subplot"><g class="shapelayer"/><g class="imagelayer"/></g><g class="gridlayer"><g class="x"><path class="xgrid crisp" transform="translate(145.05,0)" d="M0,100v420" style="stroke: rgb(238, 238, 238); stroke-opacity: 1; stroke-width: 1px;"/><path class="xgrid crisp" transform="translate(232.09,0)" d="M0,100v420" style="stroke: rgb(238, 238, 238); stroke-opacity: 1; stroke-width: 1px;"/><path class="xgrid crisp" transform="translate(319.13,0)" d="M0,100v420" style="stroke: rgb(238, 238, 238); stroke-opacity: 1; stroke-width: 1px;"/><path class="xgrid crisp" transform="translate(406.17,0)" d="M0,100v420" style="stroke: rgb(238, 238, 238); stroke-opacity: 1; stroke-width: 1px;"/><path class="xgrid crisp" transform="translate(493.2,0)" d="M0,100v420" style="stroke: rgb(238, 238, 238); stroke-opacity: 1; stroke-width: 1px;"/><path class="xgrid crisp" transform="translate(580.24,0)" d="M0,100v420" style="stroke: rgb(238, 238, 238); stroke-opacity: 1; stroke-width: 1px;"/></g><g class="y"><path class="ygrid crisp" transform="translate(0,499)" d="M80,0h522" style="stroke: rgb(238, 238, 238); stroke-opacity: 1; stroke-width: 1px;"/><path class="ygrid crisp" transform="translate(0,444.09)" d="M80,0h522" style="stroke: rgb(238, 238, 238); stroke-opacity: 1; stroke-width: 1px;"/><path class="ygrid crisp" transform="translate(0,389.17)" d="M80,0h522" style="stroke: rgb(238, 238, 238); stroke-opacity: 1; stroke-width: 1px;"/><path class="ygrid crisp" transform="translate(0,334.26)" d="M80,0h522" style="stroke: rgb(238, 238, 238); stroke-opacity: 1; stroke-width: 1px;"/><path class="ygrid crisp" transform="translate(0,279.35)" d="M80,0h522" style="stroke: rgb(238, 238, 238); stroke-opacity: 1; stroke-width: 1px;"/><path class="ygrid crisp" transform="translate(0,169.51999999999998)" d="M80,0h522" style="stroke: rgb(238, 238, 238); stroke-opacity: 1; stroke-width: 1px;"/><path class="ygrid crisp" transform="translate(0,114.61)" d="M80,0h522" style="stroke: rgb(238, 238, 238); stroke-opacity: 1; stroke-width: 1px;"/></g></g><g class="zerolinelayer"><path class="yzl zl crisp" transform="translate(0,224.44)" d="M80,0h522" style="stroke: rgb(68, 68, 68); stroke-opacity: 1; stroke-width: 1px;"/></g><path class="xlines-below"/><path class="ylines-below"/><g class="overlines-below"/><g class="xaxislayer-below"/><g class="yaxislayer-below"/><g class="overaxes-below"/><g class="plot" transform="translate(80,100)" clip-path="url('#clip10fba4xyplot')"><g class="scatterlayer mlayer"><g class="trace scatter trace369c17" style="stroke-miterlimit: 2; opacity: 1;"><g class="fills"/><g class="errorbars"/><g class="lines"><path class="js-line" d="M32.41,21.47L29.83,54.51L29.82,54.54L26.55,92.49L26.54,92.52L24.63,112.3L24.62,112.32L22.68,130.27L22.67,130.29L21.15,142.64L21.14,142.65L19.74,152.49L19.73,152.5L17.45,164.75L17.45,164.75L17.44,164.76L15.46,170.88L15.45,170.88L14.02,172.07L14.02,172.07L14.01,172.07L12.92,170.8L12.92,170.8L12.92,170.79L11.65,166.58L11.65,166.58L11.65,166.57L10.35,158.79L10.35,158.78L8.04,135.86L8.04,135.86L8.04,135.85L5.72,112.24L5.71,112.24L4.49,108.71L4.49,108.71L4.48,108.71L3.83,109.99L3.83,109.99L3.83,110L2.78,116.82L2.78,116.82L2.78,116.83L1.5,132.06L1.5,132.06L1.5,132.07L0.55,141.3L0.25,138.78L0.25,138.77L0.75,89.69L0.75,89.69L0.76,89.69L1.64,85.59L1.77,85.67L1.78,85.67L2.59,87.99L2.59,87.99L2.59,88L4.29,97.26L4.29,97.26L4.29,97.27L10.39,126.2L10.39,126.2L10.4,126.2L12.99,131.63L12.99,131.63L13,131.63L15.45,134.2L15.45,134.2L15.46,134.2L18.15,134.99L18.15,134.99L18.16,134.99L22.87,135.74L22.87,135.74L22.87,135.75L26.28,138.01L26.28,138.02L30.44,142.46L30.44,142.46L30.45,142.47L38.32,154.14L38.32,154.15L45.74,167.62L45.74,167.63L60.83,199.37L60.83,199.39L66.71,212.81L66.71,212.83L71.44,223.95L71.44,223.97L78.01,239.81L78.01,239.84L83.42,253.19L83.42,253.22L86.81,261.72" style="vector-effect: non-scaling-stroke; fill: none; stroke: rgb(31, 119, 180); stroke-opacity: 1; stroke-width: 2px; opacity: 1;"/></g><g class="points"/><g class="text"/></g><g class="trace scatter tracea8d3a4" style="stroke-miterlimit: 2; opacity: 1;"><g class="fills"/><g class="errorbars"/><g class="lines"><path class="js-line" d="M86.81,261.72L91.28,270.33L91.28,270.33L91.29,270.33L94.5,273.67L94.5,273.67L94.51,273.67L97.4,274.95L97.4,274.95L97.41,274.95L100.27,274.76L100.27,274.75L103.11,273.22L103.11,273.22L103.11,273.21L106.04,270.27L106.04,270.27L106.04,270.26L109.62,264.81L109.62,264.81L109.62,264.8L113.43,256.63L113.43,256.63L113.43,256.62L117.13,246.1L117.13,246.1L117.13,246.09L120.68,233.08L120.68,233.08L120.68,233.07L123.8,218.47L123.8,218.46L126.98,198.76L126.98,198.76L126.98,198.75L129.88,171.41L129.88,171.4L131.36,138.47L131.36,138.46L130.65,105.63L130.64,105.62L129.89,95L129.88,94.99L127.99,77.74L127.99,77.74L127.98,77.73L124.75,59.05L124.75,59.05L124.74,59.04L121.3,45.6L121.3,45.6L121.29,45.59L118.13,36.62L118.13,36.62L118.12,36.62L115.36,30.69L115.36,30.69L115.35,30.69L111.8,25.24L111.8,25.24L111.79,25.24L108.03,21.88L108.03,21.88L108.02,21.88L105.17,21L105.17,21L105.16,21L102.36,21.75L102.36,21.75L102.36,21.76L99.87,24.16L99.87,24.16L99.86,24.17L97.48,28.91L97.48,28.91L97.48,28.92L96.01,34.25L96.01,34.25L96.01,34.26L94.79,44.15L94.79,44.15L94.79,44.16L94.77,55.67L94.77,55.68L96.68,73.66L96.69,73.67L99.11,86.22L99.11,86.22L99.12,86.23L102.56,99.66L102.57,99.67L107.19,114.12L107.2,114.13L113.07,129.39L113.08,129.4L123.24,151.27L123.25,151.28L132.46,168.03L132.47,168.04L142.46,184.03L142.47,184.04L150.42,195.54L150.43,195.55L157.06,204.48L157.07,204.49L169.76,220.17L169.77,220.18L183.21,235.14L183.22,235.15L196.85,248.92L196.87,248.93L204.34,255.97L204.35,255.98L224.12,273.1L224.14,273.11L241.44,286.56L241.46,286.57L257.42,297.91L257.44,297.92L272.75,307.94L272.77,307.95L284.08,314.87L284.1,314.88L317.58,333.25L317.6,333.26L335.15,341.77L335.17,341.78L351.3,349.01L351.33,349.02L367.42,355.71L367.45,355.71L378.24,359.92L378.27,359.93L411.49,371.61L411.52,371.61L438.24,379.74L438.27,379.74L457.2,384.88L457.23,384.88L469.81,388.03L469.83,388.03L510.41,396.84L510.44,396.84L522,399" style="vector-effect: non-scaling-stroke; fill: none; stroke: rgb(255, 127, 14); stroke-opacity: 1; stroke-width: 2px; opacity: 1;"/></g><g class="points"/><g class="text"/></g></g></g><g class="overplot"/><path class="xlines-above crisp" d="M0,0" style="fill: none;"/><path class="ylines-above crisp" d="M0,0" style="fill: none;"/><g class="overlines-above"/><g class="xaxislayer-above"><g class="xtick"><text text-anchor="middle" x="0" y="533" transform="translate(145.05,0)" style="font-family: 'Open Sans', verdana, arial, sans-serif; font-size: 12px; fill: rgb(68, 68, 68); fill-opacity: 1; white-space: pre;">2</text></g><g class="xtick"><text text-anchor="middle" x="0" y="533" transform="translate(232.09,0)" style="font-family: 'Open Sans', verdana, arial, sans-serif; font-size: 12px; fill: rgb(68, 68, 68); fill-opacity: 1; white-space: pre;">4</text></g><g class="xtick"><text text-anchor="middle" x="0" y="533" transform="translate(319.13,0)" style="font-family: 'Open Sans', verdana, arial, sans-serif; font-size: 12px; fill: rgb(68, 68, 68); fill-opacity: 1; white-space: pre;">6</text></g><g class="xtick"><text text-anchor="middle" x="0" y="533" transform="translate(406.17,0)" style="font-family: 'Open Sans', verdana, arial, sans-serif; font-size: 12px; fill: rgb(68, 68, 68); fill-opacity: 1; white-space: pre;">8</text></g><g class="xtick"><text text-anchor="middle" x="0" y="533" transform="translate(493.2,0)" style="font-family: 'Open Sans', verdana, arial, sans-serif; font-size: 12px; fill: rgb(68, 68, 68); fill-opacity: 1; white-space: pre;">10</text></g><g class="xtick"><text text-anchor="middle" x="0" y="533" transform="translate(580.24,0)" style="font-family: 'Open Sans', verdana, arial, sans-serif; font-size: 12px; fill: rgb(68, 68, 68); fill-opacity: 1; white-space: pre;">12</text></g></g><g class="yaxislayer-above"><g class="ytick"><text text-anchor="end" x="79" y="4.199999999999999" transform="translate(0,499)" style="font-family: 'Open Sans', verdana, arial, sans-serif; font-size: 12px; fill: rgb(68, 68, 68); fill-opacity: 1; white-space: pre;">−10</text></g><g class="ytick"><text text-anchor="end" x="79" y="4.199999999999999" transform="translate(0,444.09)" style="font-family: 'Open Sans', verdana, arial, sans-serif; font-size: 12px; fill: rgb(68, 68, 68); fill-opacity: 1; white-space: pre;">−8</text></g><g class="ytick"><text text-anchor="end" x="79" y="4.199999999999999" transform="translate(0,389.17)" style="font-family: 'Open Sans', verdana, arial, sans-serif; font-size: 12px; fill: rgb(68, 68, 68); fill-opacity: 1; white-space: pre;">−6</text></g><g class="ytick"><text text-anchor="end" x="79" y="4.199999999999999" transform="translate(0,334.26)" style="font-family: 'Open Sans', verdana, arial, sans-serif; font-size: 12px; fill: rgb(68, 68, 68); fill-opacity: 1; white-space: pre;">−4</text></g><g class="ytick"><text text-anchor="end" x="79" y="4.199999999999999" transform="translate(0,279.35)" style="font-family: 'Open Sans', verdana, arial, sans-serif; font-size: 12px; fill: rgb(68, 68, 68); fill-opacity: 1; white-space: pre;">−2</text></g><g class="ytick"><text text-anchor="end" x="79" y="4.199999999999999" transform="translate(0,224.44)" style="font-family: 'Open Sans', verdana, arial, sans-serif; font-size: 12px; fill: rgb(68, 68, 68); fill-opacity: 1; white-space: pre;">0</text></g><g class="ytick"><text text-anchor="end" x="79" y="4.199999999999999" transform="translate(0,169.51999999999998)" style="font-family: 'Open Sans', verdana, arial, sans-serif; font-size: 12px; fill: rgb(68, 68, 68); fill-opacity: 1; white-space: pre;">2</text></g><g class="ytick"><text text-anchor="end" x="79" y="4.199999999999999" transform="translate(0,114.61)" style="font-family: 'Open Sans', verdana, arial, sans-serif; font-size: 12px; fill: rgb(68, 68, 68); fill-opacity: 1; white-space: pre;">4</text></g></g><g class="overaxes-above"/></g></g><g class="polarlayer"/><g class="ternarylayer"/><g class="geolayer"/><g class="funnelarealayer"/><g class="pielayer"/><g class="treemaplayer"/><g class="sunburstlayer"/><g class="glimages"/><defs id="topdefs-10fba4"><g class="clips"/><clipPath id="legend10fba4"><rect width="176" height="48" x="0" y="0"/></clipPath></defs><g class="layer-above"><g class="imagelayer"/><g class="shapelayer"/></g><g class="infolayer"><g class="legend" pointer-events="all" transform="translate(612.44,100)"><rect class="bg" shape-rendering="crispEdges" style="stroke: rgb(68, 68, 68); stroke-opacity: 1; fill: rgb(255, 255, 255); fill-opacity: 1; stroke-width: 0px;" width="176" height="48" x="0" y="0"/><g class="scrollbox" transform="" clip-path="url('#legend10fba4')"><g class="groups"><g class="traces" transform="translate(0,14.5)" style="opacity: 1;"><text class="legendtext" text-anchor="start" x="40" y="4.680000000000001" style="font-family: 'Open Sans', verdana, arial, sans-serif; font-size: 12px; fill: rgb(68, 68, 68); fill-opacity: 1; white-space: pre;">B-Spline First Derivative</text><g class="layers" style="opacity: 1;"><g class="legendfill"/><g class="legendlines"><path class="js-line" d="M5,0h30" style="fill: none; stroke: rgb(31, 119, 180); stroke-opacity: 1; stroke-width: 2px;"/></g><g class="legendsymbols"><g class="legendpoints"/></g></g><rect class="legendtoggle" x="0" y="-9.5" width="171" height="19" style="fill: rgb(0, 0, 0); fill-opacity: 0;"/></g><g class="traces" transform="translate(0,33.5)" style="opacity: 1;"><text class="legendtext" text-anchor="start" x="40" y="4.680000000000001" style="font-family: 'Open Sans', verdana, arial, sans-serif; font-size: 12px; fill: rgb(68, 68, 68); fill-opacity: 1; white-space: pre;">Bezier First Derivative</text><g class="layers" style="opacity: 1;"><g class="legendfill"/><g class="legendlines"><path class="js-line" d="M5,0h30" style="fill: none; stroke: rgb(255, 127, 14); stroke-opacity: 1; stroke-width: 2px;"/></g><g class="legendsymbols"><g class="legendpoints"/></g></g><rect class="legendtoggle" x="0" y="-9.5" width="171" height="19" style="fill: rgb(0, 0, 0); fill-opacity: 0;"/></g></g></g><rect class="scrollbar" rx="20" ry="3" width="0" height="0" style="fill: rgb(128, 139, 164); fill-opacity: 1;" x="0" y="0"/></g><g class="g-gtitle"><text class="gtitle" x="400" y="50" text-anchor="middle" dy="0em" style="font-family: 'Open Sans', verdana, arial, sans-serif; font-size: 17px; fill: rgb(68, 68, 68); opacity: 1; font-weight: normal; white-space: pre;">C2 continuity</text></g><g class="g-xtitle"/><g class="g-ytitle"/></g></svg>