<svg class="main-svg" xmlns="http://www.w3.org/2000/svg" xmlns:xlink="http://www.w3.org/1999/xlink" width="1600" height="900" style="" viewBox="0 0 1600 900"><rect x="0" y="0" width="1600" height="900" style="fill: rgb(255, 255, 255); fill-opacity: 1;"/><defs id="defs-b62a7d"><g class="clips"><clipPath id="clipb62a7dxyplot" class="plotclip"><rect width="1304" height="720"/></clipPath><clipPath class="axesclip" id="clipb62a7dx"><rect x="80" y="0" width="1304" height="900"/></clipPath><clipPath class="axesclip" id="clipb62a7dy"><rect x="0" y="100" width="1600" height="720"/></clipPath><clipPath class="axesclip" id="clipb62a7dxy"><rect x="80" y="100" width="1304" height="720"/></clipPath></g><g class="gradients"/></defs><g class="bglayer"/><g class="layer-below"><g class="imagelayer"/><g class="shapelayer"/></g><g class="cartesianlayer"><g class="subplot xy"><g class="layer-subplot"><g class="shapelayer"/><g class="imagelayer"/></g><g class="gridlayer"><g class="x"><path class="xgrid crisp" transform="translate(188.9,0)" d="M0,100v720" style="stroke: rgb(238, 238, 238); stroke-opacity: 1; stroke-width: 1px;"/><path class="xgrid crisp" transform="translate(338.28,0)" d="M0,100v720" style="stroke: rgb(238, 238, 238); stroke-opacity: 1; stroke-width: 1px;"/><path class="xgrid crisp" transform="translate(487.67,0)" d="M0,100v720" style="stroke: rgb(238, 238, 238); stroke-opacity: 1; stroke-width: 1px;"/><path class="xgrid crisp" transform="translate(637.06,0)" d="M0,100v720" style="stroke: rgb(238, 238, 238); stroke-opacity: 1; stroke-width: 1px;"/><path class="xgrid crisp" transform="translate(786.45,0)" d="M0,100v720" style="stroke: rgb(238, 238, 238); stroke-opacity: 1; stroke-width: 1px;"/><path class="xgrid crisp" transform="translate(935.84,0)" d="M0,100v720" style="stroke: rgb(238, 238, 238); stroke-opacity: 1; stroke-width: 1px;"/><path class="xgrid crisp" transform="translate(1085.22,0)" d="M0,100v720" style="stroke: rgb(238, 238, 238); stroke-opacity: 1; stroke-width: 1px;"/><path class="xgrid crisp" transform="translate(1234.61,0)" d="M0,100v720" style="stroke: rgb(238, 238, 238); stroke-opacity: 1; stroke-width: 1px;"/></g><g class="y"><path class="ygrid crisp" transform="translate(0,776.96)" d="M80,0h1304" style="stroke: rgb(238, 238, 238); stroke-opacity: 1; stroke-width: 1px;"/><path class="ygrid crisp" transform="translate(0,682)" d="M80,0h1304" style="stroke: rgb(238, 238, 238); stroke-opacity: 1; stroke-width: 1px;"/><path class="ygrid crisp" transform="translate(0,587.05)" d="M80,0h1304" style="stroke: rgb(238, 238, 238); stroke-opacity: 1; stroke-width: 1px;"/><path class="ygrid crisp" transform="translate(0,397.13)" d="M80,0h1304" style="stroke: rgb(238, 238, 238); stroke-opacity: 1; stroke-width: 1px;"/><path class="ygrid crisp" transform="translate(0,302.18)" d="M80,0h1304" style="stroke: rgb(238, 238, 238); stroke-opacity: 1; stroke-width: 1px;"/><path class="ygrid crisp" transform="translate(0,207.22)" d="M80,0h1304" style="stroke: rgb(238, 238, 238); stroke-opacity: 1; stroke-width: 1px;"/><path class="ygrid crisp" transform="translate(0,112.26)" d="M80,0h1304" style="stroke: rgb(238, 238, 238); stroke-opacity: 1; stroke-width: 1px;"/></g></g><g class="zerolinelayer"><path class="yzl zl crisp" transform="translate(0,492.09)" d="M80,0h1304" style="stroke: rgb(68, 68, 68); stroke-opacity: 1; stroke-width: 1px;"/></g><path class="xlines-below"/><path class="ylines-below"/><g class="overlines-below"/><g class="xaxislayer-below"/><g class="yaxislayer-below"/><g class="overaxes-below"/><g class="plot" transform="translate(80,100)" clip-path="url('#clipb62a7dxyplot')"><g class="scatterlayer mlayer"><g class="trace scatter trace6130f5" style="stroke-miterlimit: 2; opacity: 1;"><g class="fills"/><g class="errorbars"/><g class="lines"><path class="js-line" d="M183.59,36L164.01,161.55L163.99,161.63L161.32,177.94L161.3,178.02L158.73,193.52L158.71,193.6L155.8,210.88L155.78,210.96L152.39,230.75L152.37,230.82L149.2,248.97L149.18,249.04L145.95,267.19L145.93,267.26L142.43,286.5L142.41,286.57L138.55,307.26L138.53,307.33L134.31,329.29L134.29,329.35L130.55,348.23L130.54,348.29L125.08,374.76L125.07,374.82L121.87,389.72L121.86,389.77L117.98,407.22L117.97,407.27L110.87,437.36L110.86,437.4L105.75,457.43L105.74,457.47L95.11,494.47L95.1,494.49L91.07,506.7L91.06,506.72L85.88,520.79L85.87,520.81L78.23,537.92L78.22,537.93L72.69,547.33L72.68,547.34L67.32,553.79L67.31,553.79L63.32,556.72L63.31,556.72L59.81,557.86L59.81,557.86L59.8,557.86L56.33,557.57L56.33,557.57L56.32,557.56L53.1,555.93L53.1,555.92L49.69,552.66L49.69,552.65L46.5,548.07L46.5,548.06L42.68,540.43L42.68,540.42L38.01,527.65L38.01,527.63L33.92,513.01L33.92,513L29.76,494.5L29.76,494.49L21.94,449.15L21.94,449.13L19.32,431.11L19.32,431.09L17.14,415.41L17.14,415.39L10.41,370.52L10.4,370.51L8.46,361.58L8.46,361.58L8.45,361.57L6.47,355.45L6.46,355.45L4.75,353.35L4.75,353.35L4.74,353.35L3.65,354.1L3.65,354.11L2.51,357.39L2.51,357.39L2.51,357.4L1.4,364.46L1.4,364.47L0.46,377.18L0.46,377.19L0.01,395.21L0.01,395.22L0.75,428.45L0.76,428.46L1.51,439.69L1.51,439.69L1.52,439.7L3.18,453.54L3.19,453.54L4.77,459.77L4.77,459.77L4.78,459.77L6.35,461.7L6.35,461.7L6.36,461.7L7.5,461.04L7.5,461.03L7.5,461.02L9,458.06L9,458.06L9,458.05L11.03,451.42L11.03,451.41L14.84,434.24L14.84,434.23L16.91,423.57L16.91,423.55L25.11,378.75L25.11,378.74L41.89,296.9L41.9,296.89L45.79,281.22L45.8,281.21L48.77,270.15L48.78,270.14L53.67,253.65L53.68,253.64L57.5,242.2L57.51,242.19L63.21,227.44L63.22,227.43L70.26,212.87L70.27,212.87L74.67,205.74L74.67,205.74L74.68,205.73L80.73,198.29L80.73,198.29L80.74,198.28L86.4,193.68L86.4,193.68L86.41,193.68L91.89,191.17L91.89,191.17L91.9,191.17L98.09,190.28L98.1,190.28L104.29,191.03L104.3,191.04L110.43,193.02L110.43,193.03L118.51,197.06L118.51,197.06L118.52,197.07L131.63,205.97L131.64,205.98L140.09,212.74L140.1,212.75L157.33,228.07L157.34,228.09L166.78,237.05L166.79,237.07L181.82,251.85L181.83,251.87L225.02,296.11L225.03,296.13L251.24,323.4L251.26,323.43L277.27,350.5L277.29,350.53L306.62,380.91L306.64,380.94L316.71,391.31L316.73,391.34L364.48,440.15L364.51,440.19L375.93,451.74L375.96,451.78L387.86,463.78L387.89,463.82L488.46,563.39L488.5,563.42L522.49,596.35L522.54,596.39L531.7,605.21L531.74,605.25L557.06,629.48" style="vector-effect: non-scaling-stroke; fill: none; stroke: rgb(31, 119, 180); stroke-opacity: 1; stroke-width: 2px; opacity: 1;"/></g><g class="points"/><g class="text"/></g><g class="trace scatter trace09249c" style="stroke-miterlimit: 2; opacity: 1;"><g class="fills"/><g class="errorbars"/><g class="lines"><path class="js-line" d="M557.06,629.48L568.69,640.05L568.71,640.06L579.3,648.76L579.32,648.77L595.54,660.33L595.56,660.33L610.22,668.88L610.23,668.88L626.32,676.12L626.34,676.12L635.39,679.19L635.41,679.19L645.22,681.67L645.23,681.67L658.9,683.65L658.92,683.65L673.08,683.86L673.09,683.85L681.38,683.1L681.39,683.09L694.15,680.65L694.16,680.64L702.47,678.22L702.48,678.21L715.5,673.09L715.51,673.08L726.13,667.72L726.14,667.71L741.61,658.03L741.62,658.02L755.44,647.55L755.45,647.54L765.74,638.68L765.75,638.67L774.9,630.07L774.91,630.06L795.09,608.87L795.09,608.86L809.84,591.67L809.85,591.65L817.86,581.81L817.86,581.8L832.2,563.43L832.21,563.41L859.24,527.06L859.24,527.05L918.73,448.04L918.74,448.04L928.06,436.85L928.07,436.85L936.1,427.64L936.11,427.63L946.17,416.72L946.18,416.72L968,395.81L968.01,395.81L978.34,387.35L978.35,387.35L987.54,380.66L987.55,380.66L996.14,375.15L996.15,375.15L1007.8,368.85L1007.8,368.85L1007.81,368.85L1018.93,364.12L1018.93,364.12L1018.94,364.12L1027,361.48L1027.01,361.48L1035.68,359.38L1035.69,359.38L1047.67,357.74L1047.68,357.74L1055.6,357.44L1055.6,357.44L1055.61,357.44L1067.77,358.19L1067.77,358.2L1075.91,359.49L1075.91,359.49L1075.92,359.5L1083.51,361.26L1083.51,361.27L1091.06,363.54L1091.07,363.55L1104.24,368.72L1104.24,368.72L1104.25,368.73L1116.15,374.64L1116.15,374.64L1116.16,374.65L1126.34,380.57L1126.34,380.58L1141.52,390.79L1141.52,390.79L1141.53,390.8L1154.55,400.72L1154.56,400.73L1166.31,410.47L1166.31,410.48L1173.89,417.1L1173.9,417.11L1186.52,428.6L1186.52,428.6L1186.53,428.61L1222.42,462.51L1222.42,462.52L1251.28,486.4L1251.29,486.4L1258.12,490.59L1258.12,490.59L1258.13,490.59L1265.46,493.92L1265.46,493.92L1265.47,493.92L1271.08,495.36L1271.08,495.36L1271.09,495.36L1277.01,495.4L1277.01,495.4L1277.02,495.4L1281.53,494.05L1281.53,494.04L1285.35,491.6L1285.35,491.6L1285.35,491.59L1288.62,488.21L1288.62,488.21L1288.62,488.2L1291.96,483.03L1291.96,483.03L1291.96,483.02L1294.9,476.38L1294.9,476.38L1294.9,476.37L1297.19,469.13L1297.19,469.13L1297.19,469.12L1300.1,455.33L1300.1,455.32L1301.68,443.6L1301.68,443.59L1303,428.06L1303,428.04L1303.95,400.91L1303.95,400.89L1304,392.09" style="vector-effect: non-scaling-stroke; fill: none; stroke: rgb(255, 127, 14); stroke-opacity: 1; stroke-width: 2px; opacity: 1;"/></g><g class="points"/><g class="text"/></g></g></g><g class="overplot"/><path class="xlines-above crisp" d="M0,0" style="fill: none;"/><path class="ylines-above crisp" d="M0,0" style="fill: none;"/><g class="overlines-above"/><g class="xaxislayer-above"><g class="xtick"><text text-anchor="middle" x="0" y="833" transform="translate(188.9,0)" style="font-family: 'Open Sans', verdana, arial, sans-serif; font-size: 12px; fill: rgb(68, 68, 68); fill-opacity: 1; white-space: pre;">1</text></g><g class="xtick"><text text-anchor="middle" x="0" y="833" transform="translate(338.28,0)" style="font-family: 'Open Sans', verdana, arial, sans-serif; font-size: 12px; fill: rgb(68, 68, 68); fill-opacity: 1; white-space: pre;">1.5</text></g><g class="xtick"><text text-anchor="middle" x="0" y="833" transform="translate(487.67,0)" style="font-family: 'Open Sans', verdana, arial, sans-serif; font-size: 12px; fill: rgb(68, 68, 68); fill-opacity: 1; white-space: pre;">2</text></g><g class="xtick"><text text-anchor="middle" x="0" y="833" transform="translate(637.06,0)" style="font-family: 'Open Sans', verdana, arial, sans-serif; font-size: 12px; fill: rgb(68, 68, 68); fill-opacity: 1; white-space: pre;">2.5</text></g><g class="xtick"><text text-anchor="middle" x="0" y="833" transform="translate(786.45,0)" style="font-family: 'Open Sans', verdana, arial, sans-serif; font-size: 12px; fill: rgb(68, 68, 68); fill-opacity: 1; white-space: pre;">3</text></g><g class="xtick"><text text-anchor="middle" x="0" y="833" transform="translate(935.84,0)" style="font-family: 'Open Sans', verdana, arial, sans-serif; font-size: 12px; fill: rgb(68, 68, 68); fill-opacity: 1; white-space: pre;">3.5</text></g><g class="xtick"><text text-anchor="middle" x="0" y="833" transform="translate(1085.22,0)" style="font-family: 'Open Sans', verdana, arial, sans-serif; font-size: 12px; fill: rgb(68, 68, 68); fill-opacity: 1; white-space: pre;">4</text></g><g class="xtick"><text text-anchor="middle" x="0" y="833" transform="translate(1234.61,0)" style="font-family: 'Open Sans', verdana, arial, sans-serif; font-size: 12px; fill: rgb(68, 68, 68); fill-opacity: 1; white-space: pre;">4.5</text></g><g class="xtick"><text text-anchor="middle" x="0" y="833" transform="translate(1384,0)" style="font-family: 'Open Sans', verdana, arial, sans-serif; font-size: 12px; fill: rgb(68, 68, 68); fill-opacity: 1; white-space: pre;">5</text></g></g><g class="yaxislayer-above"><g class="ytick"><text text-anchor="end" x="79" y="4.199999999999999" transform="translate(0,776.96)" style="font-family: 'Open Sans', verdana, arial, sans-serif; font-size: 12px; fill: rgb(68, 68, 68); fill-opacity: 1; white-space: pre;">−3</text></g><g class="ytick"><text text-anchor="end" x="79" y="4.199999999999999" transform="translate(0,682)" style="font-family: 'Open Sans', verdana, arial, sans-serif; font-size: 12px; fill: rgb(68, 68, 68); fill-opacity: 1; white-space: pre;">−2</text></g><g class="ytick"><text text-anchor="end" x="79" y="4.199999999999999" transform="translate(0,587.05)" style="font-family: 'Open Sans', verdana, arial, sans-serif; font-size: 12px; fill: rgb(68, 68, 68); fill-opacity: 1; white-space: pre;">−1</text></g><g class="ytick"><text text-anchor="end" x="79" y="4.199999999999999" transform="translate(0,492.09)" style="font-family: 'Open Sans', verdana, arial, sans-serif; font-size: 12px; fill: rgb(68, 68, 68); fill-opacity: 1; white-space: pre;">0</text></g><g class="ytick"><text text-anchor="end" x="79" y="4.199999999999999" transform="translate(0,397.13)" style="font-family: 'Open Sans', verdana, arial, sans-serif; font-size: 12px; fill: rgb(68, 68, 68); fill-opacity: 1; white-space: pre;">1</text></g><g class="ytick"><text text-anchor="end" x="79" y="4.199999999999999" transform="translate(0,302.18)" style="font-family: 'Open Sans', verdana, arial, sans-serif; font-size: 12px; fill: rgb(68, 68, 68); fill-opacity: 1; white-space: pre;">2</text></g><g class="ytick"><text text-anchor="end" x="79" y="4.199999999999999" transform="translate(0,207.22)" style="font-family: 'Open Sans', verdana, arial, sans-serif; font-size: 12px; fill: rgb(68, 68, 68); fill-opacity: 1; white-space: pre;">3</text></g><g class="ytick"><text text-anchor="end" x="79" y="4.199999999999999" transform="translate(0,112.26)" style="font-family: 'Open Sans', verdana, arial, sans-serif; font-size: 12px; fill: rgb(68, 68, 68); fill-opacity: 1; white-space: pre;">4</text></g></g><g class="overaxes-above"/></g></g><g class="polarlayer"/><g class="ternarylayer"/><g class="geolayer"/><g class="funnelarealayer"/><g class="pielayer"/><g class="treemaplayer"/><g class="sunburstlayer"/><g class="glimages"/><defs id="topdefs-b62a7d"><g class="clips"/><clipPath id="legendb62a7d"><rect width="178" height="48" x="0" y="0"/></clipPath></defs><g class="layer-above"><g class="imagelayer"/><g class="shapelayer"/></g><g class="infolayer"><g class="legend" pointer-events="all" transform="translate(1410.08,100)"><rect class="bg" shape-rendering="crispEdges" style="stroke: rgb(68, 68, 68); stroke-opacity: 1; fill: rgb(255, 255, 255); fill-opacity: 1; stroke-width: 0px;" width="178" height="48" x="0" y="0"/><g class="scrollbox" transform="" clip-path="url('#legendb62a7d')"><g class="groups"><g class="traces" transform="translate(0,14.5)" style="opacity: 1;"><text class="legendtext" text-anchor="start" x="40" y="4.680000000000001" style="font-family: 'Open Sans', verdana, arial, sans-serif; font-size: 12px; fill: rgb(68, 68, 68); fill-opacity: 1; white-space: pre;">B-Spline First Derivative</text><g class="layers" style="opacity: 1;"><g class="legendfill"/><g class="legendlines"><path class="js-line" d="M5,0h30" style="fill: none; stroke: rgb(31, 119, 180); stroke-opacity: 1; stroke-width: 2px;"/></g><g class="legendsymbols"><g class="legendpoints"/></g></g><rect class="legendtoggle" x="0" y="-9.5" width="173" height="19" style="fill: rgb(0, 0, 0); fill-opacity: 0;"/></g><g class="traces" transform="translate(0,33.5)" style="opacity: 1;"><text class="legendtext" text-anchor="start" x="40" y="4.680000000000001" style="font-family: 'Open Sans', verdana, arial, sans-serif; font-size: 12px; fill: rgb(68, 68, 68); fill-opacity: 1; white-space: pre;">Bezier First Derivative</text><g class="layers" style="opacity: 1;"><g class="legendfill"/><g class="legendlines"><path class="js-line" d="M5,0h30" style="fill: none; stroke: rgb(255, 127, 14); stroke-opacity: 1; stroke-width: 2px;"/></g><g class="legendsymbols"><g class="legendpoints"/></g></g><rect class="legendtoggle" x="0" y="-9.5" width="173" height="19" style="fill: rgb(0, 0, 0); fill-opacity: 0;"/></g></g></g><rect class="scrollbar" rx="20" ry="3" width="0" height="0" style="fill: rgb(128, 139, 164); fill-opacity: 1;" x="0" y="0"/></g><g class="g-gtitle"><text class="gtitle" x="800" y="50" text-anchor="middle" dy="0em" style="font-family: 'Open Sans', verdana, arial, sans-serif; font-size: 17px; fill: rgb(68, 68, 68); opacity: 1; font-weight: normal; white-space: pre;">C2 continuity</text></g><g class="g-xtitle"/><g class="g-ytitle"/></g></svg>