<svg class="main-svg" xmlns="http://www.w3.org/2000/svg" xmlns:xlink="http://www.w3.org/1999/xlink" width="1600" height="900" style="" viewBox="0 0 1600 900"><rect x="0" y="0" width="1600" height="900" style="fill: rgb(255, 255, 255); fill-opacity: 1;"/><defs id="defs-845531"><g class="clips"><clipPath id="clip845531xyplot" class="plotclip"><rect width="1287" height="720"/></clipPath><clipPath class="axesclip" id="clip845531x"><rect x="80" y="0" width="1287" height="900"/></clipPath><clipPath class="axesclip" id="clip845531y"><rect x="0" y="100" width="1600" height="720"/></clipPath><clipPath class="axesclip" id="clip845531xy"><rect x="80" y="100" width="1287" height="720"/></clipPath></g><g class="gradients"/></defs><g class="bglayer"/><g class="layer-below"><g class="imagelayer"/><g class="shapelayer"/></g><g class="cartesianlayer"><g class="subplot xy"><g class="layer-subplot"><g class="shapelayer"/><g class="imagelayer"/></g><g class="gridlayer"><g class="x"><path class="xgrid crisp" transform="translate(484.49,0)" d="M0,100v720" style="stroke: rgb(238, 238, 238); stroke-opacity: 1; stroke-width: 1px;"/><path class="xgrid crisp" transform="translate(705.11,0)" d="M0,100v720" style="stroke: rgb(238, 238, 238); stroke-opacity: 1; stroke-width: 1px;"/><path class="xgrid crisp" transform="translate(925.74,0)" d="M0,100v720" style="stroke: rgb(238, 238, 238); stroke-opacity: 1; stroke-width: 1px;"/><path class="xgrid crisp" transform="translate(1146.37,0)" d="M0,100v720" style="stroke: rgb(238, 238, 238); stroke-opacity: 1; stroke-width: 1px;"/></g><g class="y"><path class="ygrid crisp" transform="translate(0,740.8)" d="M80,0h1287" style="stroke: rgb(238, 238, 238); stroke-opacity: 1; stroke-width: 1px;"/><path class="ygrid crisp" transform="translate(0,654.4)" d="M80,0h1287" style="stroke: rgb(238, 238, 238); stroke-opacity: 1; stroke-width: 1px;"/><path class="ygrid crisp" transform="translate(0,568)" d="M80,0h1287" style="stroke: rgb(238, 238, 238); stroke-opacity: 1; stroke-width: 1px;"/><path class="ygrid crisp" transform="translate(0,395.2)" d="M80,0h1287" style="stroke: rgb(238, 238, 238); stroke-opacity: 1; stroke-width: 1px;"/><path class="ygrid crisp" transform="translate(0,308.8)" d="M80,0h1287" style="stroke: rgb(238, 238, 238); stroke-opacity: 1; stroke-width: 1px;"/><path class="ygrid crisp" transform="translate(0,222.4)" d="M80,0h1287" style="stroke: rgb(238, 238, 238); stroke-opacity: 1; stroke-width: 1px;"/><path class="ygrid crisp" transform="translate(0,136)" d="M80,0h1287" style="stroke: rgb(238, 238, 238); stroke-opacity: 1; stroke-width: 1px;"/></g></g><g class="zerolinelayer"><path class="xzl zl crisp" transform="translate(263.86,0)" d="M0,100v720" style="stroke: rgb(68, 68, 68); stroke-opacity: 1; stroke-width: 1px;"/><path class="yzl zl crisp" transform="translate(0,481.6)" d="M80,0h1287" style="stroke: rgb(68, 68, 68); stroke-opacity: 1; stroke-width: 1px;"/></g><path class="xlines-below"/><path class="ylines-below"/><g class="overlines-below"/><g class="xaxislayer-below"/><g class="yaxislayer-below"/><g class="overaxes-below"/><g class="plot" transform="translate(80,100)" clip-path="url('#clip845531xyplot')"><g class="scatterlayer mlayer"><g class="trace scatter traced1a6bc" style="stroke-miterlimit: 2; opacity: 1;"><g class="fills"/><g class="errorbars"/><g class="lines"><path class="js-line" d="M0,684L24.63,588.55L24.64,588.52L30.74,565.86L30.75,565.83L38.95,536.12L38.96,536.09L45.48,513.1L45.49,513.07L68.4,437.58L68.41,437.56L79.39,404.92L79.4,404.9L85.3,388.53L85.31,388.51L91.42,372.55L91.43,372.53L95.76,361.9L95.77,361.89L103.6,344.3L103.61,344.29L109.03,333.54L109.04,333.53L114.96,323.36L114.96,323.36L114.97,323.35L120.93,315.07L120.94,315.07L125.28,310.52L125.29,310.52L130.64,307.01L130.64,307.01L130.65,307.01L134.4,306.21L134.4,306.21L134.41,306.21L137.88,306.96L137.88,306.97L140.99,309.11L140.99,309.11L140.99,309.12L143.68,312.33L143.68,312.33L143.68,312.34L146.47,317.3L146.47,317.31L149.45,324.93L149.45,324.94L152.76,337.22L152.76,337.23L156.69,354.87L156.69,354.88L166.28,388.74L166.29,388.75L170.98,400.47L170.98,400.47L170.99,400.48L175.02,408.01L175.03,408.01L179.1,413.22L179.1,413.22L179.11,413.22L182.8,415.86L182.8,415.86L182.81,415.86L186.27,416.54L186.27,416.54L186.28,416.54L189.55,415.58L189.55,415.58L189.56,415.57L192.74,413.15L192.74,413.15L192.74,413.14L196.63,408.2L196.63,408.2L196.63,408.19L200.19,401.74L200.19,401.74L200.19,401.73L204.52,391.42L204.52,391.41L207.72,382.05L207.72,382.04L212.43,365.55L212.43,365.54L222.47,329.88L222.48,329.87L227.2,318.05L227.21,318.05L231.99,308.77L232,308.77L236.94,301.61L236.95,301.61L241.22,297.16L241.22,297.16L241.23,297.16L245.09,294.36L245.09,294.36L245.1,294.36L249.73,292.38L249.73,292.38L249.74,292.38L254.9,291.77L254.9,291.77L254.91,291.77L259.61,292.52L259.61,292.52L259.62,292.53L264.87,294.7L264.87,294.7L264.88,294.71L270.16,298.18L270.16,298.19L275.17,302.57L275.17,302.57L275.18,302.58L283.46,311.91L283.46,311.92L289.95,320.87L289.95,320.88L295.35,329.32L295.35,329.33L304.86,346.19L304.86,346.2L312.72,358.81L312.73,358.82L321.98,368.8L321.99,368.81L334.36,379.15L334.38,379.16L347.21,388.09L347.23,388.1L366.01,399.29L366.03,399.3L376.93,405.13L376.95,405.14L409.34,420.55L409.37,420.56L451.29,437.77L451.32,437.78L466.94,443.66L466.97,443.67L486.98,450.87L487.02,450.88L511.66,459.32L511.69,459.33L540.4,468.67L540.44,468.68L572.99,478.74L573.03,478.75L594.66,485.17L594.7,485.18L625.08,493.89L625.12,493.9L665.43,504.98L665.48,504.99L692.4,512.13L692.45,512.14L767.11,531.02L767.16,531.03L798.4,538.59L798.45,538.6L824.41,544.75L824.47,544.76L865.91,554.35L865.97,554.36L898.07,561.62L898.13,561.63L949.54,572.96L949.6,572.97L1029.25,589.91L1029.32,589.92L1136.65,611.76L1136.72,611.77L1262.73,636.22L1262.81,636.23L1287,640.8" style="vector-effect: non-scaling-stroke; fill: none; stroke: rgb(31, 119, 180); stroke-opacity: 1; stroke-width: 2px; opacity: 1;"/></g><g class="points"/><g class="text"/></g><g class="trace scatter trace5dbb49" style="stroke-miterlimit: 2; opacity: 1;"><g class="fills"/><g class="errorbars"/><g class="lines"><path class="js-line" d="M1287,640.8L1250.92,598.66L1250.88,598.63L1237.81,583.49L1237.77,583.45L1189.12,527.83L1189.09,527.8L1180.58,518.18L1180.55,518.15L1148.5,482.33L1148.48,482.3L1067.63,394.96L1067.6,394.94L1059.09,386.04L1059.06,386.01L1040.24,366.58L1040.21,366.56L1025.55,351.67L1025.52,351.64L1012.26,338.38L1012.23,338.36L1000.9,327.19L1000.88,327.17L974.41,301.76L974.39,301.75L959.3,287.72L959.28,287.71L929.44,261.17L929.42,261.16L895.48,233.37L895.46,233.36L870.26,214.9L870.24,214.9L850.99,202.47L850.98,202.47L835.77,193.98L835.76,193.98L818.85,186.34L818.84,186.34L809.57,183.18L809.56,183.18L800.75,181.03L800.74,181.03L791.24,179.89L791.24,179.89L791.23,179.89L783.32,180.11L783.31,180.12L776.97,181.29L776.97,181.3L770,183.92L770,183.93L765.15,186.82L765.15,186.83L760.88,190.33L760.88,190.34L755.97,195.85L755.97,195.85L755.96,195.86L749.99,205.71L749.99,205.71L749.99,205.72L746.04,215.28L746.04,215.28L746.04,215.29L742.04,229.61L742.04,229.62L740.06,239.94L740.06,239.95L738.37,252.21L738.37,252.22L736.88,269.05L736.88,269.06L735.7,297.89L735.7,297.9L734.95,387.29L734.94,387.3L734.19,404.52L734.18,404.53L733.43,415.1L733.42,415.11L731.56,431.91L731.55,431.91L728.69,447.78L728.68,447.79L725.72,458.81L725.71,458.82L722.82,466.77L722.81,466.78L717.69,476.87L717.68,476.87L712.54,483.82L712.54,483.82L712.53,483.82L707.67,488.49L707.67,488.49L707.66,488.49L701.86,492.36L701.86,492.36L701.85,492.36L695.87,494.92L695.86,494.92L688.57,496.56L688.57,496.56L688.56,496.56L680.14,496.94L680.14,496.94L680.13,496.93L672.45,496.18L672.44,496.17L663.35,494.21L663.34,494.2L651.61,490.31L651.6,490.3L635.92,483.24L635.91,483.23L620.46,474.68L620.45,474.67L606.16,465.65L606.15,465.64L589.67,454.16L589.66,454.15L574.48,442.73L574.47,442.72L556.21,428.1L556.2,428.08L542.96,416.95L542.95,416.94L521.41,398.02L521.39,398L475.71,355.21L475.69,355.19L459.77,339.58L459.75,339.56L446.24,326.07L446.22,326.05L406.57,285.34L406.55,285.31L386.92,264.62L386.9,264.59L371.39,248.02L371.37,247.99L357.93,233.49L357.91,233.46L345.93,220.42L345.91,220.39L334.83,208.25L334.81,208.22L288.12,156.19L288.1,156.16L266.13,131.26L266.1,131.22L247.77,110.26L247.74,110.22L183.86,36" style="vector-effect: non-scaling-stroke; fill: none; stroke: rgb(255, 127, 14); stroke-opacity: 1; stroke-width: 2px; opacity: 1;"/></g><g class="points"/><g class="text"/></g></g></g><g class="overplot"/><path class="xlines-above crisp" d="M0,0" style="fill: none;"/><path class="ylines-above crisp" d="M0,0" style="fill: none;"/><g class="overlines-above"/><g class="xaxislayer-above"><g class="xtick"><text text-anchor="middle" x="0" y="833" transform="translate(263.86,0)" style="font-family: 'Open Sans', verdana, arial, sans-serif; font-size: 12px; fill: rgb(68, 68, 68); fill-opacity: 1; white-space: pre;">0</text></g><g class="xtick"><text text-anchor="middle" x="0" y="833" transform="translate(484.49,0)" style="font-family: 'Open Sans', verdana, arial, sans-serif; font-size: 12px; fill: rgb(68, 68, 68); fill-opacity: 1; white-space: pre;">1</text></g><g class="xtick"><text text-anchor="middle" x="0" y="833" transform="translate(705.11,0)" style="font-family: 'Open Sans', verdana, arial, sans-serif; font-size: 12px; fill: rgb(68, 68, 68); fill-opacity: 1; white-space: pre;">2</text></g><g class="xtick"><text text-anchor="middle" x="0" y="833" transform="translate(925.74,0)" style="font-family: 'Open Sans', verdana, arial, sans-serif; font-size: 12px; fill: rgb(68, 68, 68); fill-opacity: 1; white-space: pre;">3</text></g><g class="xtick"><text text-anchor="middle" x="0" y="833" transform="translate(1146.37,0)" style="font-family: 'Open Sans', verdana, arial, sans-serif; font-size: 12px; fill: rgb(68, 68, 68); fill-opacity: 1; white-space: pre;">4</text></g><g class="xtick"><text text-anchor="middle" x="0" y="833" transform="translate(1367,0)" style="font-family: 'Open Sans', verdana, arial, sans-serif; font-size: 12px; fill: rgb(68, 68, 68); fill-opacity: 1; white-space: pre;">5</text></g></g><g class="yaxislayer-above"><g class="ytick"><text text-anchor="end" x="79" y="4.199999999999999" transform="translate(0,740.8)" style="font-family: 'Open Sans', verdana, arial, sans-serif; font-size: 12px; fill: rgb(68, 68, 68); fill-opacity: 1; white-space: pre;">−15</text></g><g class="ytick"><text text-anchor="end" x="79" y="4.199999999999999" transform="translate(0,654.4)" style="font-family: 'Open Sans', verdana, arial, sans-serif; font-size: 12px; fill: rgb(68, 68, 68); fill-opacity: 1; white-space: pre;">−10</text></g><g class="ytick"><text text-anchor="end" x="79" y="4.199999999999999" transform="translate(0,568)" style="font-family: 'Open Sans', verdana, arial, sans-serif; font-size: 12px; fill: rgb(68, 68, 68); fill-opacity: 1; white-space: pre;">−5</text></g><g class="ytick"><text text-anchor="end" x="79" y="4.199999999999999" transform="translate(0,481.6)" style="font-family: 'Open Sans', verdana, arial, sans-serif; font-size: 12px; fill: rgb(68, 68, 68); fill-opacity: 1; white-space: pre;">0</text></g><g class="ytick"><text text-anchor="end" x="79" y="4.199999999999999" transform="translate(0,395.2)" style="font-family: 'Open Sans', verdana, arial, sans-serif; font-size: 12px; fill: rgb(68, 68, 68); fill-opacity: 1; white-space: pre;">5</text></g><g class="ytick"><text text-anchor="end" x="79" y="4.199999999999999" transform="translate(0,308.8)" style="font-family: 'Open Sans', verdana, arial, sans-serif; font-size: 12px; fill: rgb(68, 68, 68); fill-opacity: 1; white-space: pre;">10</text></g><g class="ytick"><text text-anchor="end" x="79" y="4.199999999999999" transform="translate(0,222.4)" style="font-family: 'Open Sans', verdana, arial, sans-serif; font-size: 12px; fill: rgb(68, 68, 68); fill-opacity: 1; white-space: pre;">15</text></g><g class="ytick"><text text-anchor="end" x="79" y="4.199999999999999" transform="translate(0,136)" style="font-family: 'Open Sans', verdana, arial, sans-serif; font-size: 12px; fill: rgb(68, 68, 68); fill-opacity: 1; white-space: pre;">20</text></g></g><g class="overaxes-above"/></g></g><g class="polarlayer"/><g class="ternarylayer"/><g class="geolayer"/><g class="funnelarealayer"/><g class="pielayer"/><g class="treemaplayer"/><g class="sunburstlayer"/><g class="glimages"/><defs id="topdefs-845531"><g class="clips"/><clipPath id="legend845531"><rect width="195" height="48" x="0" y="0"/></clipPath></defs><g class="layer-above"><g class="imagelayer"/><g class="shapelayer"/></g><g class="infolayer"><g class="legend" pointer-events="all" transform="translate(1392.74,100)"><rect class="bg" shape-rendering="crispEdges" style="stroke: rgb(68, 68, 68); stroke-opacity: 1; fill: rgb(255, 255, 255); fill-opacity: 1; stroke-width: 0px;" width="195" height="48" x="0" y="0"/><g class="scrollbox" transform="" clip-path="url('#legend845531')"><g class="groups"><g class="traces" transform="translate(0,14.5)" style="opacity: 1;"><text class="legendtext" text-anchor="start" x="40" y="4.680000000000001" style="font-family: 'Open Sans', verdana, arial, sans-serif; font-size: 12px; fill: rgb(68, 68, 68); fill-opacity: 1; white-space: pre;">B-Spline Second Derivative</text><g class="layers" style="opacity: 1;"><g class="legendfill"/><g class="legendlines"><path class="js-line" d="M5,0h30" style="fill: none; stroke: rgb(31, 119, 180); stroke-opacity: 1; stroke-width: 2px;"/></g><g class="legendsymbols"><g class="legendpoints"/></g></g><rect class="legendtoggle" x="0" y="-9.5" width="190" height="19" style="fill: rgb(0, 0, 0); fill-opacity: 0;"/></g><g class="traces" transform="translate(0,33.5)" style="opacity: 1;"><text class="legendtext" text-anchor="start" x="40" y="4.680000000000001" style="font-family: 'Open Sans', verdana, arial, sans-serif; font-size: 12px; fill: rgb(68, 68, 68); fill-opacity: 1; white-space: pre;">Bezier Second Derivative</text><g class="layers" style="opacity: 1;"><g class="legendfill"/><g class="legendlines"><path class="js-line" d="M5,0h30" style="fill: none; stroke: rgb(255, 127, 14); stroke-opacity: 1; stroke-width: 2px;"/></g><g class="legendsymbols"><g class="legendpoints"/></g></g><rect class="legendtoggle" x="0" y="-9.5" width="190" height="19" style="fill: rgb(0, 0, 0); fill-opacity: 0;"/></g></g></g><rect class="scrollbar" rx="20" ry="3" width="0" height="0" style="fill: rgb(128, 139, 164); fill-opacity: 1;" x="0" y="0"/></g><g class="g-gtitle"><text class="gtitle" x="800" y="50" text-anchor="middle" dy="0em" style="font-family: 'Open Sans', verdana, arial, sans-serif; font-size: 17px; fill: rgb(68, 68, 68); opacity: 1; font-weight: normal; white-space: pre;">C2 continuity</text></g><g class="g-xtitle"/><g class="g-ytitle"/></g></svg>